%TF.GenerationSoftware,KiCad,Pcbnew,10.0.1*%
%TF.CreationDate,2026-05-05T14:40:40-05:00*%
%TF.ProjectId,VEXBridge,56455842-7269-4646-9765-2e6b69636164,1.0*%
%TF.SameCoordinates,Original*%
%TF.FileFunction,Legend,Top*%
%TF.FilePolarity,Positive*%
%FSLAX46Y46*%
G04 Gerber Fmt 4.6, Leading zero omitted, Abs format (unit mm)*
G04 Created by KiCad (PCBNEW 10.0.1) date 2026-05-05 14:40:40*
%MOMM*%
%LPD*%
G01*
G04 APERTURE LIST*
G04 Aperture macros list*
%AMRoundRect*
0 Rectangle with rounded corners*
0 $1 Rounding radius*
0 $2 $3 $4 $5 $6 $7 $8 $9 X,Y pos of 4 corners*
0 Add a 4 corners polygon primitive as box body*
4,1,4,$2,$3,$4,$5,$6,$7,$8,$9,$2,$3,0*
0 Add four circle primitives for the rounded corners*
1,1,$1+$1,$2,$3*
1,1,$1+$1,$4,$5*
1,1,$1+$1,$6,$7*
1,1,$1+$1,$8,$9*
0 Add four rect primitives between the rounded corners*
20,1,$1+$1,$2,$3,$4,$5,0*
20,1,$1+$1,$4,$5,$6,$7,0*
20,1,$1+$1,$6,$7,$8,$9,0*
20,1,$1+$1,$8,$9,$2,$3,0*%
%AMOutline5P*
0 Free polygon, 5 corners , with rotation*
0 The origin of the aperture is its center*
0 number of corners: always 5*
0 $1 to $10 corner X, Y*
0 $11 Rotation angle, in degrees counterclockwise*
0 create outline with 5 corners*
4,1,5,$1,$2,$3,$4,$5,$6,$7,$8,$9,$10,$1,$2,$11*%
%AMOutline6P*
0 Free polygon, 6 corners , with rotation*
0 The origin of the aperture is its center*
0 number of corners: always 6*
0 $1 to $12 corner X, Y*
0 $13 Rotation angle, in degrees counterclockwise*
0 create outline with 6 corners*
4,1,6,$1,$2,$3,$4,$5,$6,$7,$8,$9,$10,$11,$12,$1,$2,$13*%
%AMOutline7P*
0 Free polygon, 7 corners , with rotation*
0 The origin of the aperture is its center*
0 number of corners: always 7*
0 $1 to $14 corner X, Y*
0 $15 Rotation angle, in degrees counterclockwise*
0 create outline with 7 corners*
4,1,7,$1,$2,$3,$4,$5,$6,$7,$8,$9,$10,$11,$12,$13,$14,$1,$2,$15*%
%AMOutline8P*
0 Free polygon, 8 corners , with rotation*
0 The origin of the aperture is its center*
0 number of corners: always 8*
0 $1 to $16 corner X, Y*
0 $17 Rotation angle, in degrees counterclockwise*
0 create outline with 8 corners*
4,1,8,$1,$2,$3,$4,$5,$6,$7,$8,$9,$10,$11,$12,$13,$14,$15,$16,$1,$2,$17*%
%AMFreePoly0*
4,1,23,0.000000,0.745722,0.065263,0.745722,0.191342,0.711940,0.304381,0.646677,0.396677,0.554381,0.461940,0.441342,0.495722,0.315263,0.495722,0.250000,0.500000,0.250000,0.500000,-0.250000,0.495722,-0.250000,0.495722,-0.315263,0.461940,-0.441342,0.396677,-0.554381,0.304381,-0.646677,0.191342,-0.711940,0.065263,-0.745722,0.000000,-0.745722,0.000000,-0.750000,-0.550000,-0.750000,
-0.550000,0.750000,0.000000,0.750000,0.000000,0.745722,0.000000,0.745722,$1*%
%AMFreePoly1*
4,1,23,0.550000,-0.750000,0.000000,-0.750000,0.000000,-0.745722,-0.065263,-0.745722,-0.191342,-0.711940,-0.304381,-0.646677,-0.396677,-0.554381,-0.461940,-0.441342,-0.495722,-0.315263,-0.495722,-0.250000,-0.500000,-0.250000,-0.500000,0.250000,-0.495722,0.250000,-0.495722,0.315263,-0.461940,0.441342,-0.396677,0.554381,-0.304381,0.646677,-0.191342,0.711940,-0.065263,0.745722,0.000000,0.745722,
0.000000,0.750000,0.550000,0.750000,0.550000,-0.750000,0.550000,-0.750000,$1*%
G04 Aperture macros list end*
%ADD10C,0.120000*%
%ADD11C,0.000000*%
%ADD12C,0.150000*%
%ADD13RoundRect,0.075000X0.275000X-0.075000X0.275000X0.075000X-0.275000X0.075000X-0.275000X-0.075000X0*%
%ADD14RoundRect,0.175000X0.175000X-0.325000X0.175000X0.325000X-0.175000X0.325000X-0.175000X-0.325000X0*%
%ADD15O,2.100000X1.100000*%
%ADD16O,2.600000X1.100000*%
%ADD17RoundRect,0.250000X0.450000X-0.262500X0.450000X0.262500X-0.450000X0.262500X-0.450000X-0.262500X0*%
%ADD18RoundRect,0.225000X-0.225000X-0.250000X0.225000X-0.250000X0.225000X0.250000X-0.225000X0.250000X0*%
%ADD19RoundRect,0.250000X-0.262500X-0.450000X0.262500X-0.450000X0.262500X0.450000X-0.262500X0.450000X0*%
%ADD20RoundRect,0.150000X0.512500X0.150000X-0.512500X0.150000X-0.512500X-0.150000X0.512500X-0.150000X0*%
%ADD21RoundRect,0.250000X0.262500X0.450000X-0.262500X0.450000X-0.262500X-0.450000X0.262500X-0.450000X0*%
%ADD22RoundRect,0.250000X-0.250000X-0.475000X0.250000X-0.475000X0.250000X0.475000X-0.250000X0.475000X0*%
%ADD23O,3.700000X2.700000*%
%ADD24RoundRect,0.250001X1.599999X-1.099999X1.599999X1.099999X-1.599999X1.099999X-1.599999X-1.099999X0*%
%ADD25C,3.000000*%
%ADD26RoundRect,0.225000X-0.250000X0.225000X-0.250000X-0.225000X0.250000X-0.225000X0.250000X0.225000X0*%
%ADD27RoundRect,0.250000X1.450000X-0.312500X1.450000X0.312500X-1.450000X0.312500X-1.450000X-0.312500X0*%
%ADD28RoundRect,0.250000X-0.450000X0.262500X-0.450000X-0.262500X0.450000X-0.262500X0.450000X0.262500X0*%
%ADD29RoundRect,0.062500X0.062500X-0.250000X0.062500X0.250000X-0.062500X0.250000X-0.062500X-0.250000X0*%
%ADD30RoundRect,0.112500X0.112500X-0.175000X0.112500X0.175000X-0.112500X0.175000X-0.112500X-0.175000X0*%
%ADD31RoundRect,0.112500X0.112500X-0.237500X0.112500X0.237500X-0.112500X0.237500X-0.112500X-0.237500X0*%
%ADD32R,1.550000X0.600000*%
%ADD33R,2.600000X3.100000*%
%ADD34C,5.400000*%
%ADD35RoundRect,0.140000X0.170000X-0.140000X0.170000X0.140000X-0.170000X0.140000X-0.170000X-0.140000X0*%
%ADD36RoundRect,0.250000X0.475000X-0.250000X0.475000X0.250000X-0.475000X0.250000X-0.475000X-0.250000X0*%
%ADD37RoundRect,0.250000X0.350000X0.650000X-0.350000X0.650000X-0.350000X-0.650000X0.350000X-0.650000X0*%
%ADD38RoundRect,0.150000X0.150000X0.625000X-0.150000X0.625000X-0.150000X-0.625000X0.150000X-0.625000X0*%
%ADD39RoundRect,0.250000X-0.350000X-0.650000X0.350000X-0.650000X0.350000X0.650000X-0.350000X0.650000X0*%
%ADD40RoundRect,0.150000X-0.150000X-0.625000X0.150000X-0.625000X0.150000X0.625000X-0.150000X0.625000X0*%
%ADD41RoundRect,0.100000X0.100000X-0.637500X0.100000X0.637500X-0.100000X0.637500X-0.100000X-0.637500X0*%
%ADD42RoundRect,0.218750X-0.256250X0.218750X-0.256250X-0.218750X0.256250X-0.218750X0.256250X0.218750X0*%
%ADD43R,0.800000X0.800000*%
%ADD44R,1.200000X1.200000*%
%ADD45Outline5P,-0.600000X0.204000X-0.204000X0.600000X0.600000X0.600000X0.600000X-0.600000X-0.600000X-0.600000X0.000000*%
%ADD46R,0.400000X0.800000*%
%ADD47R,0.800000X0.400000*%
%ADD48RoundRect,0.225000X0.225000X0.250000X-0.225000X0.250000X-0.225000X-0.250000X0.225000X-0.250000X0*%
%ADD49RoundRect,0.225000X0.250000X-0.225000X0.250000X0.225000X-0.250000X0.225000X-0.250000X-0.225000X0*%
%ADD50FreePoly0,270.000000*%
%ADD51R,1.500000X1.000000*%
%ADD52FreePoly1,270.000000*%
%ADD53RoundRect,0.250000X0.275000X0.750000X-0.275000X0.750000X-0.275000X-0.750000X0.275000X-0.750000X0*%
%ADD54RoundRect,0.150000X-0.825000X-0.150000X0.825000X-0.150000X0.825000X0.150000X-0.825000X0.150000X0*%
%ADD55RoundRect,0.200000X-0.200000X-0.275000X0.200000X-0.275000X0.200000X0.275000X-0.200000X0.275000X0*%
%ADD56RoundRect,0.250000X-0.275000X-0.750000X0.275000X-0.750000X0.275000X0.750000X-0.275000X0.750000X0*%
%ADD57RoundRect,0.375000X0.375000X-0.625000X0.375000X0.625000X-0.375000X0.625000X-0.375000X-0.625000X0*%
%ADD58RoundRect,0.500000X1.400000X-0.500000X1.400000X0.500000X-1.400000X0.500000X-1.400000X-0.500000X0*%
%ADD59C,1.800000*%
%ADD60RoundRect,0.250000X0.650000X-0.650000X0.650000X0.650000X-0.650000X0.650000X-0.650000X-0.650000X0*%
%ADD61C,3.250000*%
%ADD62RoundRect,0.249999X0.900001X-0.450001X0.900001X0.450001X-0.900001X0.450001X-0.900001X-0.450001X0*%
G04 APERTURE END LIST*
%TO.C,J15*%
D10*
X133015000Y-33750000D02*
X133015000Y-24250000D01*
X135515000Y-33750000D02*
X138215000Y-33750000D01*
X141375000Y-33750000D02*
X141165000Y-33750000D01*
X132865000Y-32125000D02*
X132865000Y-31900000D01*
X138265000Y-24250000D02*
X135540000Y-24250000D01*
X141365000Y-24250000D02*
X141140000Y-24250000D01*
D11*
%TO.C,kibuzzard-69FA46C9*%
G36*
X39074637Y-37140549D02*
G01*
X39074637Y-37948304D01*
X39074637Y-41251696D01*
X39074637Y-42059451D01*
X38600000Y-42375875D01*
X38125363Y-42059451D01*
X38125363Y-41251696D01*
X38125363Y-40860097D01*
X38299515Y-40860097D01*
X38299515Y-41251696D01*
X38398384Y-41251696D01*
X38398384Y-40993861D01*
X38430372Y-41004039D01*
X38464782Y-41028756D01*
X38497738Y-41059774D01*
X38525363Y-41088853D01*
X38573829Y-41138288D01*
X38626171Y-41181906D01*
X38681906Y-41212924D01*
X38741519Y-41224556D01*
X38816640Y-41209047D01*
X38870436Y-41167367D01*
X38902423Y-41107270D01*
X38913086Y-41036511D01*
X38908239Y-40985985D01*
X38893700Y-40935218D01*
X38868982Y-40887359D01*
X38833603Y-40845557D01*
X38750242Y-40904685D01*
X38795800Y-40965751D01*
X38809370Y-41024879D01*
X38789499Y-41081099D01*
X38732795Y-41103393D01*
X38681422Y-41085460D01*
X38629079Y-41039903D01*
X38601333Y-41011309D01*
X38572375Y-40980775D01*
X38541599Y-40950242D01*
X38508401Y-40921648D01*
X38472415Y-40896446D01*
X38433279Y-40876090D01*
X38390630Y-40862641D01*
X38344103Y-40858158D01*
X38323748Y-40857674D01*
X38299515Y-40860097D01*
X38125363Y-40860097D01*
X38125363Y-40590630D01*
X38286914Y-40590630D01*
X38289338Y-40649879D01*
X38296607Y-40699677D01*
X38314055Y-40766074D01*
X38613570Y-40766074D01*
X38613570Y-40646850D01*
X38394507Y-40646850D01*
X38391599Y-40623586D01*
X38390630Y-40600323D01*
X38403352Y-40542407D01*
X38441519Y-40500485D01*
X38481745Y-40481637D01*
X38534572Y-40470328D01*
X38600000Y-40466559D01*
X38644467Y-40468619D01*
X38684814Y-40474798D01*
X38750727Y-40501939D01*
X38793861Y-40549919D01*
X38809370Y-40621648D01*
X38798708Y-40685622D01*
X38774475Y-40737964D01*
X38869467Y-40768982D01*
X38881099Y-40749111D01*
X38895638Y-40715670D01*
X38907754Y-40667690D01*
X38913086Y-40605170D01*
X38908118Y-40552585D01*
X38893215Y-40503393D01*
X38868376Y-40459047D01*
X38833603Y-40421002D01*
X38789136Y-40389742D01*
X38735218Y-40365751D01*
X38672092Y-40350485D01*
X38600000Y-40345396D01*
X38527181Y-40349758D01*
X38463813Y-40362843D01*
X38410016Y-40383926D01*
X38365913Y-40412278D01*
X38331502Y-40447536D01*
X38306785Y-40489338D01*
X38291882Y-40537197D01*
X38286914Y-40590630D01*
X38125363Y-40590630D01*
X38125363Y-39662036D01*
X38288853Y-39662036D01*
X38294669Y-39736187D01*
X38314055Y-39807431D01*
X38416801Y-39790953D01*
X38404200Y-39760420D01*
X38396931Y-39733279D01*
X38393538Y-39706139D01*
X38392569Y-39675606D01*
X38395477Y-39647496D01*
X38407108Y-39626171D01*
X38431341Y-39612601D01*
X38472052Y-39607754D01*
X38656220Y-39607754D01*
X38656220Y-39798708D01*
X38755089Y-39798708D01*
X38755089Y-39607754D01*
X38888853Y-39607754D01*
X38869467Y-39488530D01*
X38755089Y-39488530D01*
X38755089Y-39384814D01*
X38656220Y-39384814D01*
X38656220Y-39488530D01*
X38469144Y-39488530D01*
X38417407Y-39491438D01*
X38376575Y-39500162D01*
X38321809Y-39534087D01*
X38295638Y-39588368D01*
X38288853Y-39662036D01*
X38125363Y-39662036D01*
X38125363Y-39071729D01*
X38125363Y-38951535D01*
X38299515Y-38951535D01*
X38299515Y-39071729D01*
X38637803Y-39071729D01*
X38647011Y-39121163D01*
X38649435Y-39170598D01*
X38648465Y-39196769D01*
X38645073Y-39228756D01*
X38639742Y-39261228D01*
X38633926Y-39288853D01*
X38744426Y-39310178D01*
X38753635Y-39272859D01*
X38759451Y-39231664D01*
X38762843Y-39193376D01*
X38763813Y-39165751D01*
X38761147Y-39103110D01*
X38753150Y-39048950D01*
X38740792Y-38999637D01*
X38725040Y-38951535D01*
X38299515Y-38951535D01*
X38125363Y-38951535D01*
X38125363Y-38623910D01*
X38286914Y-38623910D01*
X38291276Y-38670073D01*
X38304362Y-38711632D01*
X38325444Y-38748102D01*
X38353796Y-38778998D01*
X38388813Y-38803958D01*
X38429887Y-38822617D01*
X38476535Y-38834249D01*
X38528271Y-38838126D01*
X38579281Y-38834249D01*
X38625687Y-38822617D01*
X38666640Y-38803837D01*
X38701292Y-38778514D01*
X38729160Y-38747254D01*
X38749758Y-38710662D01*
X38762480Y-38669346D01*
X38766721Y-38623910D01*
X38762480Y-38579079D01*
X38749758Y-38537641D01*
X38729160Y-38500687D01*
X38701292Y-38469305D01*
X38666640Y-38443861D01*
X38625687Y-38424717D01*
X38579281Y-38412722D01*
X38528271Y-38408724D01*
X38476535Y-38412601D01*
X38429887Y-38424233D01*
X38388813Y-38443013D01*
X38353796Y-38468336D01*
X38325444Y-38499596D01*
X38304362Y-38536187D01*
X38291276Y-38577746D01*
X38286914Y-38623910D01*
X38125363Y-38623910D01*
X38125363Y-38067528D01*
X38125363Y-37948304D01*
X38299515Y-37948304D01*
X38299515Y-38067528D01*
X38502100Y-38067528D01*
X38502100Y-38110178D01*
X38507431Y-38181852D01*
X38523425Y-38241788D01*
X38550081Y-38289984D01*
X38588691Y-38325256D01*
X38640549Y-38346419D01*
X38705654Y-38353473D01*
X38770113Y-38346473D01*
X38821325Y-38325471D01*
X38859289Y-38290468D01*
X38885407Y-38242757D01*
X38901077Y-38183630D01*
X38906300Y-38113086D01*
X38905331Y-38075283D01*
X38902908Y-38031664D01*
X38898546Y-37987561D01*
X38891761Y-37948304D01*
X38299515Y-37948304D01*
X38125363Y-37948304D01*
X38125363Y-37140549D01*
X38600000Y-36824125D01*
X39074637Y-37140549D01*
G37*
G36*
X38582431Y-38535824D02*
G01*
X38625687Y-38553635D01*
X38653675Y-38583078D01*
X38663005Y-38623910D01*
X38653675Y-38665711D01*
X38625687Y-38694184D01*
X38582431Y-38710541D01*
X38527302Y-38715994D01*
X38472052Y-38710057D01*
X38428433Y-38692246D01*
X38400081Y-38662803D01*
X38390630Y-38621971D01*
X38400081Y-38580170D01*
X38428433Y-38551696D01*
X38472052Y-38535339D01*
X38527302Y-38529887D01*
X38582431Y-38535824D01*
G37*
G36*
X38802100Y-38097092D02*
G01*
X38802585Y-38126656D01*
X38797132Y-38169426D01*
X38780775Y-38202746D01*
X38751333Y-38224192D01*
X38706624Y-38231341D01*
X38659491Y-38224071D01*
X38628595Y-38202262D01*
X38611511Y-38166155D01*
X38605816Y-38115994D01*
X38605816Y-38067528D01*
X38799677Y-38067528D01*
X38802100Y-38097092D01*
G37*
%TO.C,kibuzzard-69FA46C2*%
G36*
X39074637Y-48745880D02*
G01*
X39074637Y-49553635D01*
X39074637Y-52846365D01*
X39074637Y-53654120D01*
X38600000Y-53970544D01*
X38125363Y-53654120D01*
X38125363Y-52846365D01*
X38125363Y-52615670D01*
X38286914Y-52615670D01*
X38290428Y-52671648D01*
X38300969Y-52719386D01*
X38317932Y-52759128D01*
X38340711Y-52791115D01*
X38401292Y-52832795D01*
X38477868Y-52846365D01*
X38526575Y-52839943D01*
X38568013Y-52820679D01*
X38601212Y-52789782D01*
X38625202Y-52748465D01*
X38675606Y-52802746D01*
X38744426Y-52823102D01*
X38811309Y-52811470D01*
X38865105Y-52775606D01*
X38900485Y-52714055D01*
X38909935Y-52673465D01*
X38913086Y-52626333D01*
X38908603Y-52574838D01*
X38895153Y-52528918D01*
X38859774Y-52459612D01*
X38772536Y-52502262D01*
X38800162Y-52559935D01*
X38811309Y-52627302D01*
X38792407Y-52682068D01*
X38740549Y-52701939D01*
X38703716Y-52692730D01*
X38680452Y-52668982D01*
X38667851Y-52636026D01*
X38663974Y-52599192D01*
X38663974Y-52554604D01*
X38565105Y-52554604D01*
X38565105Y-52591438D01*
X38560380Y-52644507D01*
X38546204Y-52687399D01*
X38520153Y-52715751D01*
X38479806Y-52725202D01*
X38414863Y-52700485D01*
X38395234Y-52666680D01*
X38388691Y-52614701D01*
X38391357Y-52568780D01*
X38399354Y-52529887D01*
X38419709Y-52472213D01*
X38319871Y-52448950D01*
X38309208Y-52478998D01*
X38298546Y-52521163D01*
X38290307Y-52568659D01*
X38286914Y-52615670D01*
X38125363Y-52615670D01*
X38125363Y-52195961D01*
X38286914Y-52195961D01*
X38289338Y-52255210D01*
X38296607Y-52305008D01*
X38314055Y-52371405D01*
X38613570Y-52371405D01*
X38613570Y-52252181D01*
X38394507Y-52252181D01*
X38391599Y-52228918D01*
X38390630Y-52205654D01*
X38403352Y-52147738D01*
X38441519Y-52105816D01*
X38481745Y-52086968D01*
X38534572Y-52075660D01*
X38600000Y-52071890D01*
X38644467Y-52073950D01*
X38684814Y-52080129D01*
X38750727Y-52107270D01*
X38793861Y-52155250D01*
X38809370Y-52226979D01*
X38798708Y-52290953D01*
X38774475Y-52343296D01*
X38869467Y-52374313D01*
X38881099Y-52354443D01*
X38895638Y-52321002D01*
X38907754Y-52273021D01*
X38913086Y-52210501D01*
X38908118Y-52157916D01*
X38893215Y-52108724D01*
X38868376Y-52064378D01*
X38833603Y-52026333D01*
X38789136Y-51995073D01*
X38735218Y-51971082D01*
X38672092Y-51955816D01*
X38600000Y-51950727D01*
X38527181Y-51955089D01*
X38463813Y-51968174D01*
X38410016Y-51989257D01*
X38365913Y-52017609D01*
X38331502Y-52052868D01*
X38306785Y-52094669D01*
X38291882Y-52142528D01*
X38286914Y-52195961D01*
X38125363Y-52195961D01*
X38125363Y-51267367D01*
X38288853Y-51267367D01*
X38294669Y-51341519D01*
X38314055Y-51412763D01*
X38416801Y-51396284D01*
X38404200Y-51365751D01*
X38396931Y-51338611D01*
X38393538Y-51311470D01*
X38392569Y-51280937D01*
X38395477Y-51252827D01*
X38407108Y-51231502D01*
X38431341Y-51217932D01*
X38472052Y-51213086D01*
X38656220Y-51213086D01*
X38656220Y-51404039D01*
X38755089Y-51404039D01*
X38755089Y-51213086D01*
X38888853Y-51213086D01*
X38869467Y-51093861D01*
X38755089Y-51093861D01*
X38755089Y-50990145D01*
X38656220Y-50990145D01*
X38656220Y-51093861D01*
X38469144Y-51093861D01*
X38417407Y-51096769D01*
X38376575Y-51105493D01*
X38321809Y-51139418D01*
X38295638Y-51193700D01*
X38288853Y-51267367D01*
X38125363Y-51267367D01*
X38125363Y-50677060D01*
X38125363Y-50556866D01*
X38299515Y-50556866D01*
X38299515Y-50677060D01*
X38637803Y-50677060D01*
X38647011Y-50726494D01*
X38649435Y-50775929D01*
X38648465Y-50802100D01*
X38645073Y-50834087D01*
X38639742Y-50866559D01*
X38633926Y-50894184D01*
X38744426Y-50915509D01*
X38753635Y-50878191D01*
X38759451Y-50836995D01*
X38762843Y-50798708D01*
X38763813Y-50771082D01*
X38761147Y-50708441D01*
X38753150Y-50654281D01*
X38740792Y-50604968D01*
X38725040Y-50556866D01*
X38299515Y-50556866D01*
X38125363Y-50556866D01*
X38125363Y-50229241D01*
X38286914Y-50229241D01*
X38291276Y-50275404D01*
X38304362Y-50316963D01*
X38325444Y-50353433D01*
X38353796Y-50384330D01*
X38388813Y-50409289D01*
X38429887Y-50427948D01*
X38476535Y-50439580D01*
X38528271Y-50443457D01*
X38579281Y-50439580D01*
X38625687Y-50427948D01*
X38666640Y-50409168D01*
X38701292Y-50383845D01*
X38729160Y-50352585D01*
X38749758Y-50315994D01*
X38762480Y-50274677D01*
X38766721Y-50229241D01*
X38762480Y-50184410D01*
X38749758Y-50142973D01*
X38729160Y-50106018D01*
X38701292Y-50074637D01*
X38666640Y-50049192D01*
X38625687Y-50030048D01*
X38579281Y-50018053D01*
X38528271Y-50014055D01*
X38476535Y-50017932D01*
X38429887Y-50029564D01*
X38388813Y-50048344D01*
X38353796Y-50073667D01*
X38325444Y-50104927D01*
X38304362Y-50141519D01*
X38291276Y-50183078D01*
X38286914Y-50229241D01*
X38125363Y-50229241D01*
X38125363Y-49672859D01*
X38125363Y-49553635D01*
X38299515Y-49553635D01*
X38299515Y-49672859D01*
X38502100Y-49672859D01*
X38502100Y-49715509D01*
X38507431Y-49787184D01*
X38523425Y-49847119D01*
X38550081Y-49895315D01*
X38588691Y-49930587D01*
X38640549Y-49951750D01*
X38705654Y-49958805D01*
X38770113Y-49951804D01*
X38821325Y-49930802D01*
X38859289Y-49895800D01*
X38885407Y-49848088D01*
X38901077Y-49788961D01*
X38906300Y-49718417D01*
X38905331Y-49680614D01*
X38902908Y-49636995D01*
X38898546Y-49592892D01*
X38891761Y-49553635D01*
X38299515Y-49553635D01*
X38125363Y-49553635D01*
X38125363Y-48745880D01*
X38600000Y-48429456D01*
X39074637Y-48745880D01*
G37*
G36*
X38582431Y-50141155D02*
G01*
X38625687Y-50158966D01*
X38653675Y-50188409D01*
X38663005Y-50229241D01*
X38653675Y-50271042D01*
X38625687Y-50299515D01*
X38582431Y-50315872D01*
X38527302Y-50321325D01*
X38472052Y-50315388D01*
X38428433Y-50297577D01*
X38400081Y-50268134D01*
X38390630Y-50227302D01*
X38400081Y-50185501D01*
X38428433Y-50157027D01*
X38472052Y-50140670D01*
X38527302Y-50135218D01*
X38582431Y-50141155D01*
G37*
G36*
X38802100Y-49702423D02*
G01*
X38802585Y-49731987D01*
X38797132Y-49774758D01*
X38780775Y-49808078D01*
X38751333Y-49829523D01*
X38706624Y-49836672D01*
X38659491Y-49829402D01*
X38628595Y-49807593D01*
X38611511Y-49771486D01*
X38605816Y-49721325D01*
X38605816Y-49672859D01*
X38799677Y-49672859D01*
X38802100Y-49702423D01*
G37*
%TO.C,kibuzzard-69FA46BE*%
G36*
X39074637Y-60134249D02*
G01*
X39074637Y-60942003D01*
X39074637Y-64257997D01*
X39074637Y-65065751D01*
X38600000Y-65382176D01*
X38125363Y-65065751D01*
X38125363Y-64257997D01*
X38125363Y-64193053D01*
X38125363Y-64073829D01*
X38299515Y-64073829D01*
X38299515Y-64193053D01*
X38441034Y-64193053D01*
X38441034Y-64257997D01*
X38538934Y-64257997D01*
X38538934Y-64193053D01*
X38899515Y-64193053D01*
X38899515Y-64086430D01*
X38858199Y-64047658D01*
X38811793Y-64008885D01*
X38762480Y-63971082D01*
X38712439Y-63935218D01*
X38662641Y-63901777D01*
X38614055Y-63871244D01*
X38568619Y-63844830D01*
X38528271Y-63823748D01*
X38441034Y-63823748D01*
X38441034Y-64073829D01*
X38299515Y-64073829D01*
X38125363Y-64073829D01*
X38125363Y-63584330D01*
X38286914Y-63584330D01*
X38289338Y-63643578D01*
X38296607Y-63693376D01*
X38314055Y-63759774D01*
X38613570Y-63759774D01*
X38613570Y-63640549D01*
X38394507Y-63640549D01*
X38391599Y-63617286D01*
X38390630Y-63594023D01*
X38403352Y-63536107D01*
X38441519Y-63494184D01*
X38481745Y-63475337D01*
X38534572Y-63464028D01*
X38600000Y-63460258D01*
X38644467Y-63462318D01*
X38684814Y-63468498D01*
X38750727Y-63495638D01*
X38793861Y-63543619D01*
X38809370Y-63615347D01*
X38798708Y-63679321D01*
X38774475Y-63731664D01*
X38869467Y-63762682D01*
X38881099Y-63742811D01*
X38895638Y-63709370D01*
X38907754Y-63661389D01*
X38913086Y-63598869D01*
X38908118Y-63546284D01*
X38893215Y-63497092D01*
X38868376Y-63452746D01*
X38833603Y-63414701D01*
X38789136Y-63383441D01*
X38735218Y-63359451D01*
X38672092Y-63344184D01*
X38600000Y-63339095D01*
X38527181Y-63343457D01*
X38463813Y-63356543D01*
X38410016Y-63377625D01*
X38365913Y-63405977D01*
X38331502Y-63441236D01*
X38306785Y-63483037D01*
X38291882Y-63530897D01*
X38286914Y-63584330D01*
X38125363Y-63584330D01*
X38125363Y-62655735D01*
X38288853Y-62655735D01*
X38294669Y-62729887D01*
X38314055Y-62801131D01*
X38416801Y-62784653D01*
X38404200Y-62754120D01*
X38396931Y-62726979D01*
X38393538Y-62699838D01*
X38392569Y-62669305D01*
X38395477Y-62641195D01*
X38407108Y-62619871D01*
X38431341Y-62606300D01*
X38472052Y-62601454D01*
X38656220Y-62601454D01*
X38656220Y-62792407D01*
X38755089Y-62792407D01*
X38755089Y-62601454D01*
X38888853Y-62601454D01*
X38869467Y-62482229D01*
X38755089Y-62482229D01*
X38755089Y-62378514D01*
X38656220Y-62378514D01*
X38656220Y-62482229D01*
X38469144Y-62482229D01*
X38417407Y-62485137D01*
X38376575Y-62493861D01*
X38321809Y-62527787D01*
X38295638Y-62582068D01*
X38288853Y-62655735D01*
X38125363Y-62655735D01*
X38125363Y-62065428D01*
X38125363Y-61945234D01*
X38299515Y-61945234D01*
X38299515Y-62065428D01*
X38637803Y-62065428D01*
X38647011Y-62114863D01*
X38649435Y-62164297D01*
X38648465Y-62190468D01*
X38645073Y-62222456D01*
X38639742Y-62254927D01*
X38633926Y-62282553D01*
X38744426Y-62303877D01*
X38753635Y-62266559D01*
X38759451Y-62225363D01*
X38762843Y-62187076D01*
X38763813Y-62159451D01*
X38761147Y-62096809D01*
X38753150Y-62042649D01*
X38740792Y-61993336D01*
X38725040Y-61945234D01*
X38299515Y-61945234D01*
X38125363Y-61945234D01*
X38125363Y-61617609D01*
X38286914Y-61617609D01*
X38291276Y-61663772D01*
X38304362Y-61705331D01*
X38325444Y-61741801D01*
X38353796Y-61772698D01*
X38388813Y-61797658D01*
X38429887Y-61816317D01*
X38476535Y-61827948D01*
X38528271Y-61831826D01*
X38579281Y-61827948D01*
X38625687Y-61816317D01*
X38666640Y-61797536D01*
X38701292Y-61772213D01*
X38729160Y-61740953D01*
X38749758Y-61704362D01*
X38762480Y-61663045D01*
X38766721Y-61617609D01*
X38762480Y-61572779D01*
X38749758Y-61531341D01*
X38729160Y-61494386D01*
X38701292Y-61463005D01*
X38666640Y-61437561D01*
X38625687Y-61418417D01*
X38579281Y-61406422D01*
X38528271Y-61402423D01*
X38476535Y-61406300D01*
X38429887Y-61417932D01*
X38388813Y-61436712D01*
X38353796Y-61462036D01*
X38325444Y-61493296D01*
X38304362Y-61529887D01*
X38291276Y-61571446D01*
X38286914Y-61617609D01*
X38125363Y-61617609D01*
X38125363Y-61061228D01*
X38125363Y-60942003D01*
X38299515Y-60942003D01*
X38299515Y-61061228D01*
X38502100Y-61061228D01*
X38502100Y-61103877D01*
X38507431Y-61175552D01*
X38523425Y-61235487D01*
X38550081Y-61283683D01*
X38588691Y-61318955D01*
X38640549Y-61340118D01*
X38705654Y-61347173D01*
X38770113Y-61340172D01*
X38821325Y-61319171D01*
X38859289Y-61284168D01*
X38885407Y-61236457D01*
X38901077Y-61177329D01*
X38906300Y-61106785D01*
X38905331Y-61068982D01*
X38902908Y-61025363D01*
X38898546Y-60981260D01*
X38891761Y-60942003D01*
X38299515Y-60942003D01*
X38125363Y-60942003D01*
X38125363Y-60134249D01*
X38600000Y-59817824D01*
X39074637Y-60134249D01*
G37*
G36*
X38582431Y-61529523D02*
G01*
X38625687Y-61547334D01*
X38653675Y-61576777D01*
X38663005Y-61617609D01*
X38653675Y-61659410D01*
X38625687Y-61687884D01*
X38582431Y-61704241D01*
X38527302Y-61709693D01*
X38472052Y-61703756D01*
X38428433Y-61685945D01*
X38400081Y-61656502D01*
X38390630Y-61615670D01*
X38400081Y-61573869D01*
X38428433Y-61545396D01*
X38472052Y-61529039D01*
X38527302Y-61523586D01*
X38582431Y-61529523D01*
G37*
G36*
X38802100Y-61090792D02*
G01*
X38802585Y-61120355D01*
X38797132Y-61163126D01*
X38780775Y-61196446D01*
X38751333Y-61217892D01*
X38706624Y-61225040D01*
X38659491Y-61217771D01*
X38628595Y-61195961D01*
X38611511Y-61159855D01*
X38605816Y-61109693D01*
X38605816Y-61061228D01*
X38799677Y-61061228D01*
X38802100Y-61090792D01*
G37*
G36*
X38594184Y-63967205D02*
G01*
X38649919Y-64001616D01*
X38702746Y-64037964D01*
X38750242Y-64073829D01*
X38538934Y-64073829D01*
X38538934Y-63938126D01*
X38594184Y-63967205D01*
G37*
%TO.C,kibuzzard-69FA46AE*%
G36*
X39074637Y-25542003D02*
G01*
X39074637Y-26349758D01*
X39074637Y-29650242D01*
X39074637Y-30457997D01*
X38600000Y-30774421D01*
X38125363Y-30457997D01*
X38125363Y-29650242D01*
X38125363Y-29285784D01*
X38299515Y-29285784D01*
X38299515Y-29650242D01*
X38398384Y-29650242D01*
X38398384Y-29531018D01*
X38899515Y-29531018D01*
X38899515Y-29449596D01*
X38861712Y-29407916D01*
X38826817Y-29356543D01*
X38796769Y-29302262D01*
X38774475Y-29251858D01*
X38675606Y-29290630D01*
X38699354Y-29349758D01*
X38733764Y-29411793D01*
X38398384Y-29411793D01*
X38398384Y-29285784D01*
X38299515Y-29285784D01*
X38125363Y-29285784D01*
X38125363Y-28992084D01*
X38286914Y-28992084D01*
X38289338Y-29051333D01*
X38296607Y-29101131D01*
X38314055Y-29167528D01*
X38613570Y-29167528D01*
X38613570Y-29048304D01*
X38394507Y-29048304D01*
X38391599Y-29025040D01*
X38390630Y-29001777D01*
X38403352Y-28943861D01*
X38441519Y-28901939D01*
X38481745Y-28883091D01*
X38534572Y-28871782D01*
X38600000Y-28868013D01*
X38644467Y-28870073D01*
X38684814Y-28876252D01*
X38750727Y-28903393D01*
X38793861Y-28951373D01*
X38809370Y-29023102D01*
X38798708Y-29087076D01*
X38774475Y-29139418D01*
X38869467Y-29170436D01*
X38881099Y-29150565D01*
X38895638Y-29117124D01*
X38907754Y-29069144D01*
X38913086Y-29006624D01*
X38908118Y-28954039D01*
X38893215Y-28904847D01*
X38868376Y-28860501D01*
X38833603Y-28822456D01*
X38789136Y-28791195D01*
X38735218Y-28767205D01*
X38672092Y-28751939D01*
X38600000Y-28746850D01*
X38527181Y-28751212D01*
X38463813Y-28764297D01*
X38410016Y-28785380D01*
X38365913Y-28813732D01*
X38331502Y-28848990D01*
X38306785Y-28890792D01*
X38291882Y-28938651D01*
X38286914Y-28992084D01*
X38125363Y-28992084D01*
X38125363Y-28063489D01*
X38288853Y-28063489D01*
X38294669Y-28137641D01*
X38314055Y-28208885D01*
X38416801Y-28192407D01*
X38404200Y-28161874D01*
X38396931Y-28134733D01*
X38393538Y-28107593D01*
X38392569Y-28077060D01*
X38395477Y-28048950D01*
X38407108Y-28027625D01*
X38431341Y-28014055D01*
X38472052Y-28009208D01*
X38656220Y-28009208D01*
X38656220Y-28200162D01*
X38755089Y-28200162D01*
X38755089Y-28009208D01*
X38888853Y-28009208D01*
X38869467Y-27889984D01*
X38755089Y-27889984D01*
X38755089Y-27786268D01*
X38656220Y-27786268D01*
X38656220Y-27889984D01*
X38469144Y-27889984D01*
X38417407Y-27892892D01*
X38376575Y-27901616D01*
X38321809Y-27935541D01*
X38295638Y-27989822D01*
X38288853Y-28063489D01*
X38125363Y-28063489D01*
X38125363Y-27473183D01*
X38125363Y-27352989D01*
X38299515Y-27352989D01*
X38299515Y-27473183D01*
X38637803Y-27473183D01*
X38647011Y-27522617D01*
X38649435Y-27572052D01*
X38648465Y-27598223D01*
X38645073Y-27630210D01*
X38639742Y-27662682D01*
X38633926Y-27690307D01*
X38744426Y-27711632D01*
X38753635Y-27674313D01*
X38759451Y-27633118D01*
X38762843Y-27594830D01*
X38763813Y-27567205D01*
X38761147Y-27504564D01*
X38753150Y-27450404D01*
X38740792Y-27401090D01*
X38725040Y-27352989D01*
X38299515Y-27352989D01*
X38125363Y-27352989D01*
X38125363Y-27025363D01*
X38286914Y-27025363D01*
X38291276Y-27071527D01*
X38304362Y-27113086D01*
X38325444Y-27149556D01*
X38353796Y-27180452D01*
X38388813Y-27205412D01*
X38429887Y-27224071D01*
X38476535Y-27235703D01*
X38528271Y-27239580D01*
X38579281Y-27235703D01*
X38625687Y-27224071D01*
X38666640Y-27205291D01*
X38701292Y-27179968D01*
X38729160Y-27148708D01*
X38749758Y-27112116D01*
X38762480Y-27070800D01*
X38766721Y-27025363D01*
X38762480Y-26980533D01*
X38749758Y-26939095D01*
X38729160Y-26902141D01*
X38701292Y-26870759D01*
X38666640Y-26845315D01*
X38625687Y-26826171D01*
X38579281Y-26814176D01*
X38528271Y-26810178D01*
X38476535Y-26814055D01*
X38429887Y-26825687D01*
X38388813Y-26844467D01*
X38353796Y-26869790D01*
X38325444Y-26901050D01*
X38304362Y-26937641D01*
X38291276Y-26979200D01*
X38286914Y-27025363D01*
X38125363Y-27025363D01*
X38125363Y-26468982D01*
X38125363Y-26349758D01*
X38299515Y-26349758D01*
X38299515Y-26468982D01*
X38502100Y-26468982D01*
X38502100Y-26511632D01*
X38507431Y-26583306D01*
X38523425Y-26643242D01*
X38550081Y-26691438D01*
X38588691Y-26726710D01*
X38640549Y-26747873D01*
X38705654Y-26754927D01*
X38770113Y-26747927D01*
X38821325Y-26726925D01*
X38859289Y-26691922D01*
X38885407Y-26644211D01*
X38901077Y-26585083D01*
X38906300Y-26514540D01*
X38905331Y-26476737D01*
X38902908Y-26433118D01*
X38898546Y-26389015D01*
X38891761Y-26349758D01*
X38299515Y-26349758D01*
X38125363Y-26349758D01*
X38125363Y-25542003D01*
X38600000Y-25225579D01*
X39074637Y-25542003D01*
G37*
G36*
X38582431Y-26937278D02*
G01*
X38625687Y-26955089D01*
X38653675Y-26984532D01*
X38663005Y-27025363D01*
X38653675Y-27067165D01*
X38625687Y-27095638D01*
X38582431Y-27111995D01*
X38527302Y-27117447D01*
X38472052Y-27111511D01*
X38428433Y-27093700D01*
X38400081Y-27064257D01*
X38390630Y-27023425D01*
X38400081Y-26981624D01*
X38428433Y-26953150D01*
X38472052Y-26936793D01*
X38527302Y-26931341D01*
X38582431Y-26937278D01*
G37*
G36*
X38802100Y-26498546D02*
G01*
X38802585Y-26528110D01*
X38797132Y-26570880D01*
X38780775Y-26604200D01*
X38751333Y-26625646D01*
X38706624Y-26632795D01*
X38659491Y-26625525D01*
X38628595Y-26603716D01*
X38611511Y-26567609D01*
X38605816Y-26517447D01*
X38605816Y-26468982D01*
X38799677Y-26468982D01*
X38802100Y-26498546D01*
G37*
%TO.C,kibuzzard-69FA4669*%
G36*
X72994023Y-15928756D02*
G01*
X74092246Y-15928756D01*
X74682553Y-15928756D01*
X75130372Y-15928756D01*
X75686753Y-15928756D01*
X75805977Y-15928756D01*
X76613732Y-15928756D01*
X76659922Y-15931025D01*
X76705667Y-15937811D01*
X76750527Y-15949048D01*
X76794069Y-15964627D01*
X76835875Y-15984400D01*
X76875541Y-16008175D01*
X76912686Y-16035724D01*
X76946952Y-16066780D01*
X76978008Y-16101046D01*
X77005557Y-16138191D01*
X77029332Y-16177857D01*
X77049104Y-16219663D01*
X77064684Y-16263205D01*
X77075921Y-16308065D01*
X77082707Y-16353810D01*
X77084976Y-16400000D01*
X77082707Y-16446190D01*
X77075921Y-16491935D01*
X77064684Y-16536795D01*
X77049104Y-16580337D01*
X77029332Y-16622143D01*
X77005557Y-16661809D01*
X76978008Y-16698954D01*
X76946952Y-16733220D01*
X76912686Y-16764276D01*
X76875541Y-16791825D01*
X76835875Y-16815600D01*
X76794069Y-16835373D01*
X76750527Y-16850952D01*
X76705667Y-16862189D01*
X76659922Y-16868975D01*
X76613732Y-16871244D01*
X75805977Y-16871244D01*
X72994023Y-16871244D01*
X72186268Y-16871244D01*
X72140078Y-16868975D01*
X72094333Y-16862189D01*
X72049473Y-16850952D01*
X72005931Y-16835373D01*
X71964125Y-16815600D01*
X71924459Y-16791825D01*
X71887314Y-16764276D01*
X71853048Y-16733220D01*
X71825576Y-16702908D01*
X72994023Y-16702908D01*
X73113247Y-16702908D01*
X73113247Y-16466397D01*
X73272213Y-16466397D01*
X73272213Y-16702908D01*
X73391438Y-16702908D01*
X73391438Y-16117447D01*
X73946850Y-16117447D01*
X73963328Y-16220194D01*
X73993861Y-16207593D01*
X74021002Y-16200323D01*
X74048142Y-16196931D01*
X74078675Y-16195961D01*
X74106785Y-16198869D01*
X74128110Y-16210501D01*
X74141680Y-16234733D01*
X74146527Y-16275444D01*
X74146527Y-16459612D01*
X73955574Y-16459612D01*
X73955574Y-16558481D01*
X74146527Y-16558481D01*
X74146527Y-16692246D01*
X74265751Y-16672859D01*
X74265751Y-16558481D01*
X74369467Y-16558481D01*
X74369467Y-16547819D01*
X74444103Y-16547819D01*
X74481422Y-16557027D01*
X74522617Y-16562843D01*
X74560905Y-16566236D01*
X74588530Y-16567205D01*
X74651171Y-16564540D01*
X74705331Y-16556543D01*
X74754645Y-16544184D01*
X74802746Y-16528433D01*
X74802746Y-16331664D01*
X74916155Y-16331664D01*
X74920032Y-16382674D01*
X74931664Y-16429079D01*
X74950444Y-16470032D01*
X74975767Y-16504685D01*
X75007027Y-16532553D01*
X75043619Y-16553150D01*
X75084935Y-16565872D01*
X75130372Y-16570113D01*
X75175202Y-16565872D01*
X75216640Y-16553150D01*
X75253595Y-16532553D01*
X75280064Y-16509047D01*
X75400808Y-16509047D01*
X75407808Y-16573506D01*
X75428810Y-16624717D01*
X75463813Y-16662682D01*
X75511524Y-16688799D01*
X75570652Y-16704470D01*
X75641195Y-16709693D01*
X75678998Y-16708724D01*
X75722617Y-16706300D01*
X75766721Y-16701939D01*
X75805977Y-16695153D01*
X75805977Y-16102908D01*
X75686753Y-16102908D01*
X75686753Y-16305493D01*
X75644103Y-16305493D01*
X75572429Y-16310824D01*
X75512493Y-16326817D01*
X75464297Y-16353473D01*
X75429025Y-16392084D01*
X75407862Y-16443942D01*
X75400808Y-16509047D01*
X75280064Y-16509047D01*
X75284976Y-16504685D01*
X75310420Y-16470032D01*
X75329564Y-16429079D01*
X75341559Y-16382674D01*
X75345557Y-16331664D01*
X75341680Y-16279927D01*
X75330048Y-16233279D01*
X75311268Y-16192205D01*
X75285945Y-16157189D01*
X75254685Y-16128837D01*
X75218094Y-16107754D01*
X75176535Y-16094669D01*
X75130372Y-16090307D01*
X75084208Y-16094669D01*
X75042649Y-16107754D01*
X75006179Y-16128837D01*
X74975283Y-16157189D01*
X74950323Y-16192205D01*
X74931664Y-16233279D01*
X74920032Y-16279927D01*
X74916155Y-16331664D01*
X74802746Y-16331664D01*
X74802746Y-16102908D01*
X74682553Y-16102908D01*
X74682553Y-16441195D01*
X74633118Y-16450404D01*
X74583683Y-16452827D01*
X74557512Y-16451858D01*
X74525525Y-16448465D01*
X74493053Y-16443134D01*
X74465428Y-16437318D01*
X74444103Y-16547819D01*
X74369467Y-16547819D01*
X74369467Y-16459612D01*
X74265751Y-16459612D01*
X74265751Y-16272536D01*
X74262843Y-16220800D01*
X74254120Y-16179968D01*
X74220194Y-16125202D01*
X74165913Y-16099031D01*
X74092246Y-16092246D01*
X74018094Y-16098061D01*
X73946850Y-16117447D01*
X73391438Y-16117447D01*
X73391438Y-16102908D01*
X73272213Y-16102908D01*
X73272213Y-16367528D01*
X73113247Y-16367528D01*
X73113247Y-16102908D01*
X72994023Y-16102908D01*
X72994023Y-16702908D01*
X71825576Y-16702908D01*
X71821992Y-16698954D01*
X71794443Y-16661809D01*
X71770668Y-16622143D01*
X71750896Y-16580337D01*
X71735316Y-16536795D01*
X71724079Y-16491935D01*
X71717293Y-16446190D01*
X71715024Y-16400000D01*
X71717293Y-16353810D01*
X71724079Y-16308065D01*
X71735316Y-16263205D01*
X71750896Y-16219663D01*
X71770668Y-16177857D01*
X71794443Y-16138191D01*
X71821992Y-16101046D01*
X71853048Y-16066780D01*
X71887314Y-16035724D01*
X71924459Y-16008175D01*
X71964125Y-15984400D01*
X72005931Y-15964627D01*
X72049473Y-15949048D01*
X72094333Y-15937811D01*
X72140078Y-15931025D01*
X72186268Y-15928756D01*
X72994023Y-15928756D01*
G37*
G36*
X75174111Y-16203473D02*
G01*
X75202585Y-16231826D01*
X75218942Y-16275444D01*
X75224394Y-16330695D01*
X75218457Y-16385824D01*
X75200646Y-16429079D01*
X75171204Y-16457068D01*
X75130372Y-16466397D01*
X75088570Y-16457068D01*
X75060097Y-16429079D01*
X75043740Y-16385824D01*
X75038288Y-16330695D01*
X75044225Y-16275444D01*
X75062036Y-16231826D01*
X75091478Y-16203473D01*
X75132310Y-16194023D01*
X75174111Y-16203473D01*
G37*
G36*
X75686753Y-16603069D02*
G01*
X75657189Y-16605493D01*
X75627625Y-16605977D01*
X75584855Y-16600525D01*
X75551535Y-16584168D01*
X75530089Y-16554725D01*
X75522940Y-16510016D01*
X75530210Y-16462884D01*
X75552019Y-16431987D01*
X75588126Y-16414903D01*
X75638288Y-16409208D01*
X75686753Y-16409208D01*
X75686753Y-16603069D01*
G37*
%TO.C,kibuzzard-69FA4664*%
G36*
X81568013Y-15925363D02*
G01*
X82496607Y-15925363D01*
X83086914Y-15925363D01*
X83534733Y-15925363D01*
X84091115Y-15925363D01*
X84210339Y-15925363D01*
X85018094Y-15925363D01*
X85064616Y-15927649D01*
X85110691Y-15934483D01*
X85155873Y-15945801D01*
X85199729Y-15961493D01*
X85241836Y-15981408D01*
X85281788Y-16005354D01*
X85319200Y-16033101D01*
X85353712Y-16064381D01*
X85384993Y-16098894D01*
X85412740Y-16136306D01*
X85436686Y-16176258D01*
X85456601Y-16218364D01*
X85472292Y-16262220D01*
X85483610Y-16307403D01*
X85490445Y-16353477D01*
X85492730Y-16400000D01*
X85490445Y-16446523D01*
X85483610Y-16492597D01*
X85472292Y-16537780D01*
X85456601Y-16581636D01*
X85436686Y-16623742D01*
X85412740Y-16663694D01*
X85384993Y-16701106D01*
X85353712Y-16735619D01*
X85319200Y-16766899D01*
X85281788Y-16794646D01*
X85241836Y-16818592D01*
X85199729Y-16838507D01*
X85155873Y-16854199D01*
X85110691Y-16865517D01*
X85064616Y-16872351D01*
X85018094Y-16874637D01*
X84210339Y-16874637D01*
X81389661Y-16874637D01*
X80581906Y-16874637D01*
X80535384Y-16872351D01*
X80489309Y-16865516D01*
X80444127Y-16854199D01*
X80400271Y-16838507D01*
X80358164Y-16818592D01*
X80318212Y-16794646D01*
X80280800Y-16766899D01*
X80246288Y-16735619D01*
X80215007Y-16701106D01*
X80191542Y-16669467D01*
X81389661Y-16669467D01*
X81409531Y-16681099D01*
X81442973Y-16695638D01*
X81490953Y-16707754D01*
X81553473Y-16713086D01*
X81606058Y-16708118D01*
X81655250Y-16693215D01*
X81699596Y-16668376D01*
X81737641Y-16633603D01*
X81768901Y-16589136D01*
X81792892Y-16535218D01*
X81808158Y-16472092D01*
X81813247Y-16400000D01*
X81808885Y-16327181D01*
X81795800Y-16263813D01*
X81774717Y-16210016D01*
X81746365Y-16165913D01*
X81711107Y-16131502D01*
X81681600Y-16114055D01*
X82351212Y-16114055D01*
X82367690Y-16216801D01*
X82398223Y-16204200D01*
X82425363Y-16196931D01*
X82452504Y-16193538D01*
X82483037Y-16192569D01*
X82511147Y-16195477D01*
X82532472Y-16207108D01*
X82546042Y-16231341D01*
X82550889Y-16272052D01*
X82550889Y-16456220D01*
X82359935Y-16456220D01*
X82359935Y-16555089D01*
X82550889Y-16555089D01*
X82550889Y-16688853D01*
X82670113Y-16669467D01*
X82670113Y-16555089D01*
X82773829Y-16555089D01*
X82773829Y-16544426D01*
X82848465Y-16544426D01*
X82885783Y-16553635D01*
X82926979Y-16559451D01*
X82965267Y-16562843D01*
X82992892Y-16563813D01*
X83055533Y-16561147D01*
X83109693Y-16553150D01*
X83159006Y-16540792D01*
X83207108Y-16525040D01*
X83207108Y-16328271D01*
X83320517Y-16328271D01*
X83324394Y-16379281D01*
X83336026Y-16425687D01*
X83354806Y-16466640D01*
X83380129Y-16501292D01*
X83411389Y-16529160D01*
X83447981Y-16549758D01*
X83489297Y-16562480D01*
X83534733Y-16566721D01*
X83579564Y-16562480D01*
X83621002Y-16549758D01*
X83657956Y-16529160D01*
X83684426Y-16505654D01*
X83805170Y-16505654D01*
X83812170Y-16570113D01*
X83833172Y-16621325D01*
X83868174Y-16659289D01*
X83915886Y-16685407D01*
X83975013Y-16701077D01*
X84045557Y-16706300D01*
X84083360Y-16705331D01*
X84126979Y-16702908D01*
X84171082Y-16698546D01*
X84210339Y-16691761D01*
X84210339Y-16099515D01*
X84091115Y-16099515D01*
X84091115Y-16302100D01*
X84048465Y-16302100D01*
X83976790Y-16307431D01*
X83916855Y-16323425D01*
X83868659Y-16350081D01*
X83833387Y-16388691D01*
X83812224Y-16440549D01*
X83805170Y-16505654D01*
X83684426Y-16505654D01*
X83689338Y-16501292D01*
X83714782Y-16466640D01*
X83733926Y-16425687D01*
X83745921Y-16379281D01*
X83749919Y-16328271D01*
X83746042Y-16276535D01*
X83734410Y-16229887D01*
X83715630Y-16188813D01*
X83690307Y-16153796D01*
X83659047Y-16125444D01*
X83622456Y-16104362D01*
X83580897Y-16091276D01*
X83534733Y-16086914D01*
X83488570Y-16091276D01*
X83447011Y-16104362D01*
X83410541Y-16125444D01*
X83379645Y-16153796D01*
X83354685Y-16188813D01*
X83336026Y-16229887D01*
X83324394Y-16276535D01*
X83320517Y-16328271D01*
X83207108Y-16328271D01*
X83207108Y-16099515D01*
X83086914Y-16099515D01*
X83086914Y-16437803D01*
X83037480Y-16447011D01*
X82988045Y-16449435D01*
X82961874Y-16448465D01*
X82929887Y-16445073D01*
X82897415Y-16439742D01*
X82869790Y-16433926D01*
X82848465Y-16544426D01*
X82773829Y-16544426D01*
X82773829Y-16456220D01*
X82670113Y-16456220D01*
X82670113Y-16269144D01*
X82667205Y-16217407D01*
X82658481Y-16176575D01*
X82624556Y-16121809D01*
X82570275Y-16095638D01*
X82496607Y-16088853D01*
X82422456Y-16094669D01*
X82351212Y-16114055D01*
X81681600Y-16114055D01*
X81669305Y-16106785D01*
X81621446Y-16091882D01*
X81568013Y-16086914D01*
X81508764Y-16089338D01*
X81458966Y-16096607D01*
X81392569Y-16114055D01*
X81392569Y-16413570D01*
X81511793Y-16413570D01*
X81511793Y-16194507D01*
X81535057Y-16191599D01*
X81558320Y-16190630D01*
X81616236Y-16203352D01*
X81658158Y-16241519D01*
X81677006Y-16281745D01*
X81688314Y-16334572D01*
X81692084Y-16400000D01*
X81690024Y-16444467D01*
X81683845Y-16484814D01*
X81656704Y-16550727D01*
X81608724Y-16593861D01*
X81536995Y-16609370D01*
X81473021Y-16598708D01*
X81420678Y-16574475D01*
X81389661Y-16669467D01*
X80191542Y-16669467D01*
X80187260Y-16663694D01*
X80163314Y-16623742D01*
X80143399Y-16581636D01*
X80127708Y-16537780D01*
X80116390Y-16492597D01*
X80109555Y-16446523D01*
X80107270Y-16400000D01*
X80109555Y-16353477D01*
X80116390Y-16307403D01*
X80127708Y-16262220D01*
X80143399Y-16218364D01*
X80163314Y-16176258D01*
X80187260Y-16136306D01*
X80215007Y-16098894D01*
X80246288Y-16064381D01*
X80280800Y-16033101D01*
X80318212Y-16005354D01*
X80358164Y-15981408D01*
X80400271Y-15961493D01*
X80444127Y-15945801D01*
X80489309Y-15934484D01*
X80535384Y-15927649D01*
X80581906Y-15925363D01*
X81389661Y-15925363D01*
X81568013Y-15925363D01*
G37*
G36*
X83578473Y-16200081D02*
G01*
X83606947Y-16228433D01*
X83623304Y-16272052D01*
X83628756Y-16327302D01*
X83622819Y-16382431D01*
X83605008Y-16425687D01*
X83575565Y-16453675D01*
X83534733Y-16463005D01*
X83492932Y-16453675D01*
X83464459Y-16425687D01*
X83448102Y-16382431D01*
X83442649Y-16327302D01*
X83448586Y-16272052D01*
X83466397Y-16228433D01*
X83495840Y-16200081D01*
X83536672Y-16190630D01*
X83578473Y-16200081D01*
G37*
G36*
X84091115Y-16599677D02*
G01*
X84061551Y-16602100D01*
X84031987Y-16602585D01*
X83989216Y-16597132D01*
X83955897Y-16580775D01*
X83934451Y-16551333D01*
X83927302Y-16506624D01*
X83934572Y-16459491D01*
X83956381Y-16428595D01*
X83992488Y-16411511D01*
X84042649Y-16405816D01*
X84091115Y-16405816D01*
X84091115Y-16599677D01*
G37*
%TO.C,kibuzzard-69FA4660*%
G36*
X90367690Y-15928756D02*
G01*
X91085945Y-15928756D01*
X91676252Y-15928756D01*
X92124071Y-15928756D01*
X92680452Y-15928756D01*
X92799677Y-15928756D01*
X93607431Y-15928756D01*
X93653621Y-15931025D01*
X93699366Y-15937811D01*
X93744226Y-15949048D01*
X93787769Y-15964627D01*
X93829574Y-15984400D01*
X93869240Y-16008175D01*
X93906385Y-16035724D01*
X93940651Y-16066780D01*
X93971708Y-16101046D01*
X93999256Y-16138191D01*
X94023031Y-16177857D01*
X94042804Y-16219663D01*
X94058384Y-16263205D01*
X94069620Y-16308065D01*
X94076406Y-16353810D01*
X94078675Y-16400000D01*
X94076406Y-16446190D01*
X94069620Y-16491935D01*
X94058384Y-16536795D01*
X94042804Y-16580337D01*
X94023031Y-16622143D01*
X93999256Y-16661809D01*
X93971708Y-16698954D01*
X93940651Y-16733220D01*
X93906385Y-16764276D01*
X93869240Y-16791825D01*
X93829574Y-16815600D01*
X93787769Y-16835373D01*
X93744226Y-16850952D01*
X93699366Y-16862189D01*
X93653621Y-16868975D01*
X93607431Y-16871244D01*
X92799677Y-16871244D01*
X90000323Y-16871244D01*
X89192569Y-16871244D01*
X89146379Y-16868975D01*
X89100634Y-16862189D01*
X89055774Y-16850952D01*
X89012231Y-16835373D01*
X88970426Y-16815600D01*
X88930760Y-16791825D01*
X88893615Y-16764276D01*
X88859349Y-16733220D01*
X88828292Y-16698954D01*
X88800744Y-16661809D01*
X88776969Y-16622143D01*
X88768406Y-16604039D01*
X90000323Y-16604039D01*
X90000323Y-16702908D01*
X90367690Y-16702908D01*
X90367690Y-16117447D01*
X90940549Y-16117447D01*
X90957027Y-16220194D01*
X90987561Y-16207593D01*
X91014701Y-16200323D01*
X91041842Y-16196931D01*
X91072375Y-16195961D01*
X91100485Y-16198869D01*
X91121809Y-16210501D01*
X91135380Y-16234733D01*
X91140226Y-16275444D01*
X91140226Y-16459612D01*
X90949273Y-16459612D01*
X90949273Y-16558481D01*
X91140226Y-16558481D01*
X91140226Y-16692246D01*
X91259451Y-16672859D01*
X91259451Y-16558481D01*
X91363166Y-16558481D01*
X91363166Y-16547819D01*
X91437803Y-16547819D01*
X91475121Y-16557027D01*
X91516317Y-16562843D01*
X91554604Y-16566236D01*
X91582229Y-16567205D01*
X91644871Y-16564540D01*
X91699031Y-16556543D01*
X91748344Y-16544184D01*
X91796446Y-16528433D01*
X91796446Y-16331664D01*
X91909855Y-16331664D01*
X91913732Y-16382674D01*
X91925363Y-16429079D01*
X91944144Y-16470032D01*
X91969467Y-16504685D01*
X92000727Y-16532553D01*
X92037318Y-16553150D01*
X92078635Y-16565872D01*
X92124071Y-16570113D01*
X92168901Y-16565872D01*
X92210339Y-16553150D01*
X92247294Y-16532553D01*
X92273763Y-16509047D01*
X92394507Y-16509047D01*
X92401508Y-16573506D01*
X92422509Y-16624717D01*
X92457512Y-16662682D01*
X92505223Y-16688799D01*
X92564351Y-16704470D01*
X92634895Y-16709693D01*
X92672698Y-16708724D01*
X92716317Y-16706300D01*
X92760420Y-16701939D01*
X92799677Y-16695153D01*
X92799677Y-16102908D01*
X92680452Y-16102908D01*
X92680452Y-16305493D01*
X92637803Y-16305493D01*
X92566128Y-16310824D01*
X92506193Y-16326817D01*
X92457997Y-16353473D01*
X92422725Y-16392084D01*
X92401562Y-16443942D01*
X92394507Y-16509047D01*
X92273763Y-16509047D01*
X92278675Y-16504685D01*
X92304120Y-16470032D01*
X92323263Y-16429079D01*
X92335258Y-16382674D01*
X92339257Y-16331664D01*
X92335380Y-16279927D01*
X92323748Y-16233279D01*
X92304968Y-16192205D01*
X92279645Y-16157189D01*
X92248384Y-16128837D01*
X92211793Y-16107754D01*
X92170234Y-16094669D01*
X92124071Y-16090307D01*
X92077908Y-16094669D01*
X92036349Y-16107754D01*
X91999879Y-16128837D01*
X91968982Y-16157189D01*
X91944023Y-16192205D01*
X91925363Y-16233279D01*
X91913732Y-16279927D01*
X91909855Y-16331664D01*
X91796446Y-16331664D01*
X91796446Y-16102908D01*
X91676252Y-16102908D01*
X91676252Y-16441195D01*
X91626817Y-16450404D01*
X91577383Y-16452827D01*
X91551212Y-16451858D01*
X91519225Y-16448465D01*
X91486753Y-16443134D01*
X91459128Y-16437318D01*
X91437803Y-16547819D01*
X91363166Y-16547819D01*
X91363166Y-16459612D01*
X91259451Y-16459612D01*
X91259451Y-16272536D01*
X91256543Y-16220800D01*
X91247819Y-16179968D01*
X91213893Y-16125202D01*
X91159612Y-16099031D01*
X91085945Y-16092246D01*
X91011793Y-16098061D01*
X90940549Y-16117447D01*
X90367690Y-16117447D01*
X90367690Y-16102908D01*
X90248465Y-16102908D01*
X90248465Y-16359774D01*
X90031341Y-16359774D01*
X90031341Y-16458643D01*
X90248465Y-16458643D01*
X90248465Y-16604039D01*
X90000323Y-16604039D01*
X88768406Y-16604039D01*
X88757196Y-16580337D01*
X88741616Y-16536795D01*
X88730380Y-16491935D01*
X88723594Y-16446190D01*
X88721325Y-16400000D01*
X88723594Y-16353810D01*
X88730380Y-16308065D01*
X88741616Y-16263205D01*
X88757196Y-16219663D01*
X88776969Y-16177857D01*
X88800744Y-16138191D01*
X88828292Y-16101046D01*
X88859349Y-16066780D01*
X88893615Y-16035724D01*
X88930760Y-16008175D01*
X88970426Y-15984400D01*
X89012231Y-15964627D01*
X89055774Y-15949048D01*
X89100634Y-15937811D01*
X89146379Y-15931025D01*
X89192569Y-15928756D01*
X90000323Y-15928756D01*
X90367690Y-15928756D01*
G37*
G36*
X92167811Y-16203473D02*
G01*
X92196284Y-16231826D01*
X92212641Y-16275444D01*
X92218094Y-16330695D01*
X92212157Y-16385824D01*
X92194346Y-16429079D01*
X92164903Y-16457068D01*
X92124071Y-16466397D01*
X92082270Y-16457068D01*
X92053796Y-16429079D01*
X92037439Y-16385824D01*
X92031987Y-16330695D01*
X92037924Y-16275444D01*
X92055735Y-16231826D01*
X92085178Y-16203473D01*
X92126010Y-16194023D01*
X92167811Y-16203473D01*
G37*
G36*
X92680452Y-16603069D02*
G01*
X92650889Y-16605493D01*
X92621325Y-16605977D01*
X92578554Y-16600525D01*
X92545234Y-16584168D01*
X92523788Y-16554725D01*
X92516640Y-16510016D01*
X92523910Y-16462884D01*
X92545719Y-16431987D01*
X92581826Y-16414903D01*
X92631987Y-16409208D01*
X92680452Y-16409208D01*
X92680452Y-16603069D01*
G37*
%TO.C,kibuzzard-69FA465C*%
G36*
X98776414Y-15928756D02*
G01*
X99494669Y-15928756D01*
X100084976Y-15928756D01*
X100532795Y-15928756D01*
X101089176Y-15928756D01*
X101208401Y-15928756D01*
X102016155Y-15928756D01*
X102062345Y-15931025D01*
X102108090Y-15937811D01*
X102152950Y-15949048D01*
X102196492Y-15964627D01*
X102238298Y-15984400D01*
X102277964Y-16008175D01*
X102315109Y-16035724D01*
X102349375Y-16066780D01*
X102380432Y-16101046D01*
X102407980Y-16138191D01*
X102431755Y-16177857D01*
X102451528Y-16219663D01*
X102467107Y-16263205D01*
X102478344Y-16308065D01*
X102485130Y-16353810D01*
X102487399Y-16400000D01*
X102485130Y-16446190D01*
X102478344Y-16491935D01*
X102467107Y-16536795D01*
X102451528Y-16580337D01*
X102431755Y-16622143D01*
X102407980Y-16661809D01*
X102380432Y-16698954D01*
X102349375Y-16733220D01*
X102315109Y-16764276D01*
X102277964Y-16791825D01*
X102238298Y-16815600D01*
X102196492Y-16835373D01*
X102152950Y-16850952D01*
X102108090Y-16862189D01*
X102062345Y-16868975D01*
X102016155Y-16871244D01*
X101208401Y-16871244D01*
X98391599Y-16871244D01*
X97583845Y-16871244D01*
X97537655Y-16868975D01*
X97491910Y-16862189D01*
X97447050Y-16850952D01*
X97403508Y-16835373D01*
X97361702Y-16815600D01*
X97322036Y-16791825D01*
X97284891Y-16764276D01*
X97250625Y-16733220D01*
X97219568Y-16698954D01*
X97192020Y-16661809D01*
X97168245Y-16622143D01*
X97148472Y-16580337D01*
X97132893Y-16536795D01*
X97121656Y-16491935D01*
X97114870Y-16446190D01*
X97112601Y-16400000D01*
X97114870Y-16353810D01*
X97121656Y-16308065D01*
X97132893Y-16263205D01*
X97148472Y-16219663D01*
X97168245Y-16177857D01*
X97192020Y-16138191D01*
X97218187Y-16102908D01*
X98391599Y-16102908D01*
X98391599Y-16201777D01*
X98657189Y-16201777D01*
X98657189Y-16370436D01*
X98444911Y-16370436D01*
X98444911Y-16469305D01*
X98657189Y-16469305D01*
X98657189Y-16604039D01*
X98412924Y-16604039D01*
X98412924Y-16702908D01*
X98776414Y-16702908D01*
X98776414Y-16117447D01*
X99349273Y-16117447D01*
X99365751Y-16220194D01*
X99396284Y-16207593D01*
X99423425Y-16200323D01*
X99450565Y-16196931D01*
X99481099Y-16195961D01*
X99509208Y-16198869D01*
X99530533Y-16210501D01*
X99544103Y-16234733D01*
X99548950Y-16275444D01*
X99548950Y-16459612D01*
X99357997Y-16459612D01*
X99357997Y-16558481D01*
X99548950Y-16558481D01*
X99548950Y-16692246D01*
X99668174Y-16672859D01*
X99668174Y-16558481D01*
X99771890Y-16558481D01*
X99771890Y-16547819D01*
X99846527Y-16547819D01*
X99883845Y-16557027D01*
X99925040Y-16562843D01*
X99963328Y-16566236D01*
X99990953Y-16567205D01*
X100053595Y-16564540D01*
X100107754Y-16556543D01*
X100157068Y-16544184D01*
X100205170Y-16528433D01*
X100205170Y-16331664D01*
X100318578Y-16331664D01*
X100322456Y-16382674D01*
X100334087Y-16429079D01*
X100352868Y-16470032D01*
X100378191Y-16504685D01*
X100409451Y-16532553D01*
X100446042Y-16553150D01*
X100487359Y-16565872D01*
X100532795Y-16570113D01*
X100577625Y-16565872D01*
X100619063Y-16553150D01*
X100656018Y-16532553D01*
X100682487Y-16509047D01*
X100803231Y-16509047D01*
X100810232Y-16573506D01*
X100831233Y-16624717D01*
X100866236Y-16662682D01*
X100913947Y-16688799D01*
X100973075Y-16704470D01*
X101043619Y-16709693D01*
X101081422Y-16708724D01*
X101125040Y-16706300D01*
X101169144Y-16701939D01*
X101208401Y-16695153D01*
X101208401Y-16102908D01*
X101089176Y-16102908D01*
X101089176Y-16305493D01*
X101046527Y-16305493D01*
X100974852Y-16310824D01*
X100914917Y-16326817D01*
X100866721Y-16353473D01*
X100831449Y-16392084D01*
X100810285Y-16443942D01*
X100803231Y-16509047D01*
X100682487Y-16509047D01*
X100687399Y-16504685D01*
X100712843Y-16470032D01*
X100731987Y-16429079D01*
X100743982Y-16382674D01*
X100747981Y-16331664D01*
X100744103Y-16279927D01*
X100732472Y-16233279D01*
X100713691Y-16192205D01*
X100688368Y-16157189D01*
X100657108Y-16128837D01*
X100620517Y-16107754D01*
X100578958Y-16094669D01*
X100532795Y-16090307D01*
X100486632Y-16094669D01*
X100445073Y-16107754D01*
X100408603Y-16128837D01*
X100377706Y-16157189D01*
X100352746Y-16192205D01*
X100334087Y-16233279D01*
X100322456Y-16279927D01*
X100318578Y-16331664D01*
X100205170Y-16331664D01*
X100205170Y-16102908D01*
X100084976Y-16102908D01*
X100084976Y-16441195D01*
X100035541Y-16450404D01*
X99986107Y-16452827D01*
X99959935Y-16451858D01*
X99927948Y-16448465D01*
X99895477Y-16443134D01*
X99867851Y-16437318D01*
X99846527Y-16547819D01*
X99771890Y-16547819D01*
X99771890Y-16459612D01*
X99668174Y-16459612D01*
X99668174Y-16272536D01*
X99665267Y-16220800D01*
X99656543Y-16179968D01*
X99622617Y-16125202D01*
X99568336Y-16099031D01*
X99494669Y-16092246D01*
X99420517Y-16098061D01*
X99349273Y-16117447D01*
X98776414Y-16117447D01*
X98776414Y-16102908D01*
X98391599Y-16102908D01*
X97218187Y-16102908D01*
X97219568Y-16101046D01*
X97250625Y-16066780D01*
X97284891Y-16035724D01*
X97322036Y-16008175D01*
X97361702Y-15984400D01*
X97403508Y-15964627D01*
X97447050Y-15949048D01*
X97491910Y-15937811D01*
X97537655Y-15931025D01*
X97583845Y-15928756D01*
X98391599Y-15928756D01*
X98776414Y-15928756D01*
G37*
G36*
X100576535Y-16203473D02*
G01*
X100605008Y-16231826D01*
X100621365Y-16275444D01*
X100626817Y-16330695D01*
X100620880Y-16385824D01*
X100603069Y-16429079D01*
X100573627Y-16457068D01*
X100532795Y-16466397D01*
X100490994Y-16457068D01*
X100462520Y-16429079D01*
X100446163Y-16385824D01*
X100440711Y-16330695D01*
X100446648Y-16275444D01*
X100464459Y-16231826D01*
X100493901Y-16203473D01*
X100534733Y-16194023D01*
X100576535Y-16203473D01*
G37*
G36*
X101089176Y-16603069D02*
G01*
X101059612Y-16605493D01*
X101030048Y-16605977D01*
X100987278Y-16600525D01*
X100953958Y-16584168D01*
X100932512Y-16554725D01*
X100925363Y-16510016D01*
X100932633Y-16462884D01*
X100954443Y-16431987D01*
X100990549Y-16414903D01*
X101040711Y-16409208D01*
X101089176Y-16409208D01*
X101089176Y-16603069D01*
G37*
%TO.C,kibuzzard-69FA4621*%
G36*
X102668646Y-73531025D02*
G01*
X102714391Y-73537811D01*
X102759250Y-73549048D01*
X102802793Y-73564627D01*
X102844598Y-73584400D01*
X102884265Y-73608175D01*
X102921410Y-73635724D01*
X102955675Y-73666780D01*
X102986732Y-73701046D01*
X103014281Y-73738191D01*
X103038056Y-73777857D01*
X103057828Y-73819663D01*
X103073408Y-73863205D01*
X103084645Y-73908065D01*
X103091430Y-73953810D01*
X103093700Y-74000000D01*
X103091430Y-74046190D01*
X103084645Y-74091935D01*
X103073408Y-74136795D01*
X103057828Y-74180337D01*
X103038056Y-74222143D01*
X103014281Y-74261809D01*
X102986732Y-74298954D01*
X102955675Y-74333220D01*
X102921410Y-74364276D01*
X102884265Y-74391825D01*
X102844598Y-74415600D01*
X102802793Y-74435373D01*
X102759250Y-74450952D01*
X102714391Y-74462189D01*
X102668646Y-74468975D01*
X102622456Y-74471244D01*
X101814701Y-74471244D01*
X101536511Y-74471244D01*
X100699031Y-74471244D01*
X100108724Y-74471244D01*
X99660905Y-74471244D01*
X99104523Y-74471244D01*
X98985299Y-74471244D01*
X98177544Y-74471244D01*
X98131354Y-74468975D01*
X98085609Y-74462189D01*
X98040750Y-74450952D01*
X97997207Y-74435373D01*
X97955402Y-74415600D01*
X97915735Y-74391825D01*
X97878590Y-74364276D01*
X97844325Y-74333220D01*
X97813268Y-74298954D01*
X97785719Y-74261809D01*
X97761944Y-74222143D01*
X97742172Y-74180337D01*
X97726592Y-74136795D01*
X97715355Y-74091935D01*
X97708570Y-74046190D01*
X97706300Y-74000000D01*
X97708570Y-73953810D01*
X97715355Y-73908065D01*
X97726592Y-73863205D01*
X97742172Y-73819663D01*
X97761944Y-73777857D01*
X97785719Y-73738191D01*
X97810449Y-73704847D01*
X98985299Y-73704847D01*
X98985299Y-74297092D01*
X99104523Y-74297092D01*
X99104523Y-74094507D01*
X99147173Y-74094507D01*
X99218848Y-74089176D01*
X99278783Y-74073183D01*
X99287547Y-74068336D01*
X99445719Y-74068336D01*
X99449596Y-74120073D01*
X99461228Y-74166721D01*
X99480008Y-74207795D01*
X99505331Y-74242811D01*
X99536591Y-74271163D01*
X99573183Y-74292246D01*
X99614742Y-74305331D01*
X99660905Y-74309693D01*
X99707068Y-74305331D01*
X99748627Y-74292246D01*
X99785097Y-74271163D01*
X99815994Y-74242811D01*
X99840953Y-74207795D01*
X99859612Y-74166721D01*
X99871244Y-74120073D01*
X99875121Y-74068336D01*
X99871244Y-74017326D01*
X99859612Y-73970921D01*
X99840832Y-73929968D01*
X99815509Y-73895315D01*
X99788870Y-73871567D01*
X99988530Y-73871567D01*
X99988530Y-74297092D01*
X100108724Y-74297092D01*
X100108724Y-73958805D01*
X100158158Y-73949596D01*
X100207593Y-73947173D01*
X100233764Y-73948142D01*
X100265751Y-73951535D01*
X100298223Y-73956866D01*
X100325848Y-73962682D01*
X100347173Y-73852181D01*
X100309855Y-73842973D01*
X100299556Y-73841519D01*
X100421809Y-73841519D01*
X100421809Y-73940388D01*
X100525525Y-73940388D01*
X100525525Y-74127464D01*
X100528433Y-74179200D01*
X100537157Y-74220032D01*
X100571082Y-74274798D01*
X100625363Y-74300969D01*
X100699031Y-74307754D01*
X100773183Y-74301939D01*
X100844426Y-74282553D01*
X100827948Y-74179806D01*
X100797415Y-74192407D01*
X100770275Y-74199677D01*
X100743134Y-74203069D01*
X100712601Y-74204039D01*
X100684491Y-74201131D01*
X100663166Y-74189499D01*
X100649596Y-74165267D01*
X100644750Y-74124556D01*
X100644750Y-73940388D01*
X100835703Y-73940388D01*
X100835703Y-73841519D01*
X100644750Y-73841519D01*
X100644750Y-73707754D01*
X100525525Y-73727141D01*
X100525525Y-73841519D01*
X100421809Y-73841519D01*
X100299556Y-73841519D01*
X100268659Y-73837157D01*
X100230372Y-73833764D01*
X100202746Y-73832795D01*
X100140105Y-73835460D01*
X100085945Y-73843457D01*
X100036632Y-73855816D01*
X99988530Y-73871567D01*
X99788870Y-73871567D01*
X99784249Y-73867447D01*
X99747658Y-73846850D01*
X99706341Y-73834128D01*
X99660905Y-73829887D01*
X99616074Y-73834128D01*
X99574637Y-73846850D01*
X99537682Y-73867447D01*
X99506300Y-73895315D01*
X99480856Y-73929968D01*
X99461712Y-73970921D01*
X99449717Y-74017326D01*
X99445719Y-74068336D01*
X99287547Y-74068336D01*
X99326979Y-74046527D01*
X99362251Y-74007916D01*
X99383414Y-73956058D01*
X99390468Y-73890953D01*
X99383468Y-73826494D01*
X99362466Y-73775283D01*
X99327464Y-73737318D01*
X99279752Y-73711201D01*
X99255778Y-73704847D01*
X101408562Y-73704847D01*
X101408562Y-74290307D01*
X101473990Y-74301454D01*
X101536511Y-74304847D01*
X101595032Y-74300606D01*
X101648465Y-74287884D01*
X101695840Y-74265953D01*
X101736187Y-74234087D01*
X101769023Y-74191801D01*
X101793861Y-74138611D01*
X101809491Y-74073788D01*
X101814701Y-73996607D01*
X101809976Y-73921123D01*
X101795800Y-73857512D01*
X101773142Y-73804927D01*
X101742973Y-73762520D01*
X101705291Y-73730170D01*
X101660097Y-73707754D01*
X101608603Y-73694669D01*
X101552019Y-73690307D01*
X101485137Y-73693215D01*
X101408562Y-73704847D01*
X99255778Y-73704847D01*
X99220625Y-73695530D01*
X99150081Y-73690307D01*
X99112278Y-73691276D01*
X99068659Y-73693700D01*
X99024556Y-73698061D01*
X98985299Y-73704847D01*
X97810449Y-73704847D01*
X97813268Y-73701046D01*
X97844325Y-73666780D01*
X97878590Y-73635724D01*
X97915735Y-73608175D01*
X97955402Y-73584400D01*
X97997207Y-73564627D01*
X98040750Y-73549048D01*
X98085609Y-73537811D01*
X98131354Y-73531025D01*
X98177544Y-73528756D01*
X98985299Y-73528756D01*
X101814701Y-73528756D01*
X102622456Y-73528756D01*
X102668646Y-73531025D01*
G37*
G36*
X101627625Y-73810985D02*
G01*
X101667367Y-73856058D01*
X101687722Y-73921002D01*
X101693538Y-73996607D01*
X101691721Y-74039378D01*
X101686268Y-74078514D01*
X101662036Y-74142973D01*
X101617447Y-74185622D01*
X101549111Y-74201131D01*
X101538449Y-74201131D01*
X101527787Y-74200162D01*
X101527787Y-73796931D01*
X101545234Y-73794507D01*
X101562682Y-73794023D01*
X101627625Y-73810985D01*
G37*
G36*
X99702706Y-73942932D02*
G01*
X99731179Y-73970921D01*
X99747536Y-74014176D01*
X99752989Y-74069305D01*
X99747052Y-74124556D01*
X99729241Y-74168174D01*
X99699798Y-74196527D01*
X99658966Y-74205977D01*
X99617165Y-74196527D01*
X99588691Y-74168174D01*
X99572334Y-74124556D01*
X99566882Y-74069305D01*
X99572819Y-74014176D01*
X99590630Y-73970921D01*
X99620073Y-73942932D01*
X99660905Y-73933603D01*
X99702706Y-73942932D01*
G37*
G36*
X99206422Y-73799475D02*
G01*
X99239742Y-73815832D01*
X99261187Y-73845275D01*
X99268336Y-73889984D01*
X99261066Y-73937116D01*
X99239257Y-73968013D01*
X99203150Y-73985097D01*
X99152989Y-73990792D01*
X99104523Y-73990792D01*
X99104523Y-73796931D01*
X99134087Y-73794507D01*
X99163651Y-73794023D01*
X99206422Y-73799475D01*
G37*
%TO.C,kibuzzard-69FA461D*%
G36*
X94067039Y-73527649D02*
G01*
X94113114Y-73534483D01*
X94158297Y-73545801D01*
X94202152Y-73561493D01*
X94244259Y-73581408D01*
X94284211Y-73605354D01*
X94321623Y-73633101D01*
X94356136Y-73664381D01*
X94387416Y-73698894D01*
X94415163Y-73736306D01*
X94439109Y-73776258D01*
X94459024Y-73818364D01*
X94474716Y-73862220D01*
X94486033Y-73907403D01*
X94492868Y-73953477D01*
X94495153Y-74000000D01*
X94492868Y-74046523D01*
X94486033Y-74092597D01*
X94474716Y-74137780D01*
X94459024Y-74181636D01*
X94439109Y-74223742D01*
X94415163Y-74263694D01*
X94387416Y-74301106D01*
X94356136Y-74335619D01*
X94321623Y-74366899D01*
X94284211Y-74394646D01*
X94244259Y-74418592D01*
X94202152Y-74438507D01*
X94158297Y-74454199D01*
X94113114Y-74465517D01*
X94067039Y-74472351D01*
X94020517Y-74474637D01*
X93212763Y-74474637D01*
X93045073Y-74474637D01*
X92100969Y-74474637D01*
X91510662Y-74474637D01*
X91062843Y-74474637D01*
X90506462Y-74474637D01*
X90387237Y-74474637D01*
X89579483Y-74474637D01*
X89532961Y-74472351D01*
X89486886Y-74465517D01*
X89441703Y-74454199D01*
X89397848Y-74438507D01*
X89355741Y-74418592D01*
X89315789Y-74394646D01*
X89278377Y-74366899D01*
X89243864Y-74335619D01*
X89212584Y-74301106D01*
X89184837Y-74263694D01*
X89160891Y-74223742D01*
X89140976Y-74181636D01*
X89125284Y-74137780D01*
X89113967Y-74092597D01*
X89107132Y-74046523D01*
X89104847Y-74000000D01*
X89107132Y-73953477D01*
X89113967Y-73907403D01*
X89125284Y-73862220D01*
X89140976Y-73818364D01*
X89160891Y-73776258D01*
X89184837Y-73736306D01*
X89205653Y-73708239D01*
X90387237Y-73708239D01*
X90387237Y-74300485D01*
X90506462Y-74300485D01*
X90506462Y-74097900D01*
X90549111Y-74097900D01*
X90620786Y-74092569D01*
X90680722Y-74076575D01*
X90689484Y-74071729D01*
X90847658Y-74071729D01*
X90851535Y-74123465D01*
X90863166Y-74170113D01*
X90881947Y-74211187D01*
X90907270Y-74246204D01*
X90938530Y-74274556D01*
X90975121Y-74295638D01*
X91016680Y-74308724D01*
X91062843Y-74313086D01*
X91109006Y-74308724D01*
X91150565Y-74295638D01*
X91187036Y-74274556D01*
X91217932Y-74246204D01*
X91242892Y-74211187D01*
X91261551Y-74170113D01*
X91273183Y-74123465D01*
X91277060Y-74071729D01*
X91273183Y-74020719D01*
X91261551Y-73974313D01*
X91242771Y-73933360D01*
X91217447Y-73898708D01*
X91190808Y-73874960D01*
X91390468Y-73874960D01*
X91390468Y-74300485D01*
X91510662Y-74300485D01*
X91510662Y-73962197D01*
X91560097Y-73952989D01*
X91609532Y-73950565D01*
X91635703Y-73951535D01*
X91667690Y-73954927D01*
X91700162Y-73960258D01*
X91727787Y-73966074D01*
X91749111Y-73855574D01*
X91711793Y-73846365D01*
X91701494Y-73844911D01*
X91823748Y-73844911D01*
X91823748Y-73943780D01*
X91927464Y-73943780D01*
X91927464Y-74130856D01*
X91930372Y-74182593D01*
X91939095Y-74223425D01*
X91973021Y-74278191D01*
X92027302Y-74304362D01*
X92100969Y-74311147D01*
X92175121Y-74305331D01*
X92246365Y-74285945D01*
X92229887Y-74183199D01*
X92199354Y-74195800D01*
X92172213Y-74203069D01*
X92145073Y-74206462D01*
X92114540Y-74207431D01*
X92086430Y-74204523D01*
X92065105Y-74192892D01*
X92051535Y-74168659D01*
X92046688Y-74127948D01*
X92046688Y-74000000D01*
X92784330Y-74000000D01*
X92788510Y-74070820D01*
X92801050Y-74133037D01*
X92821951Y-74186652D01*
X92851212Y-74231664D01*
X92902477Y-74276898D01*
X92967097Y-74304039D01*
X93045073Y-74313086D01*
X93098021Y-74309814D01*
X93144426Y-74300000D01*
X93212763Y-74271405D01*
X93182714Y-74177383D01*
X93133764Y-74198708D01*
X93056704Y-74209370D01*
X92987520Y-74195679D01*
X92940872Y-74154604D01*
X92921217Y-74112763D01*
X92909424Y-74060258D01*
X92905493Y-73997092D01*
X92908764Y-73942811D01*
X92918578Y-73898223D01*
X92952504Y-73834733D01*
X93000000Y-73800808D01*
X93054766Y-73790630D01*
X93126979Y-73800808D01*
X93180775Y-73825525D01*
X93211793Y-73730533D01*
X93191922Y-73718901D01*
X93159451Y-73704362D01*
X93114378Y-73692246D01*
X93056704Y-73686914D01*
X92999879Y-73692124D01*
X92947658Y-73707754D01*
X92901131Y-73733441D01*
X92861389Y-73768821D01*
X92829039Y-73813530D01*
X92804685Y-73867205D01*
X92789418Y-73929483D01*
X92784330Y-74000000D01*
X92046688Y-74000000D01*
X92046688Y-73943780D01*
X92237641Y-73943780D01*
X92237641Y-73844911D01*
X92046688Y-73844911D01*
X92046688Y-73711147D01*
X91927464Y-73730533D01*
X91927464Y-73844911D01*
X91823748Y-73844911D01*
X91701494Y-73844911D01*
X91670598Y-73840549D01*
X91632310Y-73837157D01*
X91604685Y-73836187D01*
X91542044Y-73838853D01*
X91487884Y-73846850D01*
X91438570Y-73859208D01*
X91390468Y-73874960D01*
X91190808Y-73874960D01*
X91186187Y-73870840D01*
X91149596Y-73850242D01*
X91108279Y-73837520D01*
X91062843Y-73833279D01*
X91018013Y-73837520D01*
X90976575Y-73850242D01*
X90939620Y-73870840D01*
X90908239Y-73898708D01*
X90882795Y-73933360D01*
X90863651Y-73974313D01*
X90851656Y-74020719D01*
X90847658Y-74071729D01*
X90689484Y-74071729D01*
X90728918Y-74049919D01*
X90764190Y-74011309D01*
X90785353Y-73959451D01*
X90792407Y-73894346D01*
X90785407Y-73829887D01*
X90764405Y-73778675D01*
X90729402Y-73740711D01*
X90681691Y-73714593D01*
X90622563Y-73698923D01*
X90552019Y-73693700D01*
X90514216Y-73694669D01*
X90470598Y-73697092D01*
X90426494Y-73701454D01*
X90387237Y-73708239D01*
X89205653Y-73708239D01*
X89212584Y-73698894D01*
X89243864Y-73664381D01*
X89278377Y-73633101D01*
X89315789Y-73605354D01*
X89355741Y-73581408D01*
X89397848Y-73561493D01*
X89441703Y-73545801D01*
X89486886Y-73534483D01*
X89532961Y-73527649D01*
X89579483Y-73525363D01*
X90387237Y-73525363D01*
X93212763Y-73525363D01*
X94020517Y-73525363D01*
X94067039Y-73527649D01*
G37*
G36*
X91104645Y-73946325D02*
G01*
X91133118Y-73974313D01*
X91149475Y-74017569D01*
X91154927Y-74072698D01*
X91148990Y-74127948D01*
X91131179Y-74171567D01*
X91101737Y-74199919D01*
X91060905Y-74209370D01*
X91019103Y-74199919D01*
X90990630Y-74171567D01*
X90974273Y-74127948D01*
X90968821Y-74072698D01*
X90974758Y-74017569D01*
X90992569Y-73974313D01*
X91022011Y-73946325D01*
X91062843Y-73936995D01*
X91104645Y-73946325D01*
G37*
G36*
X90608360Y-73802868D02*
G01*
X90641680Y-73819225D01*
X90663126Y-73848667D01*
X90670275Y-73893376D01*
X90663005Y-73940509D01*
X90641195Y-73971405D01*
X90605089Y-73988489D01*
X90554927Y-73994184D01*
X90506462Y-73994184D01*
X90506462Y-73800323D01*
X90536026Y-73797900D01*
X90565590Y-73797415D01*
X90608360Y-73802868D01*
G37*
%TO.C,kibuzzard-69FA4619*%
G36*
X85466707Y-73531025D02*
G01*
X85512452Y-73537811D01*
X85557312Y-73549048D01*
X85600854Y-73564627D01*
X85642660Y-73584400D01*
X85682326Y-73608175D01*
X85719471Y-73635724D01*
X85753737Y-73666780D01*
X85784793Y-73701046D01*
X85812342Y-73738191D01*
X85836117Y-73777857D01*
X85855890Y-73819663D01*
X85871469Y-73863205D01*
X85882706Y-73908065D01*
X85889492Y-73953810D01*
X85891761Y-74000000D01*
X85889492Y-74046190D01*
X85882706Y-74091935D01*
X85871469Y-74136795D01*
X85855890Y-74180337D01*
X85836117Y-74222143D01*
X85812342Y-74261809D01*
X85784793Y-74298954D01*
X85753737Y-74333220D01*
X85719471Y-74364276D01*
X85682326Y-74391825D01*
X85642660Y-74415600D01*
X85600854Y-74435373D01*
X85557312Y-74450952D01*
X85512452Y-74462189D01*
X85466707Y-74468975D01*
X85420517Y-74471244D01*
X84612763Y-74471244D01*
X84377221Y-74471244D01*
X83500969Y-74471244D01*
X82910662Y-74471244D01*
X82462843Y-74471244D01*
X81906462Y-74471244D01*
X81787237Y-74471244D01*
X80979483Y-74471244D01*
X80933293Y-74468975D01*
X80887548Y-74462189D01*
X80842688Y-74450952D01*
X80799146Y-74435373D01*
X80757340Y-74415600D01*
X80717674Y-74391825D01*
X80680529Y-74364276D01*
X80646263Y-74333220D01*
X80615207Y-74298954D01*
X80587658Y-74261809D01*
X80563883Y-74222143D01*
X80544110Y-74180337D01*
X80528531Y-74136795D01*
X80517294Y-74091935D01*
X80510508Y-74046190D01*
X80508239Y-74000000D01*
X80510508Y-73953810D01*
X80517294Y-73908065D01*
X80528531Y-73863205D01*
X80544110Y-73819663D01*
X80563883Y-73777857D01*
X80587658Y-73738191D01*
X80612388Y-73704847D01*
X81787237Y-73704847D01*
X81787237Y-74297092D01*
X81906462Y-74297092D01*
X81906462Y-74094507D01*
X81949111Y-74094507D01*
X82020786Y-74089176D01*
X82080722Y-74073183D01*
X82089486Y-74068336D01*
X82247658Y-74068336D01*
X82251535Y-74120073D01*
X82263166Y-74166721D01*
X82281947Y-74207795D01*
X82307270Y-74242811D01*
X82338530Y-74271163D01*
X82375121Y-74292246D01*
X82416680Y-74305331D01*
X82462843Y-74309693D01*
X82509006Y-74305331D01*
X82550565Y-74292246D01*
X82587036Y-74271163D01*
X82617932Y-74242811D01*
X82642892Y-74207795D01*
X82661551Y-74166721D01*
X82673183Y-74120073D01*
X82677060Y-74068336D01*
X82673183Y-74017326D01*
X82661551Y-73970921D01*
X82642771Y-73929968D01*
X82617447Y-73895315D01*
X82590808Y-73871567D01*
X82790468Y-73871567D01*
X82790468Y-74297092D01*
X82910662Y-74297092D01*
X82910662Y-73958805D01*
X82960097Y-73949596D01*
X83009532Y-73947173D01*
X83035703Y-73948142D01*
X83067690Y-73951535D01*
X83100162Y-73956866D01*
X83127787Y-73962682D01*
X83149111Y-73852181D01*
X83111793Y-73842973D01*
X83101494Y-73841519D01*
X83223748Y-73841519D01*
X83223748Y-73940388D01*
X83327464Y-73940388D01*
X83327464Y-74127464D01*
X83330372Y-74179200D01*
X83339095Y-74220032D01*
X83373021Y-74274798D01*
X83427302Y-74300969D01*
X83500969Y-74307754D01*
X83575121Y-74301939D01*
X83646365Y-74282553D01*
X83629887Y-74179806D01*
X83599354Y-74192407D01*
X83572213Y-74199677D01*
X83545073Y-74203069D01*
X83514540Y-74204039D01*
X83486430Y-74201131D01*
X83465105Y-74189499D01*
X83451535Y-74165267D01*
X83446688Y-74124556D01*
X83446688Y-73940388D01*
X83637641Y-73940388D01*
X83637641Y-73841519D01*
X83446688Y-73841519D01*
X83446688Y-73707754D01*
X83327464Y-73727141D01*
X83327464Y-73841519D01*
X83223748Y-73841519D01*
X83101494Y-73841519D01*
X83070598Y-73837157D01*
X83032310Y-73833764D01*
X83004685Y-73832795D01*
X82942044Y-73835460D01*
X82887884Y-73843457D01*
X82838570Y-73855816D01*
X82790468Y-73871567D01*
X82590808Y-73871567D01*
X82586187Y-73867447D01*
X82549596Y-73846850D01*
X82508279Y-73834128D01*
X82462843Y-73829887D01*
X82418013Y-73834128D01*
X82376575Y-73846850D01*
X82339620Y-73867447D01*
X82308239Y-73895315D01*
X82282795Y-73929968D01*
X82263651Y-73970921D01*
X82251656Y-74017326D01*
X82247658Y-74068336D01*
X82089486Y-74068336D01*
X82128918Y-74046527D01*
X82164190Y-74007916D01*
X82185353Y-73956058D01*
X82192407Y-73890953D01*
X82185407Y-73826494D01*
X82164405Y-73775283D01*
X82129402Y-73737318D01*
X82081691Y-73711201D01*
X82057717Y-73704847D01*
X84210501Y-73704847D01*
X84210501Y-74287399D01*
X84252423Y-74295032D01*
X84294830Y-74300485D01*
X84336753Y-74303756D01*
X84377221Y-74304847D01*
X84425081Y-74302544D01*
X84469790Y-74295638D01*
X84510016Y-74283279D01*
X84544426Y-74264620D01*
X84594346Y-74206462D01*
X84608158Y-74165630D01*
X84612763Y-74115832D01*
X84607310Y-74075121D01*
X84590953Y-74036349D01*
X84559330Y-74002423D01*
X84508078Y-73976252D01*
X84563813Y-73923910D01*
X84579443Y-73888530D01*
X84584653Y-73848304D01*
X84575929Y-73792084D01*
X84542973Y-73741195D01*
X84476090Y-73704362D01*
X84427141Y-73693821D01*
X84365590Y-73690307D01*
X84285137Y-73694669D01*
X84210501Y-73704847D01*
X82057717Y-73704847D01*
X82022563Y-73695530D01*
X81952019Y-73690307D01*
X81914216Y-73691276D01*
X81870598Y-73693700D01*
X81826494Y-73698061D01*
X81787237Y-73704847D01*
X80612388Y-73704847D01*
X80615207Y-73701046D01*
X80646263Y-73666780D01*
X80680529Y-73635724D01*
X80717674Y-73608175D01*
X80757340Y-73584400D01*
X80799146Y-73564627D01*
X80842688Y-73549048D01*
X80887548Y-73537811D01*
X80933293Y-73531025D01*
X80979483Y-73528756D01*
X81787237Y-73528756D01*
X84612763Y-73528756D01*
X85420517Y-73528756D01*
X85466707Y-73531025D01*
G37*
G36*
X82504645Y-73942932D02*
G01*
X82533118Y-73970921D01*
X82549475Y-74014176D01*
X82554927Y-74069305D01*
X82548990Y-74124556D01*
X82531179Y-74168174D01*
X82501737Y-74196527D01*
X82460905Y-74205977D01*
X82419103Y-74196527D01*
X82390630Y-74168174D01*
X82374273Y-74124556D01*
X82368821Y-74069305D01*
X82374758Y-74014176D01*
X82392569Y-73970921D01*
X82422011Y-73942932D01*
X82462843Y-73933603D01*
X82504645Y-73942932D01*
G37*
G36*
X82008360Y-73799475D02*
G01*
X82041680Y-73815832D01*
X82063126Y-73845275D01*
X82070275Y-73889984D01*
X82063005Y-73937116D01*
X82041195Y-73968013D01*
X82005089Y-73985097D01*
X81954927Y-73990792D01*
X81906462Y-73990792D01*
X81906462Y-73796931D01*
X81936026Y-73794507D01*
X81965590Y-73794023D01*
X82008360Y-73799475D01*
G37*
G36*
X84467851Y-74053312D02*
G01*
X84495477Y-74115832D01*
X84485784Y-74158966D01*
X84461066Y-74185137D01*
X84426656Y-74197738D01*
X84386914Y-74201131D01*
X84357351Y-74200162D01*
X84329725Y-74197254D01*
X84329725Y-74034410D01*
X84393700Y-74034410D01*
X84467851Y-74053312D01*
G37*
G36*
X84415994Y-73796446D02*
G01*
X84443134Y-73806139D01*
X84461551Y-73826494D01*
X84468336Y-73860905D01*
X84445073Y-73915670D01*
X84376252Y-73935541D01*
X84329725Y-73935541D01*
X84329725Y-73797900D01*
X84355897Y-73794992D01*
X84384006Y-73794023D01*
X84415994Y-73796446D01*
G37*
%TO.C,kibuzzard-69FA45C9*%
G36*
X76006785Y-73877868D02*
G01*
X76022294Y-73937964D01*
X76035380Y-73997577D01*
X76047011Y-74059612D01*
X75929725Y-74059612D01*
X75941842Y-73997577D01*
X75955412Y-73937964D01*
X75970921Y-73877868D01*
X75988853Y-73813409D01*
X76006785Y-73877868D01*
G37*
G36*
X73597698Y-73799475D02*
G01*
X73631018Y-73815832D01*
X73652464Y-73845275D01*
X73659612Y-73889984D01*
X73652343Y-73937116D01*
X73630533Y-73968013D01*
X73594427Y-73985097D01*
X73544265Y-73990792D01*
X73495800Y-73990792D01*
X73495800Y-73796931D01*
X73525364Y-73794507D01*
X73554927Y-73794023D01*
X73597698Y-73799475D01*
G37*
G36*
X74093982Y-73942932D02*
G01*
X74122456Y-73970921D01*
X74138813Y-74014176D01*
X74144265Y-74069305D01*
X74138328Y-74124556D01*
X74120517Y-74168174D01*
X74091074Y-74196527D01*
X74050242Y-74205977D01*
X74008441Y-74196527D01*
X73979968Y-74168174D01*
X73963611Y-74124556D01*
X73958158Y-74069305D01*
X73964095Y-74014176D01*
X73981906Y-73970921D01*
X74011349Y-73942932D01*
X74052181Y-73933603D01*
X74093982Y-73942932D01*
G37*
G36*
X77077369Y-73531025D02*
G01*
X77123114Y-73537811D01*
X77167974Y-73549048D01*
X77211517Y-73564627D01*
X77253322Y-73584400D01*
X77292988Y-73608175D01*
X77330133Y-73635724D01*
X77364399Y-73666780D01*
X77395456Y-73701046D01*
X77423004Y-73738191D01*
X77446779Y-73777857D01*
X77466552Y-73819663D01*
X77482132Y-73863205D01*
X77493368Y-73908065D01*
X77500154Y-73953810D01*
X77502423Y-74000000D01*
X77500154Y-74046190D01*
X77493368Y-74091935D01*
X77482132Y-74136795D01*
X77466552Y-74180337D01*
X77446779Y-74222143D01*
X77423004Y-74261809D01*
X77395456Y-74298954D01*
X77364399Y-74333220D01*
X77330133Y-74364276D01*
X77292988Y-74391825D01*
X77253322Y-74415600D01*
X77211517Y-74435373D01*
X77167974Y-74450952D01*
X77123114Y-74462189D01*
X77077369Y-74468975D01*
X77031179Y-74471244D01*
X76223425Y-74471244D01*
X76095477Y-74471244D01*
X75090307Y-74471244D01*
X74500000Y-74471244D01*
X74052181Y-74471244D01*
X73495800Y-74471244D01*
X73376575Y-74471244D01*
X72568821Y-74471244D01*
X72522631Y-74468975D01*
X72476886Y-74462189D01*
X72432026Y-74450952D01*
X72388483Y-74435373D01*
X72346678Y-74415600D01*
X72307012Y-74391825D01*
X72269867Y-74364276D01*
X72235601Y-74333220D01*
X72204544Y-74298954D01*
X72176996Y-74261809D01*
X72153221Y-74222143D01*
X72133448Y-74180337D01*
X72117868Y-74136795D01*
X72106632Y-74091935D01*
X72099846Y-74046190D01*
X72097577Y-74000000D01*
X72099846Y-73953810D01*
X72106632Y-73908065D01*
X72117868Y-73863205D01*
X72133448Y-73819663D01*
X72153221Y-73777857D01*
X72176996Y-73738191D01*
X72201725Y-73704847D01*
X73376575Y-73704847D01*
X73376575Y-74297092D01*
X73495800Y-74297092D01*
X73495800Y-74094507D01*
X73538449Y-74094507D01*
X73610124Y-74089176D01*
X73670059Y-74073183D01*
X73678823Y-74068336D01*
X73836995Y-74068336D01*
X73840872Y-74120073D01*
X73852504Y-74166721D01*
X73871284Y-74207795D01*
X73896607Y-74242811D01*
X73927868Y-74271163D01*
X73964459Y-74292246D01*
X74006018Y-74305331D01*
X74052181Y-74309693D01*
X74098344Y-74305331D01*
X74139903Y-74292246D01*
X74176373Y-74271163D01*
X74207270Y-74242811D01*
X74232229Y-74207795D01*
X74250889Y-74166721D01*
X74262520Y-74120073D01*
X74266397Y-74068336D01*
X74262520Y-74017326D01*
X74250889Y-73970921D01*
X74232108Y-73929968D01*
X74206785Y-73895315D01*
X74180146Y-73871567D01*
X74379806Y-73871567D01*
X74379806Y-74297092D01*
X74500000Y-74297092D01*
X74500000Y-73958805D01*
X74549435Y-73949596D01*
X74598869Y-73947173D01*
X74625040Y-73948142D01*
X74657027Y-73951535D01*
X74689499Y-73956866D01*
X74717124Y-73962682D01*
X74738449Y-73852181D01*
X74701131Y-73842973D01*
X74690832Y-73841519D01*
X74813086Y-73841519D01*
X74813086Y-73940388D01*
X74916801Y-73940388D01*
X74916801Y-74127464D01*
X74919709Y-74179200D01*
X74928433Y-74220032D01*
X74962359Y-74274798D01*
X75016640Y-74300969D01*
X75090307Y-74307754D01*
X75164459Y-74301939D01*
X75182272Y-74297092D01*
X75756220Y-74297092D01*
X75880291Y-74297092D01*
X75907431Y-74158481D01*
X76067367Y-74158481D01*
X76095477Y-74297092D01*
X76223425Y-74297092D01*
X76207431Y-74229066D01*
X76191244Y-74163018D01*
X76174863Y-74098947D01*
X76158288Y-74036853D01*
X76141519Y-73976737D01*
X76120406Y-73903827D01*
X76099233Y-73832916D01*
X76077999Y-73764004D01*
X76056704Y-73697092D01*
X75926817Y-73697092D01*
X75906280Y-73763459D01*
X75885380Y-73831704D01*
X75864116Y-73901828D01*
X75842488Y-73973829D01*
X75825079Y-74033441D01*
X75807748Y-74095574D01*
X75790494Y-74160226D01*
X75773318Y-74227399D01*
X75756220Y-74297092D01*
X75182272Y-74297092D01*
X75235703Y-74282553D01*
X75219225Y-74179806D01*
X75188691Y-74192407D01*
X75161551Y-74199677D01*
X75134410Y-74203069D01*
X75103877Y-74204039D01*
X75075767Y-74201131D01*
X75054443Y-74189499D01*
X75040872Y-74165267D01*
X75036026Y-74124556D01*
X75036026Y-73940388D01*
X75226979Y-73940388D01*
X75226979Y-73841519D01*
X75036026Y-73841519D01*
X75036026Y-73707754D01*
X74916801Y-73727141D01*
X74916801Y-73841519D01*
X74813086Y-73841519D01*
X74690832Y-73841519D01*
X74659935Y-73837157D01*
X74621648Y-73833764D01*
X74594023Y-73832795D01*
X74531381Y-73835460D01*
X74477221Y-73843457D01*
X74427908Y-73855816D01*
X74379806Y-73871567D01*
X74180146Y-73871567D01*
X74175525Y-73867447D01*
X74138934Y-73846850D01*
X74097617Y-73834128D01*
X74052181Y-73829887D01*
X74007351Y-73834128D01*
X73965913Y-73846850D01*
X73928958Y-73867447D01*
X73897577Y-73895315D01*
X73872132Y-73929968D01*
X73852989Y-73970921D01*
X73840994Y-74017326D01*
X73836995Y-74068336D01*
X73678823Y-74068336D01*
X73718255Y-74046527D01*
X73753527Y-74007916D01*
X73774690Y-73956058D01*
X73781745Y-73890953D01*
X73774744Y-73826494D01*
X73753743Y-73775283D01*
X73718740Y-73737318D01*
X73671029Y-73711201D01*
X73611901Y-73695530D01*
X73541357Y-73690307D01*
X73503554Y-73691276D01*
X73459935Y-73693700D01*
X73415832Y-73698061D01*
X73376575Y-73704847D01*
X72201725Y-73704847D01*
X72204544Y-73701046D01*
X72235601Y-73666780D01*
X72269867Y-73635724D01*
X72307012Y-73608175D01*
X72346678Y-73584400D01*
X72388483Y-73564627D01*
X72432026Y-73549048D01*
X72476886Y-73537811D01*
X72522631Y-73531025D01*
X72568821Y-73528756D01*
X73376575Y-73528756D01*
X76223425Y-73528756D01*
X77031179Y-73528756D01*
X77077369Y-73531025D01*
G37*
%TO.C,R25*%
D10*
X130235000Y-23727064D02*
X130235000Y-23272936D01*
X128765000Y-23727064D02*
X128765000Y-23272936D01*
%TO.C,C10*%
X131084420Y-53010000D02*
X131365580Y-53010000D01*
X131084420Y-51990000D02*
X131365580Y-51990000D01*
%TO.C,R2*%
X134860436Y-55235000D02*
X135314564Y-55235000D01*
X134860436Y-53765000D02*
X135314564Y-53765000D01*
%TO.C,Q7*%
X67537500Y-48880000D02*
X67297500Y-48550000D01*
X67777500Y-48550000D01*
X67537500Y-48880000D01*
G36*
X67537500Y-48880000D02*
G01*
X67297500Y-48550000D01*
X67777500Y-48550000D01*
X67537500Y-48880000D01*
G37*
X66997500Y-50060000D02*
X65177500Y-50060000D01*
X66997500Y-50010000D02*
X66997500Y-50060000D01*
X66997500Y-48110000D02*
X66997500Y-48890000D01*
X66997500Y-46940000D02*
X66997500Y-46990000D01*
X65177500Y-50060000D02*
X65177500Y-49060000D01*
X65177500Y-47940000D02*
X65177500Y-46940000D01*
X65177500Y-46940000D02*
X66997500Y-46940000D01*
%TO.C,R29*%
X109727064Y-67235000D02*
X109272936Y-67235000D01*
X109727064Y-65765000D02*
X109272936Y-65765000D01*
%TO.C,R7*%
X113227064Y-63235000D02*
X112772936Y-63235000D01*
X113227064Y-61765000D02*
X112772936Y-61765000D01*
%TO.C,C5*%
X138238748Y-42035000D02*
X138761252Y-42035000D01*
X138238748Y-40565000D02*
X138761252Y-40565000D01*
%TO.C,J12*%
X55610000Y-53500000D02*
X56890000Y-53500000D01*
X55610000Y-52900000D02*
X56890000Y-52900000D01*
X55610000Y-49300000D02*
X56890000Y-49300000D01*
X55610000Y-48700000D02*
X56890000Y-48700000D01*
X53800000Y-55800000D02*
X53200000Y-55800000D01*
X53500000Y-55200000D02*
X53800000Y-55800000D01*
X53200000Y-55800000D02*
X53500000Y-55200000D01*
X52510000Y-56010000D02*
X39490000Y-56010000D01*
X52510000Y-55200000D02*
X52510000Y-56010000D01*
X52510000Y-47000000D02*
X52510000Y-46190000D01*
X52510000Y-46190000D02*
X39490000Y-46190000D01*
X52500000Y-51590000D02*
X52500000Y-50610000D01*
X39490000Y-56010000D02*
X39490000Y-51100000D01*
X39490000Y-46190000D02*
X39490000Y-51100000D01*
%TO.C,R22*%
X69735000Y-59727064D02*
X69735000Y-59272936D01*
X68265000Y-59727064D02*
X68265000Y-59272936D01*
%TO.C,J11*%
X55610000Y-42000000D02*
X56890000Y-42000000D01*
X55610000Y-41400000D02*
X56890000Y-41400000D01*
X55610000Y-37800000D02*
X56890000Y-37800000D01*
X55610000Y-37200000D02*
X56890000Y-37200000D01*
X53800000Y-44300000D02*
X53200000Y-44300000D01*
X53500000Y-43700000D02*
X53800000Y-44300000D01*
X53200000Y-44300000D02*
X53500000Y-43700000D01*
X52510000Y-44510000D02*
X39490000Y-44510000D01*
X52510000Y-43700000D02*
X52510000Y-44510000D01*
X52510000Y-35500000D02*
X52510000Y-34690000D01*
X52510000Y-34690000D02*
X39490000Y-34690000D01*
X52500000Y-40090000D02*
X52500000Y-39110000D01*
X39490000Y-44510000D02*
X39490000Y-39600000D01*
X39490000Y-34690000D02*
X39490000Y-39600000D01*
%TO.C,C8*%
X134810000Y-44934420D02*
X134810000Y-45215580D01*
X133790000Y-44934420D02*
X133790000Y-45215580D01*
%TO.C,F1*%
X121210000Y-58886252D02*
X121210000Y-56113748D01*
X117790000Y-58886252D02*
X117790000Y-56113748D01*
%TO.C,R3*%
X81235000Y-54360436D02*
X81235000Y-54814564D01*
X79765000Y-54360436D02*
X79765000Y-54814564D01*
%TO.C,C15*%
X98859420Y-37010000D02*
X99140580Y-37010000D01*
X98859420Y-35990000D02*
X99140580Y-35990000D01*
%TO.C,U3*%
X129110000Y-27367500D02*
X128920000Y-27507500D01*
X128920000Y-27227500D01*
X129110000Y-27367500D01*
G36*
X129110000Y-27367500D02*
G01*
X128920000Y-27507500D01*
X128920000Y-27227500D01*
X129110000Y-27367500D01*
G37*
X131885000Y-26277500D02*
X131885000Y-27497500D01*
X129115000Y-27073068D02*
X129115000Y-26277500D01*
%TO.C,U1*%
X122625000Y-50120000D02*
X122385000Y-49790000D01*
X122865000Y-49790000D01*
X122625000Y-50120000D01*
G36*
X122625000Y-50120000D02*
G01*
X122385000Y-49790000D01*
X122865000Y-49790000D01*
X122625000Y-50120000D01*
G37*
D12*
X123225000Y-55170000D02*
X127375000Y-55170000D01*
X123225000Y-50020000D02*
X127375000Y-50020000D01*
%TO.C,R1*%
D10*
X131814564Y-55235000D02*
X131360436Y-55235000D01*
X131814564Y-53765000D02*
X131360436Y-53765000D01*
%TO.C,Q4*%
X67450000Y-65780000D02*
X67210000Y-65450000D01*
X67690000Y-65450000D01*
X67450000Y-65780000D01*
G36*
X67450000Y-65780000D02*
G01*
X67210000Y-65450000D01*
X67690000Y-65450000D01*
X67450000Y-65780000D01*
G37*
X66910000Y-66960000D02*
X65090000Y-66960000D01*
X66910000Y-66910000D02*
X66910000Y-66960000D01*
X66910000Y-65010000D02*
X66910000Y-65790000D01*
X66910000Y-63840000D02*
X66910000Y-63890000D01*
X65090000Y-66960000D02*
X65090000Y-65960000D01*
X65090000Y-64840000D02*
X65090000Y-63840000D01*
X65090000Y-63840000D02*
X66910000Y-63840000D01*
%TO.C,Q8*%
X67450000Y-59880000D02*
X67210000Y-59550000D01*
X67690000Y-59550000D01*
X67450000Y-59880000D01*
G36*
X67450000Y-59880000D02*
G01*
X67210000Y-59550000D01*
X67690000Y-59550000D01*
X67450000Y-59880000D01*
G37*
X66910000Y-61060000D02*
X65090000Y-61060000D01*
X66910000Y-61010000D02*
X66910000Y-61060000D01*
X66910000Y-59110000D02*
X66910000Y-59890000D01*
X66910000Y-57940000D02*
X66910000Y-57990000D01*
X65090000Y-61060000D02*
X65090000Y-60060000D01*
X65090000Y-58940000D02*
X65090000Y-57940000D01*
X65090000Y-57940000D02*
X66910000Y-57940000D01*
%TO.C,R10*%
X69822500Y-42227064D02*
X69822500Y-41772936D01*
X68352500Y-42227064D02*
X68352500Y-41772936D01*
%TO.C,C3*%
X119360000Y-53107836D02*
X119360000Y-52892164D01*
X118640000Y-53107836D02*
X118640000Y-52892164D01*
%TO.C,C9*%
X135035000Y-39561252D02*
X135035000Y-39038748D01*
X133565000Y-39561252D02*
X133565000Y-39038748D01*
%TO.C,J13*%
X55585000Y-65000000D02*
X56865000Y-65000000D01*
X55585000Y-64400000D02*
X56865000Y-64400000D01*
X55585000Y-60800000D02*
X56865000Y-60800000D01*
X55585000Y-60200000D02*
X56865000Y-60200000D01*
X53775000Y-67300000D02*
X53175000Y-67300000D01*
X53475000Y-66700000D02*
X53775000Y-67300000D01*
X53175000Y-67300000D02*
X53475000Y-66700000D01*
X52485000Y-67510000D02*
X39465000Y-67510000D01*
X52485000Y-66700000D02*
X52485000Y-67510000D01*
X52485000Y-58500000D02*
X52485000Y-57690000D01*
X52485000Y-57690000D02*
X39465000Y-57690000D01*
X52475000Y-63090000D02*
X52475000Y-62110000D01*
X39465000Y-67510000D02*
X39465000Y-62600000D01*
X39465000Y-57690000D02*
X39465000Y-62600000D01*
%TO.C,R20*%
X69822500Y-48727064D02*
X69822500Y-48272936D01*
X68352500Y-48727064D02*
X68352500Y-48272936D01*
%TO.C,R6*%
X104735000Y-47772936D02*
X104735000Y-48227064D01*
X103265000Y-47772936D02*
X103265000Y-48227064D01*
%TO.C,J8*%
X85910000Y-22255000D02*
X84860000Y-22255000D01*
X85910000Y-19755000D02*
X85910000Y-22255000D01*
X84860000Y-22255000D02*
X84860000Y-23245000D01*
X84740000Y-17785000D02*
X80860000Y-17785000D01*
X79690000Y-22255000D02*
X80740000Y-22255000D01*
X79690000Y-19755000D02*
X79690000Y-22255000D01*
%TO.C,R4*%
X79235000Y-54360436D02*
X79235000Y-54814564D01*
X77765000Y-54360436D02*
X77765000Y-54814564D01*
%TO.C,R26*%
X91735000Y-59560436D02*
X91735000Y-60014564D01*
X90265000Y-59560436D02*
X90265000Y-60014564D01*
%TO.C,J5*%
X103460000Y-70840000D02*
X103460000Y-68340000D01*
X103460000Y-68340000D02*
X102410000Y-68340000D01*
X98410000Y-72810000D02*
X102290000Y-72810000D01*
X98290000Y-68340000D02*
X98290000Y-67350000D01*
X97240000Y-70840000D02*
X97240000Y-68340000D01*
X97240000Y-68340000D02*
X98290000Y-68340000D01*
%TO.C,Q5*%
X67312500Y-26342500D02*
X67072500Y-26012500D01*
X67552500Y-26012500D01*
X67312500Y-26342500D01*
G36*
X67312500Y-26342500D02*
G01*
X67072500Y-26012500D01*
X67552500Y-26012500D01*
X67312500Y-26342500D01*
G37*
X66772500Y-27522500D02*
X64952500Y-27522500D01*
X66772500Y-27472500D02*
X66772500Y-27522500D01*
X66772500Y-25572500D02*
X66772500Y-26352500D01*
X66772500Y-24402500D02*
X66772500Y-24452500D01*
X64952500Y-27522500D02*
X64952500Y-26522500D01*
X64952500Y-25402500D02*
X64952500Y-24402500D01*
X64952500Y-24402500D02*
X66772500Y-24402500D01*
%TO.C,C1*%
X131134420Y-51285000D02*
X131415580Y-51285000D01*
X131134420Y-50265000D02*
X131415580Y-50265000D01*
%TO.C,R16*%
X69735000Y-26227064D02*
X69735000Y-25772936D01*
X68265000Y-26227064D02*
X68265000Y-25772936D01*
%TO.C,U5*%
X106160000Y-50190000D02*
X105680000Y-50190000D01*
X105920000Y-49860000D01*
X106160000Y-50190000D01*
G36*
X106160000Y-50190000D02*
G01*
X105680000Y-50190000D01*
X105920000Y-49860000D01*
X106160000Y-50190000D01*
G37*
X113535000Y-43690000D02*
X113535000Y-48310000D01*
X105465000Y-48310000D02*
X105465000Y-43690000D01*
%TO.C,D4*%
X87235000Y-60800000D02*
X87235000Y-58515000D01*
X87235000Y-58515000D02*
X85765000Y-58515000D01*
X85765000Y-58515000D02*
X85765000Y-60800000D01*
%TO.C,C4*%
X138238748Y-40035000D02*
X138761252Y-40035000D01*
X138238748Y-38565000D02*
X138761252Y-38565000D01*
%TO.C,J10*%
X55610000Y-30600000D02*
X56890000Y-30600000D01*
X55610000Y-30000000D02*
X56890000Y-30000000D01*
X55610000Y-26400000D02*
X56890000Y-26400000D01*
X55610000Y-25800000D02*
X56890000Y-25800000D01*
X53800000Y-32900000D02*
X53200000Y-32900000D01*
X53500000Y-32300000D02*
X53800000Y-32900000D01*
X53200000Y-32900000D02*
X53500000Y-32300000D01*
X52510000Y-33110000D02*
X39490000Y-33110000D01*
X52510000Y-32300000D02*
X52510000Y-33110000D01*
X52510000Y-24100000D02*
X52510000Y-23290000D01*
X52510000Y-23290000D02*
X39490000Y-23290000D01*
X52500000Y-28690000D02*
X52500000Y-27710000D01*
X39490000Y-33110000D02*
X39490000Y-28200000D01*
X39490000Y-23290000D02*
X39490000Y-28200000D01*
%TO.C,U6*%
X81675000Y-39400000D02*
X81339000Y-39640000D01*
X81339000Y-39160000D01*
X81675000Y-39400000D01*
G36*
X81675000Y-39400000D02*
G01*
X81339000Y-39640000D01*
X81339000Y-39160000D01*
X81675000Y-39400000D01*
G37*
X97450000Y-53150000D02*
X81850000Y-53150000D01*
X97450000Y-37550000D02*
X97450000Y-53150000D01*
X81850000Y-53150000D02*
X81850000Y-37550000D01*
X81850000Y-37550000D02*
X97450000Y-37550000D01*
%TO.C,R11*%
X62860436Y-41235000D02*
X63314564Y-41235000D01*
X62860436Y-39765000D02*
X63314564Y-39765000D01*
%TO.C,C13*%
X117140580Y-63510000D02*
X116859420Y-63510000D01*
X117140580Y-62490000D02*
X116859420Y-62490000D01*
%TO.C,R31*%
X120735000Y-64727064D02*
X120735000Y-64272936D01*
X119265000Y-64727064D02*
X119265000Y-64272936D01*
%TO.C,C12*%
X81010000Y-39865580D02*
X81010000Y-39584420D01*
X79990000Y-39865580D02*
X79990000Y-39584420D01*
%TO.C,JP2*%
X102000000Y-41650000D02*
G75*
G02*
X101300000Y-42350000I-700000J0D01*
G01*
X101300000Y-38250000D02*
G75*
G02*
X102000000Y-38950000I1J-699999D01*
G01*
X100700000Y-42350000D02*
G75*
G02*
X100000000Y-41650000I0J700000D01*
G01*
X100000000Y-38950000D02*
G75*
G02*
X100700000Y-38250000I699999J1D01*
G01*
X102000000Y-38900000D02*
X102000000Y-41700000D01*
X101300000Y-42350000D02*
X100700000Y-42350000D01*
X100700000Y-38250000D02*
X101300000Y-38250000D01*
X100000000Y-41700000D02*
X100000000Y-38900000D01*
X99800000Y-39100000D02*
X99500000Y-39400000D01*
X99800000Y-39100000D02*
X99500000Y-38800000D01*
X99500000Y-38800000D02*
X99500000Y-39400000D01*
%TO.C,R12*%
X69822500Y-53727064D02*
X69822500Y-53272936D01*
X68352500Y-53727064D02*
X68352500Y-53272936D01*
%TO.C,R19*%
X62860436Y-39235000D02*
X63314564Y-39235000D01*
X62860436Y-37765000D02*
X63314564Y-37765000D01*
%TO.C,J7*%
X94410000Y-22255000D02*
X93360000Y-22255000D01*
X94410000Y-19755000D02*
X94410000Y-22255000D01*
X93360000Y-22255000D02*
X93360000Y-23245000D01*
X93240000Y-17785000D02*
X89360000Y-17785000D01*
X88190000Y-22255000D02*
X89240000Y-22255000D01*
X88190000Y-19755000D02*
X88190000Y-22255000D01*
%TO.C,SW1*%
X96600000Y-35650000D02*
X92400000Y-35650000D01*
X96600000Y-35260000D02*
X96600000Y-35650000D01*
X96600000Y-32740000D02*
X96600000Y-32350000D01*
X96600000Y-32350000D02*
X92400000Y-32350000D01*
X92400000Y-35650000D02*
X92400000Y-35260000D01*
X92400000Y-32350000D02*
X92400000Y-32740000D01*
%TO.C,Q6*%
X67537500Y-37380000D02*
X67297500Y-37050000D01*
X67777500Y-37050000D01*
X67537500Y-37380000D01*
G36*
X67537500Y-37380000D02*
G01*
X67297500Y-37050000D01*
X67777500Y-37050000D01*
X67537500Y-37380000D01*
G37*
X66997500Y-38560000D02*
X65177500Y-38560000D01*
X66997500Y-38510000D02*
X66997500Y-38560000D01*
X66997500Y-36610000D02*
X66997500Y-37390000D01*
X66997500Y-35440000D02*
X66997500Y-35490000D01*
X65177500Y-38560000D02*
X65177500Y-37560000D01*
X65177500Y-36440000D02*
X65177500Y-35440000D01*
X65177500Y-35440000D02*
X66997500Y-35440000D01*
%TO.C,J4*%
X94960000Y-70840000D02*
X94960000Y-68340000D01*
X94960000Y-68340000D02*
X93910000Y-68340000D01*
X89910000Y-72810000D02*
X93790000Y-72810000D01*
X89790000Y-68340000D02*
X89790000Y-67350000D01*
X88740000Y-70840000D02*
X88740000Y-68340000D01*
X88740000Y-68340000D02*
X89790000Y-68340000D01*
%TO.C,R17*%
X62860436Y-28235000D02*
X63314564Y-28235000D01*
X62860436Y-26765000D02*
X63314564Y-26765000D01*
%TO.C,C7*%
X138188748Y-46035000D02*
X138711252Y-46035000D01*
X138188748Y-44565000D02*
X138711252Y-44565000D01*
%TO.C,Q2*%
X67537500Y-42380000D02*
X67297500Y-42050000D01*
X67777500Y-42050000D01*
X67537500Y-42380000D01*
G36*
X67537500Y-42380000D02*
G01*
X67297500Y-42050000D01*
X67777500Y-42050000D01*
X67537500Y-42380000D01*
G37*
X66997500Y-43560000D02*
X65177500Y-43560000D01*
X66997500Y-43510000D02*
X66997500Y-43560000D01*
X66997500Y-41610000D02*
X66997500Y-42390000D01*
X66997500Y-40440000D02*
X66997500Y-40490000D01*
X65177500Y-43560000D02*
X65177500Y-42560000D01*
X65177500Y-41440000D02*
X65177500Y-40440000D01*
X65177500Y-40440000D02*
X66997500Y-40440000D01*
%TO.C,J9*%
X77410000Y-22255000D02*
X76360000Y-22255000D01*
X77410000Y-19755000D02*
X77410000Y-22255000D01*
X76360000Y-22255000D02*
X76360000Y-23245000D01*
X76240000Y-17785000D02*
X72360000Y-17785000D01*
X71190000Y-22255000D02*
X72240000Y-22255000D01*
X71190000Y-19755000D02*
X71190000Y-22255000D01*
%TO.C,R5*%
X99639564Y-35235000D02*
X99185436Y-35235000D01*
X99639564Y-33765000D02*
X99185436Y-33765000D01*
%TO.C,Q3*%
X67537500Y-53880000D02*
X67297500Y-53550000D01*
X67777500Y-53550000D01*
X67537500Y-53880000D01*
G36*
X67537500Y-53880000D02*
G01*
X67297500Y-53550000D01*
X67777500Y-53550000D01*
X67537500Y-53880000D01*
G37*
X66997500Y-55060000D02*
X65177500Y-55060000D01*
X66997500Y-55010000D02*
X66997500Y-55060000D01*
X66997500Y-53110000D02*
X66997500Y-53890000D01*
X66997500Y-51940000D02*
X66997500Y-51990000D01*
X65177500Y-55060000D02*
X65177500Y-54060000D01*
X65177500Y-52940000D02*
X65177500Y-51940000D01*
X65177500Y-51940000D02*
X66997500Y-51940000D01*
%TO.C,U7*%
X112400000Y-64030000D02*
X112160000Y-63700000D01*
X112640000Y-63700000D01*
X112400000Y-64030000D01*
G36*
X112400000Y-64030000D02*
G01*
X112160000Y-63700000D01*
X112640000Y-63700000D01*
X112400000Y-64030000D01*
G37*
X117060000Y-69060000D02*
X112940000Y-69060000D01*
X117060000Y-68965000D02*
X117060000Y-69060000D01*
X117060000Y-63940000D02*
X117060000Y-64035000D01*
X112940000Y-69060000D02*
X112940000Y-68965000D01*
X112940000Y-64035000D02*
X112940000Y-63940000D01*
X112940000Y-63940000D02*
X117060000Y-63940000D01*
%TO.C,R13*%
X62860436Y-52735000D02*
X63314564Y-52735000D01*
X62860436Y-51265000D02*
X63314564Y-51265000D01*
%TO.C,R32*%
X138350242Y-55022500D02*
X138824758Y-55022500D01*
X138350242Y-53977500D02*
X138824758Y-53977500D01*
%TO.C,R15*%
X62910436Y-64185000D02*
X63364564Y-64185000D01*
X62910436Y-62715000D02*
X63364564Y-62715000D01*
%TO.C,SW2*%
X87100000Y-35650000D02*
X87100000Y-35260000D01*
X87100000Y-32350000D02*
X87100000Y-32740000D01*
X82900000Y-35650000D02*
X87100000Y-35650000D01*
X82900000Y-35260000D02*
X82900000Y-35650000D01*
X82900000Y-32740000D02*
X82900000Y-32350000D01*
X82900000Y-32350000D02*
X87100000Y-32350000D01*
%TO.C,J3*%
X86460000Y-70840000D02*
X86460000Y-68340000D01*
X86460000Y-68340000D02*
X85410000Y-68340000D01*
X81410000Y-72810000D02*
X85290000Y-72810000D01*
X81290000Y-68340000D02*
X81290000Y-67350000D01*
X80240000Y-70840000D02*
X80240000Y-68340000D01*
X80240000Y-68340000D02*
X81290000Y-68340000D01*
%TO.C,U2*%
X126190000Y-45280000D02*
X125860000Y-45520000D01*
X125860000Y-45040000D01*
X126190000Y-45280000D01*
G36*
X126190000Y-45280000D02*
G01*
X125860000Y-45520000D01*
X125860000Y-45040000D01*
X126190000Y-45280000D01*
G37*
X132910000Y-44000000D02*
X132910000Y-40240000D01*
X132910000Y-40240000D02*
X131650000Y-40240000D01*
X126090000Y-44000000D02*
X126090000Y-40240000D01*
X126090000Y-40240000D02*
X127350000Y-40240000D01*
%TO.C,J6*%
X102960000Y-22160000D02*
X101910000Y-22160000D01*
X102960000Y-19660000D02*
X102960000Y-22160000D01*
X101910000Y-22160000D02*
X101910000Y-23150000D01*
X101790000Y-17690000D02*
X97910000Y-17690000D01*
X96740000Y-22160000D02*
X97790000Y-22160000D01*
X96740000Y-19660000D02*
X96740000Y-22160000D01*
%TO.C,C6*%
X138238748Y-44035000D02*
X138761252Y-44035000D01*
X138238748Y-42565000D02*
X138761252Y-42565000D01*
%TO.C,C14*%
X79235000Y-39986252D02*
X79235000Y-39463748D01*
X77765000Y-39986252D02*
X77765000Y-39463748D01*
%TO.C,R14*%
X69735000Y-65814564D02*
X69735000Y-65360436D01*
X68265000Y-65814564D02*
X68265000Y-65360436D01*
%TO.C,C11*%
X104510000Y-42859420D02*
X104510000Y-43140580D01*
X103490000Y-42859420D02*
X103490000Y-43140580D01*
%TO.C,J1*%
X132700000Y-67320000D02*
X123790000Y-67320000D01*
X128415000Y-67610000D02*
X126885000Y-67610000D01*
X123790000Y-67320000D02*
X123790000Y-56000000D01*
X123790000Y-56000000D02*
X132700000Y-56000000D01*
%TO.C,C2*%
X121010000Y-52640580D02*
X121010000Y-52359420D01*
X119990000Y-52640580D02*
X119990000Y-52359420D01*
%TO.C,J2*%
X77960000Y-70840000D02*
X77960000Y-68340000D01*
X77960000Y-68340000D02*
X76910000Y-68340000D01*
X72910000Y-72810000D02*
X76790000Y-72810000D01*
X72790000Y-68340000D02*
X72790000Y-67350000D01*
X71740000Y-70840000D02*
X71740000Y-68340000D01*
X71740000Y-68340000D02*
X72790000Y-68340000D01*
%TO.C,R21*%
X62860436Y-50735000D02*
X63314564Y-50735000D01*
X62860436Y-49265000D02*
X63314564Y-49265000D01*
%TO.C,L1*%
X137660000Y-52860000D02*
X136910000Y-52860000D01*
X137660000Y-48140000D02*
X137660000Y-52860000D01*
X136910000Y-48140000D02*
X137660000Y-48140000D01*
X134090000Y-52860000D02*
X133340000Y-52860000D01*
X133340000Y-52860000D02*
X133340000Y-48140000D01*
X133340000Y-48140000D02*
X134090000Y-48140000D01*
%TO.C,R23*%
X62910436Y-62185000D02*
X63364564Y-62185000D01*
X62910436Y-60715000D02*
X63364564Y-60715000D01*
%TO.C,R9*%
X62860436Y-30235000D02*
X63314564Y-30235000D01*
X62860436Y-28765000D02*
X63314564Y-28765000D01*
%TO.C,R28*%
X112727064Y-71235000D02*
X112272936Y-71235000D01*
X112727064Y-69765000D02*
X112272936Y-69765000D01*
%TO.C,Q1*%
X67312500Y-31380000D02*
X67072500Y-31050000D01*
X67552500Y-31050000D01*
X67312500Y-31380000D01*
G36*
X67312500Y-31380000D02*
G01*
X67072500Y-31050000D01*
X67552500Y-31050000D01*
X67312500Y-31380000D01*
G37*
X66772500Y-32560000D02*
X64952500Y-32560000D01*
X66772500Y-32510000D02*
X66772500Y-32560000D01*
X66772500Y-30610000D02*
X66772500Y-31390000D01*
X66772500Y-29440000D02*
X66772500Y-29490000D01*
X64952500Y-32560000D02*
X64952500Y-31560000D01*
X64952500Y-30440000D02*
X64952500Y-29440000D01*
X64952500Y-29440000D02*
X66772500Y-29440000D01*
%TO.C,R8*%
X69735000Y-31227064D02*
X69735000Y-30772936D01*
X68265000Y-31227064D02*
X68265000Y-30772936D01*
%TO.C,R27*%
X89235000Y-59560436D02*
X89235000Y-60014564D01*
X87765000Y-59560436D02*
X87765000Y-60014564D01*
%TO.C,R30*%
X120735000Y-68727064D02*
X120735000Y-68272936D01*
X119265000Y-68727064D02*
X119265000Y-68272936D01*
%TO.C,D3*%
X93735000Y-60800000D02*
X93735000Y-58515000D01*
X93735000Y-58515000D02*
X92265000Y-58515000D01*
X92265000Y-58515000D02*
X92265000Y-60800000D01*
%TO.C,R24*%
X132235000Y-23727064D02*
X132235000Y-23272936D01*
X130765000Y-23727064D02*
X130765000Y-23272936D01*
%TO.C,R18*%
X69822500Y-37139564D02*
X69822500Y-36685436D01*
X68352500Y-37139564D02*
X68352500Y-36685436D01*
%TD*%
%LPC*%
%TO.C,JP2*%
G36*
X100250000Y-39550000D02*
G01*
X101750000Y-39550000D01*
X101750000Y-41050000D01*
X100250000Y-41050000D01*
X100250000Y-39550000D01*
G37*
%TD*%
D13*
%TO.C,J15*%
X133925000Y-32000000D03*
X133925000Y-31500000D03*
X133925000Y-31000000D03*
X133925000Y-30500000D03*
X133925000Y-30000000D03*
X133925000Y-29500000D03*
X133925000Y-28500000D03*
X133925000Y-28000000D03*
X133925000Y-27500000D03*
X133925000Y-27000000D03*
X133925000Y-26500000D03*
X133925000Y-26000000D03*
D14*
X135225000Y-25900000D03*
D13*
X135225000Y-26750000D03*
X135225000Y-27250000D03*
X135225000Y-27750000D03*
X135225000Y-28250000D03*
X135225000Y-28750000D03*
X135225000Y-29250000D03*
X135225000Y-29750000D03*
X135225000Y-30250000D03*
X135225000Y-30750000D03*
X135225000Y-31250000D03*
D14*
X135225000Y-32100000D03*
D15*
X134335000Y-33320000D03*
D16*
X139695000Y-33320000D03*
D15*
X134335000Y-24680000D03*
D16*
X139695000Y-24680000D03*
%TD*%
D17*
%TO.C,R25*%
X129500000Y-22587500D03*
X129500000Y-24412500D03*
%TD*%
D18*
%TO.C,C10*%
X132000000Y-52500000D03*
X130450000Y-52500000D03*
%TD*%
D19*
%TO.C,R2*%
X136000000Y-54500000D03*
X134175000Y-54500000D03*
%TD*%
D20*
%TO.C,Q7*%
X64950000Y-48500000D03*
X67225000Y-47550000D03*
X67225000Y-49450000D03*
%TD*%
D21*
%TO.C,R29*%
X108587500Y-66500000D03*
X110412500Y-66500000D03*
%TD*%
%TO.C,R7*%
X112087500Y-62500000D03*
X113912500Y-62500000D03*
%TD*%
D22*
%TO.C,C5*%
X139450000Y-41300000D03*
X137550000Y-41300000D03*
%TD*%
D23*
%TO.C,J12*%
X59000000Y-49000000D03*
X59000000Y-53200000D03*
X53500000Y-49000000D03*
D24*
X53500000Y-53200000D03*
D25*
X46200000Y-51100000D03*
%TD*%
D17*
%TO.C,R22*%
X69000000Y-58587500D03*
X69000000Y-60412500D03*
%TD*%
D23*
%TO.C,J11*%
X59000000Y-37500000D03*
X59000000Y-41700000D03*
X53500000Y-37500000D03*
D24*
X53500000Y-41700000D03*
D25*
X46200000Y-39600000D03*
%TD*%
D26*
%TO.C,C8*%
X134300000Y-45850000D03*
X134300000Y-44300000D03*
%TD*%
D27*
%TO.C,F1*%
X119500000Y-55362500D03*
X119500000Y-59637500D03*
%TD*%
D28*
%TO.C,R3*%
X80500000Y-55500000D03*
X80500000Y-53675000D03*
%TD*%
D18*
%TO.C,C15*%
X99775000Y-36500000D03*
X98225000Y-36500000D03*
%TD*%
D29*
%TO.C,U3*%
X129500000Y-26500000D03*
X130000000Y-26500000D03*
D30*
X130500000Y-26475000D03*
D29*
X131000000Y-26500000D03*
X131500000Y-26500000D03*
X131500000Y-27275000D03*
X131000000Y-27275000D03*
D31*
X130500000Y-27237500D03*
D29*
X130000000Y-27275000D03*
X129500000Y-27275000D03*
%TD*%
D32*
%TO.C,U1*%
X128000000Y-50690000D03*
X128000000Y-51960000D03*
X128000000Y-53230000D03*
X128000000Y-54500000D03*
X122600000Y-54500000D03*
X122600000Y-53230000D03*
X122600000Y-51960000D03*
X122600000Y-50690000D03*
D33*
X125300000Y-52595000D03*
%TD*%
D21*
%TO.C,R1*%
X130675000Y-54500000D03*
X132500000Y-54500000D03*
%TD*%
D20*
%TO.C,Q4*%
X64862500Y-65400000D03*
X67137500Y-64450000D03*
X67137500Y-66350000D03*
%TD*%
%TO.C,Q8*%
X64862500Y-59500000D03*
X67137500Y-58550000D03*
X67137500Y-60450000D03*
%TD*%
D17*
%TO.C,R10*%
X69087500Y-41087500D03*
X69087500Y-42912500D03*
%TD*%
D34*
%TO.C,H1*%
X137500000Y-19500000D03*
%TD*%
D35*
%TO.C,C3*%
X119000000Y-52520000D03*
X119000000Y-53480000D03*
%TD*%
D36*
%TO.C,C9*%
X134300000Y-38350000D03*
X134300000Y-40250000D03*
%TD*%
D23*
%TO.C,J13*%
X58975000Y-60500000D03*
X58975000Y-64700000D03*
X53475000Y-60500000D03*
D24*
X53475000Y-64700000D03*
D25*
X46175000Y-62600000D03*
%TD*%
D17*
%TO.C,R20*%
X69087500Y-47587500D03*
X69087500Y-49412500D03*
%TD*%
D28*
%TO.C,R6*%
X104000000Y-48912500D03*
X104000000Y-47087500D03*
%TD*%
D37*
%TO.C,J8*%
X80000000Y-18595000D03*
X85600000Y-18595000D03*
D38*
X81300000Y-22470000D03*
X82300000Y-22470000D03*
X83300000Y-22470000D03*
X84300000Y-22470000D03*
%TD*%
D28*
%TO.C,R4*%
X78500000Y-55500000D03*
X78500000Y-53675000D03*
%TD*%
%TO.C,R26*%
X91000000Y-60700000D03*
X91000000Y-58875000D03*
%TD*%
D39*
%TO.C,J5*%
X103150000Y-72000000D03*
X97550000Y-72000000D03*
D40*
X101850000Y-68125000D03*
X100850000Y-68125000D03*
X99850000Y-68125000D03*
X98850000Y-68125000D03*
%TD*%
D20*
%TO.C,Q5*%
X64725000Y-25962500D03*
X67000000Y-25012500D03*
X67000000Y-26912500D03*
%TD*%
D18*
%TO.C,C1*%
X132050000Y-50775000D03*
X130500000Y-50775000D03*
%TD*%
D17*
%TO.C,R16*%
X69000000Y-25087500D03*
X69000000Y-26912500D03*
%TD*%
D41*
%TO.C,U5*%
X105925000Y-43137500D03*
X106575000Y-43137500D03*
X107225000Y-43137500D03*
X107875000Y-43137500D03*
X108525000Y-43137500D03*
X109175000Y-43137500D03*
X109825000Y-43137500D03*
X110475000Y-43137500D03*
X111125000Y-43137500D03*
X111775000Y-43137500D03*
X112425000Y-43137500D03*
X113075000Y-43137500D03*
X113075000Y-48862500D03*
X112425000Y-48862500D03*
X111775000Y-48862500D03*
X111125000Y-48862500D03*
X110475000Y-48862500D03*
X109825000Y-48862500D03*
X109175000Y-48862500D03*
X108525000Y-48862500D03*
X107875000Y-48862500D03*
X107225000Y-48862500D03*
X106575000Y-48862500D03*
X105925000Y-48862500D03*
%TD*%
D42*
%TO.C,D4*%
X86500000Y-60787500D03*
X86500000Y-59212500D03*
%TD*%
D22*
%TO.C,C4*%
X139450000Y-39300000D03*
X137550000Y-39300000D03*
%TD*%
D23*
%TO.C,J10*%
X59000000Y-26100000D03*
X59000000Y-30300000D03*
X53500000Y-26100000D03*
D24*
X53500000Y-30300000D03*
D25*
X46200000Y-28200000D03*
%TD*%
D43*
%TO.C,U6*%
X96650000Y-38350000D03*
X96650000Y-52350000D03*
X82650000Y-52350000D03*
X82650000Y-38350000D03*
D44*
X91300000Y-47000000D03*
X91300000Y-45350000D03*
X91300000Y-43700000D03*
X89650000Y-47000000D03*
X89650000Y-45350000D03*
X89650000Y-43700000D03*
X88000000Y-47000000D03*
X88000000Y-45350000D03*
D45*
X88000000Y-43700000D03*
D46*
X83700000Y-38350000D03*
X84550000Y-38350000D03*
X85400000Y-38350000D03*
X86250000Y-38350000D03*
X87100000Y-38350000D03*
X87950000Y-38350000D03*
X88800000Y-38350000D03*
X89650000Y-38350000D03*
X90500000Y-38350000D03*
X91350000Y-38350000D03*
X92200000Y-38350000D03*
X93050000Y-38350000D03*
X93900000Y-38350000D03*
X94750000Y-38350000D03*
X95600000Y-38350000D03*
D47*
X96650000Y-39400000D03*
X96650000Y-40250000D03*
X96650000Y-41100000D03*
X96650000Y-41950000D03*
X96650000Y-42800000D03*
X96650000Y-43650000D03*
X96650000Y-44500000D03*
X96650000Y-45350000D03*
X96650000Y-46200000D03*
X96650000Y-47050000D03*
X96650000Y-47900000D03*
X96650000Y-48750000D03*
X96650000Y-49600000D03*
X96650000Y-50450000D03*
X96650000Y-51300000D03*
D46*
X95600000Y-52350000D03*
X94750000Y-52350000D03*
X93900000Y-52350000D03*
X93050000Y-52350000D03*
X92200000Y-52350000D03*
X91350000Y-52350000D03*
X90500000Y-52350000D03*
X89650000Y-52350000D03*
X88800000Y-52350000D03*
X87950000Y-52350000D03*
X87100000Y-52350000D03*
X86250000Y-52350000D03*
X85400000Y-52350000D03*
X84550000Y-52350000D03*
X83700000Y-52350000D03*
D47*
X82650000Y-51300000D03*
X82650000Y-50450000D03*
X82650000Y-49600000D03*
X82650000Y-48750000D03*
X82650000Y-47900000D03*
X82650000Y-47050000D03*
X82650000Y-46200000D03*
X82650000Y-45350000D03*
X82650000Y-44500000D03*
X82650000Y-43650000D03*
X82650000Y-42800000D03*
X82650000Y-41950000D03*
X82650000Y-41100000D03*
X82650000Y-40250000D03*
X82650000Y-39400000D03*
%TD*%
D19*
%TO.C,R11*%
X64000000Y-40500000D03*
X62175000Y-40500000D03*
%TD*%
D34*
%TO.C,H4*%
X41400000Y-71000000D03*
%TD*%
D48*
%TO.C,C13*%
X116225000Y-63000000D03*
X117775000Y-63000000D03*
%TD*%
D17*
%TO.C,R31*%
X120000000Y-63587500D03*
X120000000Y-65412500D03*
%TD*%
D49*
%TO.C,C12*%
X80500000Y-38950000D03*
X80500000Y-40500000D03*
%TD*%
D50*
%TO.C,JP2*%
X101000000Y-41600000D03*
D51*
X101000000Y-40300000D03*
D52*
X101000000Y-39000000D03*
%TD*%
D17*
%TO.C,R12*%
X69087500Y-52587500D03*
X69087500Y-54412500D03*
%TD*%
D19*
%TO.C,R19*%
X64000000Y-38500000D03*
X62175000Y-38500000D03*
%TD*%
D37*
%TO.C,J7*%
X88500000Y-18595000D03*
X94100000Y-18595000D03*
D38*
X89800000Y-22470000D03*
X90800000Y-22470000D03*
X91800000Y-22470000D03*
X92800000Y-22470000D03*
%TD*%
D53*
%TO.C,SW1*%
X92275000Y-34000000D03*
X96725000Y-34000000D03*
%TD*%
D20*
%TO.C,Q6*%
X64950000Y-37000000D03*
X67225000Y-36050000D03*
X67225000Y-37950000D03*
%TD*%
D39*
%TO.C,J4*%
X94650000Y-72000000D03*
X89050000Y-72000000D03*
D40*
X93350000Y-68125000D03*
X92350000Y-68125000D03*
X91350000Y-68125000D03*
X90350000Y-68125000D03*
%TD*%
D19*
%TO.C,R17*%
X64000000Y-27500000D03*
X62175000Y-27500000D03*
%TD*%
D22*
%TO.C,C7*%
X139400000Y-45300000D03*
X137500000Y-45300000D03*
%TD*%
D20*
%TO.C,Q2*%
X64950000Y-42000000D03*
X67225000Y-41050000D03*
X67225000Y-42950000D03*
%TD*%
D37*
%TO.C,J9*%
X71500000Y-18595000D03*
X77100000Y-18595000D03*
D38*
X72800000Y-22470000D03*
X73800000Y-22470000D03*
X74800000Y-22470000D03*
X75800000Y-22470000D03*
%TD*%
D21*
%TO.C,R5*%
X98500000Y-34500000D03*
X100325000Y-34500000D03*
%TD*%
D20*
%TO.C,Q3*%
X64950000Y-53500000D03*
X67225000Y-52550000D03*
X67225000Y-54450000D03*
%TD*%
D54*
%TO.C,U7*%
X117475000Y-64595000D03*
X117475000Y-65865000D03*
X117475000Y-67135000D03*
X117475000Y-68405000D03*
X112525000Y-68405000D03*
X112525000Y-67135000D03*
X112525000Y-65865000D03*
X112525000Y-64595000D03*
%TD*%
D19*
%TO.C,R13*%
X64000000Y-52000000D03*
X62175000Y-52000000D03*
%TD*%
D55*
%TO.C,R32*%
X139412500Y-54500000D03*
X137762500Y-54500000D03*
%TD*%
D19*
%TO.C,R15*%
X64050000Y-63450000D03*
X62225000Y-63450000D03*
%TD*%
D56*
%TO.C,SW2*%
X87225000Y-34000000D03*
X82775000Y-34000000D03*
%TD*%
D39*
%TO.C,J3*%
X86150000Y-72000000D03*
X80550000Y-72000000D03*
D40*
X84850000Y-68125000D03*
X83850000Y-68125000D03*
X82850000Y-68125000D03*
X81850000Y-68125000D03*
%TD*%
D57*
%TO.C,U2*%
X131800000Y-45300000D03*
D58*
X129500000Y-39000000D03*
D57*
X129500000Y-45300000D03*
X127200000Y-45300000D03*
%TD*%
D37*
%TO.C,J6*%
X97050000Y-18500000D03*
X102650000Y-18500000D03*
D38*
X98350000Y-22375000D03*
X99350000Y-22375000D03*
X100350000Y-22375000D03*
X101350000Y-22375000D03*
%TD*%
D22*
%TO.C,C6*%
X139450000Y-43300000D03*
X137550000Y-43300000D03*
%TD*%
D36*
%TO.C,C14*%
X78500000Y-38775000D03*
X78500000Y-40675000D03*
%TD*%
D34*
%TO.C,H2*%
X137500000Y-71000000D03*
%TD*%
D17*
%TO.C,R14*%
X69000000Y-64675000D03*
X69000000Y-66500000D03*
%TD*%
D26*
%TO.C,C11*%
X104000000Y-43775000D03*
X104000000Y-42225000D03*
%TD*%
D59*
%TO.C,J1*%
X125110000Y-59690000D03*
X127650000Y-60960000D03*
X125110000Y-62230000D03*
D60*
X127650000Y-63500000D03*
D61*
X134000000Y-57910000D03*
X134000000Y-65410000D03*
%TD*%
D49*
%TO.C,C2*%
X120500000Y-51725000D03*
X120500000Y-53275000D03*
%TD*%
D39*
%TO.C,J2*%
X77650000Y-72000000D03*
X72050000Y-72000000D03*
D40*
X76350000Y-68125000D03*
X75350000Y-68125000D03*
X74350000Y-68125000D03*
X73350000Y-68125000D03*
%TD*%
D19*
%TO.C,R21*%
X64000000Y-50000000D03*
X62175000Y-50000000D03*
%TD*%
D62*
%TO.C,L1*%
X135500000Y-48725000D03*
X135500000Y-52275000D03*
%TD*%
D19*
%TO.C,R23*%
X64050000Y-61450000D03*
X62225000Y-61450000D03*
%TD*%
D34*
%TO.C,H3*%
X41400000Y-19500000D03*
%TD*%
D19*
%TO.C,R9*%
X64000000Y-29500000D03*
X62175000Y-29500000D03*
%TD*%
D21*
%TO.C,R28*%
X111587500Y-70500000D03*
X113412500Y-70500000D03*
%TD*%
D20*
%TO.C,Q1*%
X64725000Y-31000000D03*
X67000000Y-30050000D03*
X67000000Y-31950000D03*
%TD*%
D17*
%TO.C,R8*%
X69000000Y-30087500D03*
X69000000Y-31912500D03*
%TD*%
D28*
%TO.C,R27*%
X88500000Y-60700000D03*
X88500000Y-58875000D03*
%TD*%
D17*
%TO.C,R30*%
X120000000Y-67587500D03*
X120000000Y-69412500D03*
%TD*%
D42*
%TO.C,D3*%
X93000000Y-60787500D03*
X93000000Y-59212500D03*
%TD*%
D17*
%TO.C,R24*%
X131500000Y-22587500D03*
X131500000Y-24412500D03*
%TD*%
%TO.C,R18*%
X69087500Y-36000000D03*
X69087500Y-37825000D03*
%TD*%
%LPD*%
M02*
