%TF.GenerationSoftware,KiCad,Pcbnew,10.0.1-1.fc44app2*%
%TF.CreationDate,2026-05-24T16:27:29-05:00*%
%TF.ProjectId,VEXBridge,56455842-7269-4646-9765-2e6b69636164,1.0*%
%TF.SameCoordinates,Original*%
%TF.FileFunction,Paste,Top*%
%TF.FilePolarity,Positive*%
%FSLAX46Y46*%
G04 Gerber Fmt 4.6, Leading zero omitted, Abs format (unit mm)*
G04 Created by KiCad (PCBNEW 10.0.1-1.fc44app2) date 2026-05-24 16:27:29*
%MOMM*%
%LPD*%
G01*
G04 APERTURE LIST*
G04 Aperture macros list*
%AMRoundRect*
0 Rectangle with rounded corners*
0 $1 Rounding radius*
0 $2 $3 $4 $5 $6 $7 $8 $9 X,Y pos of 4 corners*
0 Add a 4 corners polygon primitive as box body*
4,1,4,$2,$3,$4,$5,$6,$7,$8,$9,$2,$3,0*
0 Add four circle primitives for the rounded corners*
1,1,$1+$1,$2,$3*
1,1,$1+$1,$4,$5*
1,1,$1+$1,$6,$7*
1,1,$1+$1,$8,$9*
0 Add four rect primitives between the rounded corners*
20,1,$1+$1,$2,$3,$4,$5,0*
20,1,$1+$1,$4,$5,$6,$7,0*
20,1,$1+$1,$6,$7,$8,$9,0*
20,1,$1+$1,$8,$9,$2,$3,0*%
%AMOutline5P*
0 Free polygon, 5 corners , with rotation*
0 The origin of the aperture is its center*
0 number of corners: always 5*
0 $1 to $10 corner X, Y*
0 $11 Rotation angle, in degrees counterclockwise*
0 create outline with 5 corners*
4,1,5,$1,$2,$3,$4,$5,$6,$7,$8,$9,$10,$1,$2,$11*%
%AMOutline6P*
0 Free polygon, 6 corners , with rotation*
0 The origin of the aperture is its center*
0 number of corners: always 6*
0 $1 to $12 corner X, Y*
0 $13 Rotation angle, in degrees counterclockwise*
0 create outline with 6 corners*
4,1,6,$1,$2,$3,$4,$5,$6,$7,$8,$9,$10,$11,$12,$1,$2,$13*%
%AMOutline7P*
0 Free polygon, 7 corners , with rotation*
0 The origin of the aperture is its center*
0 number of corners: always 7*
0 $1 to $14 corner X, Y*
0 $15 Rotation angle, in degrees counterclockwise*
0 create outline with 7 corners*
4,1,7,$1,$2,$3,$4,$5,$6,$7,$8,$9,$10,$11,$12,$13,$14,$1,$2,$15*%
%AMOutline8P*
0 Free polygon, 8 corners , with rotation*
0 The origin of the aperture is its center*
0 number of corners: always 8*
0 $1 to $16 corner X, Y*
0 $17 Rotation angle, in degrees counterclockwise*
0 create outline with 8 corners*
4,1,8,$1,$2,$3,$4,$5,$6,$7,$8,$9,$10,$11,$12,$13,$14,$15,$16,$1,$2,$17*%
G04 Aperture macros list end*
%ADD10RoundRect,0.250000X0.450000X-0.262500X0.450000X0.262500X-0.450000X0.262500X-0.450000X-0.262500X0*%
%ADD11RoundRect,0.075000X0.275000X-0.075000X0.275000X0.075000X-0.275000X0.075000X-0.275000X-0.075000X0*%
%ADD12RoundRect,0.175000X0.175000X-0.325000X0.175000X0.325000X-0.175000X0.325000X-0.175000X-0.325000X0*%
%ADD13RoundRect,0.225000X-0.225000X-0.250000X0.225000X-0.250000X0.225000X0.250000X-0.225000X0.250000X0*%
%ADD14RoundRect,0.250000X-0.262500X-0.450000X0.262500X-0.450000X0.262500X0.450000X-0.262500X0.450000X0*%
%ADD15RoundRect,0.150000X0.512500X0.150000X-0.512500X0.150000X-0.512500X-0.150000X0.512500X-0.150000X0*%
%ADD16RoundRect,0.250000X0.262500X0.450000X-0.262500X0.450000X-0.262500X-0.450000X0.262500X-0.450000X0*%
%ADD17RoundRect,0.250000X-0.250000X-0.475000X0.250000X-0.475000X0.250000X0.475000X-0.250000X0.475000X0*%
%ADD18RoundRect,0.225000X-0.250000X0.225000X-0.250000X-0.225000X0.250000X-0.225000X0.250000X0.225000X0*%
%ADD19RoundRect,0.250000X1.450000X-0.312500X1.450000X0.312500X-1.450000X0.312500X-1.450000X-0.312500X0*%
%ADD20RoundRect,0.250000X-0.450000X0.262500X-0.450000X-0.262500X0.450000X-0.262500X0.450000X0.262500X0*%
%ADD21RoundRect,0.062500X0.062500X-0.250000X0.062500X0.250000X-0.062500X0.250000X-0.062500X-0.250000X0*%
%ADD22RoundRect,0.112500X0.112500X-0.237500X0.112500X0.237500X-0.112500X0.237500X-0.112500X-0.237500X0*%
%ADD23RoundRect,0.112500X0.112500X-0.175000X0.112500X0.175000X-0.112500X0.175000X-0.112500X-0.175000X0*%
%ADD24R,2.600000X3.100000*%
%ADD25R,1.550000X0.600000*%
%ADD26RoundRect,0.140000X0.170000X-0.140000X0.170000X0.140000X-0.170000X0.140000X-0.170000X-0.140000X0*%
%ADD27RoundRect,0.250000X0.475000X-0.250000X0.475000X0.250000X-0.475000X0.250000X-0.475000X-0.250000X0*%
%ADD28RoundRect,0.150000X0.150000X0.625000X-0.150000X0.625000X-0.150000X-0.625000X0.150000X-0.625000X0*%
%ADD29RoundRect,0.250000X0.350000X0.650000X-0.350000X0.650000X-0.350000X-0.650000X0.350000X-0.650000X0*%
%ADD30RoundRect,0.150000X-0.150000X-0.625000X0.150000X-0.625000X0.150000X0.625000X-0.150000X0.625000X0*%
%ADD31RoundRect,0.250000X-0.350000X-0.650000X0.350000X-0.650000X0.350000X0.650000X-0.350000X0.650000X0*%
%ADD32RoundRect,0.100000X0.100000X-0.637500X0.100000X0.637500X-0.100000X0.637500X-0.100000X-0.637500X0*%
%ADD33RoundRect,0.218750X-0.256250X0.218750X-0.256250X-0.218750X0.256250X-0.218750X0.256250X0.218750X0*%
%ADD34R,0.800000X0.400000*%
%ADD35R,0.400000X0.800000*%
%ADD36Outline5P,-0.600000X0.204000X-0.204000X0.600000X0.600000X0.600000X0.600000X-0.600000X-0.600000X-0.600000X0.000000*%
%ADD37R,1.200000X1.200000*%
%ADD38R,0.800000X0.800000*%
%ADD39RoundRect,0.225000X0.225000X0.250000X-0.225000X0.250000X-0.225000X-0.250000X0.225000X-0.250000X0*%
%ADD40RoundRect,0.225000X0.250000X-0.225000X0.250000X0.225000X-0.250000X0.225000X-0.250000X-0.225000X0*%
%ADD41RoundRect,0.250000X0.275000X0.750000X-0.275000X0.750000X-0.275000X-0.750000X0.275000X-0.750000X0*%
%ADD42RoundRect,0.150000X-0.825000X-0.150000X0.825000X-0.150000X0.825000X0.150000X-0.825000X0.150000X0*%
%ADD43RoundRect,0.200000X-0.200000X-0.275000X0.200000X-0.275000X0.200000X0.275000X-0.200000X0.275000X0*%
%ADD44RoundRect,0.250000X-0.275000X-0.750000X0.275000X-0.750000X0.275000X0.750000X-0.275000X0.750000X0*%
%ADD45RoundRect,0.375000X0.375000X-0.625000X0.375000X0.625000X-0.375000X0.625000X-0.375000X-0.625000X0*%
%ADD46RoundRect,0.500000X1.400000X-0.500000X1.400000X0.500000X-1.400000X0.500000X-1.400000X-0.500000X0*%
%ADD47RoundRect,0.249999X0.900001X-0.450001X0.900001X0.450001X-0.900001X0.450001X-0.900001X-0.450001X0*%
G04 APERTURE END LIST*
D10*
%TO.C,R25*%
X129500000Y-24412500D03*
X129500000Y-22587500D03*
%TD*%
D11*
%TO.C,J15*%
X133925000Y-32000000D03*
X133925000Y-31500000D03*
X133925000Y-31000000D03*
X133925000Y-30500000D03*
X133925000Y-30000000D03*
X133925000Y-29500000D03*
X133925000Y-28500000D03*
X133925000Y-28000000D03*
X133925000Y-27500000D03*
X133925000Y-27000000D03*
X133925000Y-26500000D03*
X133925000Y-26000000D03*
D12*
X135225000Y-25900000D03*
D11*
X135225000Y-26750000D03*
X135225000Y-27250000D03*
X135225000Y-27750000D03*
X135225000Y-28250000D03*
X135225000Y-28750000D03*
X135225000Y-29250000D03*
X135225000Y-29750000D03*
X135225000Y-30250000D03*
X135225000Y-30750000D03*
X135225000Y-31250000D03*
D12*
X135225000Y-32100000D03*
%TD*%
D13*
%TO.C,C10*%
X130450000Y-52500000D03*
X132000000Y-52500000D03*
%TD*%
D14*
%TO.C,R2*%
X134175000Y-54500000D03*
X136000000Y-54500000D03*
%TD*%
D15*
%TO.C,Q7*%
X67225000Y-49450000D03*
X67225000Y-47550000D03*
X64950000Y-48500000D03*
%TD*%
D16*
%TO.C,R29*%
X110412500Y-66500000D03*
X108587500Y-66500000D03*
%TD*%
%TO.C,R7*%
X113912500Y-62500000D03*
X112087500Y-62500000D03*
%TD*%
D17*
%TO.C,C5*%
X137550000Y-41300000D03*
X139450000Y-41300000D03*
%TD*%
D10*
%TO.C,R22*%
X69000000Y-60412500D03*
X69000000Y-58587500D03*
%TD*%
D18*
%TO.C,C8*%
X134300000Y-44300000D03*
X134300000Y-45850000D03*
%TD*%
D19*
%TO.C,F1*%
X119500000Y-59637500D03*
X119500000Y-55362500D03*
%TD*%
D20*
%TO.C,R3*%
X80500000Y-53675000D03*
X80500000Y-55500000D03*
%TD*%
D13*
%TO.C,C15*%
X98225000Y-36500000D03*
X99775000Y-36500000D03*
%TD*%
D21*
%TO.C,U3*%
X129500000Y-27275000D03*
X130000000Y-27275000D03*
D22*
X130500000Y-27237500D03*
D21*
X131000000Y-27275000D03*
X131500000Y-27275000D03*
X131500000Y-26500000D03*
X131000000Y-26500000D03*
D23*
X130500000Y-26475000D03*
D21*
X130000000Y-26500000D03*
X129500000Y-26500000D03*
%TD*%
D24*
%TO.C,U1*%
X125300000Y-52595000D03*
D25*
X122600000Y-50690000D03*
X122600000Y-51960000D03*
X122600000Y-53230000D03*
X122600000Y-54500000D03*
X128000000Y-54500000D03*
X128000000Y-53230000D03*
X128000000Y-51960000D03*
X128000000Y-50690000D03*
%TD*%
D16*
%TO.C,R1*%
X132500000Y-54500000D03*
X130675000Y-54500000D03*
%TD*%
D15*
%TO.C,Q4*%
X67137500Y-66350000D03*
X67137500Y-64450000D03*
X64862500Y-65400000D03*
%TD*%
%TO.C,Q8*%
X67137500Y-60450000D03*
X67137500Y-58550000D03*
X64862500Y-59500000D03*
%TD*%
D10*
%TO.C,R10*%
X69087500Y-42912500D03*
X69087500Y-41087500D03*
%TD*%
D26*
%TO.C,C3*%
X119000000Y-53480000D03*
X119000000Y-52520000D03*
%TD*%
D27*
%TO.C,C9*%
X134300000Y-40250000D03*
X134300000Y-38350000D03*
%TD*%
D10*
%TO.C,R20*%
X69087500Y-49412500D03*
X69087500Y-47587500D03*
%TD*%
D20*
%TO.C,R6*%
X104000000Y-47087500D03*
X104000000Y-48912500D03*
%TD*%
D28*
%TO.C,J8*%
X84300000Y-22470000D03*
X83300000Y-22470000D03*
X82300000Y-22470000D03*
X81300000Y-22470000D03*
D29*
X85600000Y-18595000D03*
X80000000Y-18595000D03*
%TD*%
D20*
%TO.C,R4*%
X78500000Y-53675000D03*
X78500000Y-55500000D03*
%TD*%
%TO.C,R26*%
X91000000Y-58875000D03*
X91000000Y-60700000D03*
%TD*%
D30*
%TO.C,J5*%
X98850000Y-68125000D03*
X99850000Y-68125000D03*
X100850000Y-68125000D03*
X101850000Y-68125000D03*
D31*
X97550000Y-72000000D03*
X103150000Y-72000000D03*
%TD*%
D15*
%TO.C,Q5*%
X67000000Y-26912500D03*
X67000000Y-25012500D03*
X64725000Y-25962500D03*
%TD*%
D13*
%TO.C,C1*%
X130500000Y-50775000D03*
X132050000Y-50775000D03*
%TD*%
D10*
%TO.C,R16*%
X69000000Y-26912500D03*
X69000000Y-25087500D03*
%TD*%
D32*
%TO.C,U5*%
X105925000Y-48862500D03*
X106575000Y-48862500D03*
X107225000Y-48862500D03*
X107875000Y-48862500D03*
X108525000Y-48862500D03*
X109175000Y-48862500D03*
X109825000Y-48862500D03*
X110475000Y-48862500D03*
X111125000Y-48862500D03*
X111775000Y-48862500D03*
X112425000Y-48862500D03*
X113075000Y-48862500D03*
X113075000Y-43137500D03*
X112425000Y-43137500D03*
X111775000Y-43137500D03*
X111125000Y-43137500D03*
X110475000Y-43137500D03*
X109825000Y-43137500D03*
X109175000Y-43137500D03*
X108525000Y-43137500D03*
X107875000Y-43137500D03*
X107225000Y-43137500D03*
X106575000Y-43137500D03*
X105925000Y-43137500D03*
%TD*%
D33*
%TO.C,D4*%
X86500000Y-59212500D03*
X86500000Y-60787500D03*
%TD*%
D17*
%TO.C,C4*%
X137550000Y-39300000D03*
X139450000Y-39300000D03*
%TD*%
D34*
%TO.C,U6*%
X82650000Y-39400000D03*
X82650000Y-40250000D03*
X82650000Y-41100000D03*
X82650000Y-41950000D03*
X82650000Y-42800000D03*
X82650000Y-43650000D03*
X82650000Y-44500000D03*
X82650000Y-45350000D03*
X82650000Y-46200000D03*
X82650000Y-47050000D03*
X82650000Y-47900000D03*
X82650000Y-48750000D03*
X82650000Y-49600000D03*
X82650000Y-50450000D03*
X82650000Y-51300000D03*
D35*
X83700000Y-52350000D03*
X84550000Y-52350000D03*
X85400000Y-52350000D03*
X86250000Y-52350000D03*
X87100000Y-52350000D03*
X87950000Y-52350000D03*
X88800000Y-52350000D03*
X89650000Y-52350000D03*
X90500000Y-52350000D03*
X91350000Y-52350000D03*
X92200000Y-52350000D03*
X93050000Y-52350000D03*
X93900000Y-52350000D03*
X94750000Y-52350000D03*
X95600000Y-52350000D03*
D34*
X96650000Y-51300000D03*
X96650000Y-50450000D03*
X96650000Y-49600000D03*
X96650000Y-48750000D03*
X96650000Y-47900000D03*
X96650000Y-47050000D03*
X96650000Y-46200000D03*
X96650000Y-45350000D03*
X96650000Y-44500000D03*
X96650000Y-43650000D03*
X96650000Y-42800000D03*
X96650000Y-41950000D03*
X96650000Y-41100000D03*
X96650000Y-40250000D03*
X96650000Y-39400000D03*
D35*
X95600000Y-38350000D03*
X94750000Y-38350000D03*
X93900000Y-38350000D03*
X93050000Y-38350000D03*
X92200000Y-38350000D03*
X91350000Y-38350000D03*
X90500000Y-38350000D03*
X89650000Y-38350000D03*
X88800000Y-38350000D03*
X87950000Y-38350000D03*
X87100000Y-38350000D03*
X86250000Y-38350000D03*
X85400000Y-38350000D03*
X84550000Y-38350000D03*
X83700000Y-38350000D03*
D36*
X88000000Y-43700000D03*
D37*
X88000000Y-45350000D03*
X88000000Y-47000000D03*
X89650000Y-43700000D03*
X89650000Y-45350000D03*
X89650000Y-47000000D03*
X91300000Y-43700000D03*
X91300000Y-45350000D03*
X91300000Y-47000000D03*
D38*
X82650000Y-38350000D03*
X82650000Y-52350000D03*
X96650000Y-52350000D03*
X96650000Y-38350000D03*
%TD*%
D14*
%TO.C,R11*%
X62175000Y-40500000D03*
X64000000Y-40500000D03*
%TD*%
D39*
%TO.C,C13*%
X117775000Y-63000000D03*
X116225000Y-63000000D03*
%TD*%
D10*
%TO.C,R31*%
X120000000Y-65412500D03*
X120000000Y-63587500D03*
%TD*%
D40*
%TO.C,C12*%
X80500000Y-40500000D03*
X80500000Y-38950000D03*
%TD*%
D10*
%TO.C,R12*%
X69087500Y-54412500D03*
X69087500Y-52587500D03*
%TD*%
D14*
%TO.C,R19*%
X62175000Y-38500000D03*
X64000000Y-38500000D03*
%TD*%
D28*
%TO.C,J7*%
X92800000Y-22470000D03*
X91800000Y-22470000D03*
X90800000Y-22470000D03*
X89800000Y-22470000D03*
D29*
X94100000Y-18595000D03*
X88500000Y-18595000D03*
%TD*%
D41*
%TO.C,SW1*%
X96725000Y-34000000D03*
X92275000Y-34000000D03*
%TD*%
D15*
%TO.C,Q6*%
X67225000Y-37950000D03*
X67225000Y-36050000D03*
X64950000Y-37000000D03*
%TD*%
D30*
%TO.C,J4*%
X90350000Y-68125000D03*
X91350000Y-68125000D03*
X92350000Y-68125000D03*
X93350000Y-68125000D03*
D31*
X89050000Y-72000000D03*
X94650000Y-72000000D03*
%TD*%
D14*
%TO.C,R17*%
X62175000Y-27500000D03*
X64000000Y-27500000D03*
%TD*%
D17*
%TO.C,C7*%
X137500000Y-45300000D03*
X139400000Y-45300000D03*
%TD*%
D15*
%TO.C,Q2*%
X67225000Y-42950000D03*
X67225000Y-41050000D03*
X64950000Y-42000000D03*
%TD*%
D28*
%TO.C,J9*%
X75800000Y-22470000D03*
X74800000Y-22470000D03*
X73800000Y-22470000D03*
X72800000Y-22470000D03*
D29*
X77100000Y-18595000D03*
X71500000Y-18595000D03*
%TD*%
D16*
%TO.C,R5*%
X100325000Y-34500000D03*
X98500000Y-34500000D03*
%TD*%
D15*
%TO.C,Q3*%
X67225000Y-54450000D03*
X67225000Y-52550000D03*
X64950000Y-53500000D03*
%TD*%
D42*
%TO.C,U7*%
X112525000Y-64595000D03*
X112525000Y-65865000D03*
X112525000Y-67135000D03*
X112525000Y-68405000D03*
X117475000Y-68405000D03*
X117475000Y-67135000D03*
X117475000Y-65865000D03*
X117475000Y-64595000D03*
%TD*%
D14*
%TO.C,R13*%
X62175000Y-52000000D03*
X64000000Y-52000000D03*
%TD*%
D43*
%TO.C,R32*%
X137762500Y-54500000D03*
X139412500Y-54500000D03*
%TD*%
D14*
%TO.C,R15*%
X62225000Y-63450000D03*
X64050000Y-63450000D03*
%TD*%
D44*
%TO.C,SW2*%
X82775000Y-34000000D03*
X87225000Y-34000000D03*
%TD*%
D30*
%TO.C,J3*%
X81850000Y-68125000D03*
X82850000Y-68125000D03*
X83850000Y-68125000D03*
X84850000Y-68125000D03*
D31*
X80550000Y-72000000D03*
X86150000Y-72000000D03*
%TD*%
D45*
%TO.C,U2*%
X127200000Y-45300000D03*
X129500000Y-45300000D03*
D46*
X129500000Y-39000000D03*
D45*
X131800000Y-45300000D03*
%TD*%
D28*
%TO.C,J6*%
X101350000Y-22375000D03*
X100350000Y-22375000D03*
X99350000Y-22375000D03*
X98350000Y-22375000D03*
D29*
X102650000Y-18500000D03*
X97050000Y-18500000D03*
%TD*%
D17*
%TO.C,C6*%
X137550000Y-43300000D03*
X139450000Y-43300000D03*
%TD*%
D27*
%TO.C,C14*%
X78500000Y-40675000D03*
X78500000Y-38775000D03*
%TD*%
D10*
%TO.C,R14*%
X69000000Y-66500000D03*
X69000000Y-64675000D03*
%TD*%
D18*
%TO.C,C11*%
X104000000Y-42225000D03*
X104000000Y-43775000D03*
%TD*%
D40*
%TO.C,C2*%
X120500000Y-53275000D03*
X120500000Y-51725000D03*
%TD*%
D30*
%TO.C,J2*%
X73350000Y-68125000D03*
X74350000Y-68125000D03*
X75350000Y-68125000D03*
X76350000Y-68125000D03*
D31*
X72050000Y-72000000D03*
X77650000Y-72000000D03*
%TD*%
D14*
%TO.C,R21*%
X62175000Y-50000000D03*
X64000000Y-50000000D03*
%TD*%
D47*
%TO.C,L1*%
X135500000Y-52275000D03*
X135500000Y-48725000D03*
%TD*%
D14*
%TO.C,R23*%
X62225000Y-61450000D03*
X64050000Y-61450000D03*
%TD*%
%TO.C,R9*%
X62175000Y-29500000D03*
X64000000Y-29500000D03*
%TD*%
D16*
%TO.C,R28*%
X113412500Y-70500000D03*
X111587500Y-70500000D03*
%TD*%
D15*
%TO.C,Q1*%
X67000000Y-31950000D03*
X67000000Y-30050000D03*
X64725000Y-31000000D03*
%TD*%
D10*
%TO.C,R8*%
X69000000Y-31912500D03*
X69000000Y-30087500D03*
%TD*%
D20*
%TO.C,R27*%
X88500000Y-58875000D03*
X88500000Y-60700000D03*
%TD*%
D10*
%TO.C,R30*%
X120000000Y-69412500D03*
X120000000Y-67587500D03*
%TD*%
D33*
%TO.C,D3*%
X93000000Y-59212500D03*
X93000000Y-60787500D03*
%TD*%
D10*
%TO.C,R24*%
X131500000Y-24412500D03*
X131500000Y-22587500D03*
%TD*%
%TO.C,R18*%
X69087500Y-37825000D03*
X69087500Y-36000000D03*
%TD*%
M02*
