%TF.GenerationSoftware,KiCad,Pcbnew,10.0.1*%
%TF.CreationDate,2026-05-05T14:40:40-05:00*%
%TF.ProjectId,VEXBridge,56455842-7269-4646-9765-2e6b69636164,1.0*%
%TF.SameCoordinates,Original*%
%TF.FileFunction,Copper,L2,Bot*%
%TF.FilePolarity,Positive*%
%FSLAX46Y46*%
G04 Gerber Fmt 4.6, Leading zero omitted, Abs format (unit mm)*
G04 Created by KiCad (PCBNEW 10.0.1) date 2026-05-05 14:40:40*
%MOMM*%
%LPD*%
G01*
G04 APERTURE LIST*
G04 Aperture macros list*
%AMRoundRect*
0 Rectangle with rounded corners*
0 $1 Rounding radius*
0 $2 $3 $4 $5 $6 $7 $8 $9 X,Y pos of 4 corners*
0 Add a 4 corners polygon primitive as box body*
4,1,4,$2,$3,$4,$5,$6,$7,$8,$9,$2,$3,0*
0 Add four circle primitives for the rounded corners*
1,1,$1+$1,$2,$3*
1,1,$1+$1,$4,$5*
1,1,$1+$1,$6,$7*
1,1,$1+$1,$8,$9*
0 Add four rect primitives between the rounded corners*
20,1,$1+$1,$2,$3,$4,$5,0*
20,1,$1+$1,$4,$5,$6,$7,0*
20,1,$1+$1,$6,$7,$8,$9,0*
20,1,$1+$1,$8,$9,$2,$3,0*%
G04 Aperture macros list end*
%TA.AperFunction,ComponentPad*%
%ADD10O,2.100000X1.100000*%
%TD*%
%TA.AperFunction,ComponentPad*%
%ADD11O,2.600000X1.100000*%
%TD*%
%TA.AperFunction,ComponentPad*%
%ADD12O,3.700000X2.700000*%
%TD*%
%TA.AperFunction,ComponentPad*%
%ADD13RoundRect,0.250001X1.599999X-1.099999X1.599999X1.099999X-1.599999X1.099999X-1.599999X-1.099999X0*%
%TD*%
%TA.AperFunction,ComponentPad*%
%ADD14C,0.600000*%
%TD*%
%TA.AperFunction,SMDPad,CuDef*%
%ADD15R,2.950000X4.900000*%
%TD*%
%TA.AperFunction,ComponentPad*%
%ADD16C,5.400000*%
%TD*%
%TA.AperFunction,ComponentPad*%
%ADD17C,1.800000*%
%TD*%
%TA.AperFunction,ComponentPad*%
%ADD18RoundRect,0.250000X0.650000X-0.650000X0.650000X0.650000X-0.650000X0.650000X-0.650000X-0.650000X0*%
%TD*%
%TA.AperFunction,ViaPad*%
%ADD19C,0.600000*%
%TD*%
%TA.AperFunction,ViaPad*%
%ADD20C,0.400000*%
%TD*%
%TA.AperFunction,Conductor*%
%ADD21C,1.000000*%
%TD*%
%TA.AperFunction,Conductor*%
%ADD22C,0.600000*%
%TD*%
%TA.AperFunction,Conductor*%
%ADD23C,0.200000*%
%TD*%
%TA.AperFunction,Conductor*%
%ADD24C,0.500000*%
%TD*%
%TA.AperFunction,Conductor*%
%ADD25C,0.400000*%
%TD*%
%TA.AperFunction,Conductor*%
%ADD26C,0.300000*%
%TD*%
G04 APERTURE END LIST*
D10*
%TO.P,J15,SH,SHIELD_S1*%
%TO.N,GND*%
X134335000Y-33320000D03*
D11*
X139695000Y-33320000D03*
D10*
X134335000Y-24680000D03*
D11*
X139695000Y-24680000D03*
%TD*%
D12*
%TO.P,J12,4,Pin_4_4*%
%TO.N,GPIO6_HV*%
X59000000Y-49000000D03*
%TO.P,J12,3,Pin_3_3*%
%TO.N,GND*%
X59000000Y-53200000D03*
%TO.P,J12,2,Pin_2_2*%
%TO.N,GPIO5_HV*%
X53500000Y-49000000D03*
D13*
%TO.P,J12,1,Pin_1_1*%
%TO.N,+5V*%
X53500000Y-53200000D03*
%TD*%
D12*
%TO.P,J11,4,Pin_4_4*%
%TO.N,GPIO4_HV*%
X59000000Y-37500000D03*
%TO.P,J11,3,Pin_3_3*%
%TO.N,GND*%
X59000000Y-41700000D03*
%TO.P,J11,2,Pin_2_2*%
%TO.N,GPIO3_HV*%
X53500000Y-37500000D03*
D13*
%TO.P,J11,1,Pin_1_1*%
%TO.N,+5V*%
X53500000Y-41700000D03*
%TD*%
D14*
%TO.P,U1,9,GND_9*%
%TO.N,GND*%
X125950000Y-54545000D03*
X125950000Y-53245000D03*
X125950000Y-51945000D03*
X125950000Y-50645000D03*
D15*
X125300000Y-52595000D03*
D14*
X124650000Y-54545000D03*
X124650000Y-53245000D03*
X124650000Y-51945000D03*
X124650000Y-50645000D03*
%TD*%
D16*
%TO.P,H1,1,1_1*%
%TO.N,GND*%
X137500000Y-19500000D03*
%TD*%
D12*
%TO.P,J13,4,Pin_4_4*%
%TO.N,GPIO8_HV*%
X58975000Y-60500000D03*
%TO.P,J13,3,Pin_3_3*%
%TO.N,GND*%
X58975000Y-64700000D03*
%TO.P,J13,2,Pin_2_2*%
%TO.N,GPIO7_HV*%
X53475000Y-60500000D03*
D13*
%TO.P,J13,1,Pin_1_1*%
%TO.N,+5V*%
X53475000Y-64700000D03*
%TD*%
D12*
%TO.P,J10,4,Pin_4_4*%
%TO.N,GPIO2_HV*%
X59000000Y-26100000D03*
%TO.P,J10,3,Pin_3_3*%
%TO.N,GND*%
X59000000Y-30300000D03*
%TO.P,J10,2,Pin_2_2*%
%TO.N,GPIO1_HV*%
X53500000Y-26100000D03*
D13*
%TO.P,J10,1,Pin_1_1*%
%TO.N,+5V*%
X53500000Y-30300000D03*
%TD*%
D16*
%TO.P,H4,1,1_1*%
%TO.N,GND*%
X41400000Y-71000000D03*
%TD*%
%TO.P,H2,1,1_1*%
%TO.N,GND*%
X137500000Y-71000000D03*
%TD*%
D17*
%TO.P,J1,4*%
%TO.N,Net-(F1-Pad1)*%
X125110000Y-59690000D03*
%TO.P,J1,3*%
%TO.N,GND*%
X127650000Y-60960000D03*
%TO.P,J1,2*%
%TO.N,A*%
X125110000Y-62230000D03*
D18*
%TO.P,J1,1*%
%TO.N,B*%
X127650000Y-63500000D03*
%TD*%
D16*
%TO.P,H3,1,1_1*%
%TO.N,GND*%
X41400000Y-19500000D03*
%TD*%
D19*
%TO.N,+5V*%
X64000000Y-40500000D03*
%TO.N,SDA*%
X95500000Y-47500000D03*
%TO.N,SCL*%
X95500000Y-48500000D03*
%TO.N,USB_D-*%
X89650000Y-52350000D03*
%TO.N,+3.3V*%
X99350000Y-22375000D03*
D20*
%TO.N,USB_D-*%
X134675000Y-29250000D03*
D19*
%TO.N,GND*%
X89650000Y-45350000D03*
%TO.N,BOOT*%
X83973403Y-39244584D03*
%TO.N,GPIO5*%
X77000000Y-49250000D03*
%TO.N,RX*%
X103000000Y-53500000D03*
%TO.N,GPIO2*%
X71467157Y-32532843D03*
%TO.N,+3.3V*%
X100325000Y-34500000D03*
%TO.N,GND*%
X84850000Y-68125000D03*
%TO.N,BOOT*%
X84008465Y-37461905D03*
%TO.N,+3.3V*%
X68962500Y-31950000D03*
%TO.N,USB_D-*%
X131000000Y-29500000D03*
%TO.N,GPIO2*%
X71467157Y-36500000D03*
%TO.N,GND*%
X108587500Y-66500000D03*
%TO.N,+3.3V*%
X90800000Y-22470000D03*
D20*
%TO.N,Net-(J15-CC2)*%
X134675000Y-28250000D03*
D19*
%TO.N,GND*%
X130500000Y-25500000D03*
%TO.N,USB_D-*%
X108000000Y-44500000D03*
%TO.N,GND*%
X98500000Y-50000000D03*
%TO.N,TX*%
X106703281Y-60703281D03*
%TO.N,GND*%
X74000000Y-21000000D03*
%TO.N,+3.3V*%
X69000000Y-26912500D03*
%TO.N,+5V*%
X132500000Y-54500000D03*
%TO.N,Net-(J15-CC2)*%
X131500000Y-24500000D03*
%TO.N,+3.3V*%
X69000000Y-66500000D03*
X69000000Y-60412500D03*
%TO.N,GND*%
X105925000Y-48862500D03*
%TO.N,+5V*%
X64000000Y-29500000D03*
%TO.N,+3.3V*%
X69000000Y-37912500D03*
%TO.N,GND*%
X120000000Y-63587500D03*
%TO.N,Net-(J15-CC1)*%
X132672157Y-30530331D03*
%TO.N,RTS*%
X100367271Y-55500000D03*
%TO.N,GND*%
X82650000Y-55362500D03*
X101850000Y-68125000D03*
X82500000Y-21000000D03*
%TO.N,B*%
X122000000Y-64000000D03*
%TO.N,RTS*%
X107867215Y-63000000D03*
%TO.N,USB_D+*%
X108250000Y-45500000D03*
%TO.N,GPIO5*%
X79200000Y-47050000D03*
%TO.N,+3.3V*%
X69000000Y-54500000D03*
%TO.N,Net-(J15-CC1)*%
X129000000Y-29500000D03*
%TO.N,GPIO7*%
X80250000Y-48750000D03*
%TO.N,SDA*%
X98000000Y-45000000D03*
%TO.N,B*%
X124000000Y-64000000D03*
%TO.N,GPIO4*%
X73566393Y-44433607D03*
%TO.N,USB_D-*%
X132725000Y-28500000D03*
%TO.N,+3.3V*%
X78500000Y-40675000D03*
%TO.N,RX*%
X108500000Y-59000000D03*
%TO.N,+3.3V*%
X69000000Y-49412500D03*
%TO.N,TX*%
X102500000Y-54500000D03*
%TO.N,GND*%
X93000000Y-59212500D03*
%TO.N,+3.3V*%
X101000000Y-47000000D03*
%TO.N,+5V*%
X135500000Y-48725000D03*
%TO.N,GND*%
X93350000Y-68125000D03*
%TO.N,GPIO4*%
X75332786Y-46200000D03*
%TO.N,GND*%
X101000000Y-39000000D03*
X132000000Y-52500000D03*
X134300000Y-38350000D03*
%TO.N,+3.3V*%
X101000000Y-41600000D03*
%TO.N,GPIO7*%
X78500000Y-50500000D03*
%TO.N,+3.3V*%
X73800000Y-22470000D03*
%TO.N,GND*%
X139412500Y-54500000D03*
X117475000Y-68405000D03*
%TO.N,+5V*%
X64050000Y-63450000D03*
%TO.N,GND*%
X91000000Y-21000000D03*
%TO.N,+3.3V*%
X69000000Y-42912500D03*
%TO.N,SCL*%
X98000000Y-46000000D03*
%TO.N,GND*%
X76350000Y-68125000D03*
%TO.N,USB_D+*%
X90500000Y-52350000D03*
%TO.N,GND*%
X99500000Y-21000000D03*
X127200000Y-45300000D03*
%TO.N,+3.3V*%
X82300000Y-22470000D03*
%TO.N,+5V*%
X64000000Y-52000000D03*
%TD*%
%TO.N,+5V*%
D21*
X64050000Y-52050000D02*
X64000000Y-52000000D01*
X55551000Y-43751000D02*
X60749000Y-43751000D01*
%TO.N,RTS*%
D22*
X101500000Y-56632785D02*
X107867215Y-63000000D01*
%TO.N,+3.3V*%
D21*
X99350000Y-22375000D02*
X99350000Y-33525000D01*
D22*
X68962500Y-37875000D02*
X68962500Y-31950000D01*
X78325000Y-40500000D02*
X71587500Y-40500000D01*
D21*
X100325000Y-34500000D02*
X102000000Y-36175000D01*
%TO.N,RX*%
D22*
X108500000Y-59000000D02*
X103000000Y-53500000D01*
%TO.N,USB_D-*%
D23*
X132725000Y-28500000D02*
X133475000Y-29250000D01*
%TO.N,USB_D+*%
D24*
X108250000Y-45500000D02*
X107000000Y-45500000D01*
%TO.N,+5V*%
D21*
X64000000Y-52000000D02*
X64000000Y-40500000D01*
%TO.N,SDA*%
D25*
X95500000Y-47500000D02*
X98000000Y-45000000D01*
%TO.N,+3.3V*%
D22*
X69000000Y-66500000D02*
X69000000Y-60412500D01*
%TO.N,BOOT*%
X84000000Y-37470370D02*
X84008465Y-37461905D01*
%TO.N,TX*%
X102500000Y-54500000D02*
X106703281Y-58703281D01*
%TO.N,+3.3V*%
X69000000Y-42912500D02*
X69000000Y-49412500D01*
X71587500Y-40500000D02*
X69000000Y-37912500D01*
%TO.N,Net-(J15-CC1)*%
D26*
X130030331Y-30530331D02*
X129000000Y-29500000D01*
%TO.N,RTS*%
D22*
X101500000Y-56632729D02*
X101500000Y-56632785D01*
%TO.N,+3.3V*%
X69000000Y-54500000D02*
X69000000Y-49412500D01*
%TO.N,+5V*%
D21*
X60749000Y-43751000D02*
X64000000Y-40500000D01*
X53500000Y-53200000D02*
X55551000Y-55251000D01*
%TO.N,+3.3V*%
D22*
X69000000Y-54500000D02*
X69000000Y-60412500D01*
%TO.N,USB_D-*%
D23*
X132000000Y-28500000D02*
X131000000Y-29500000D01*
%TO.N,+5V*%
D21*
X135500000Y-48725000D02*
X135500000Y-51500000D01*
%TO.N,+3.3V*%
D22*
X93030000Y-22470000D02*
X93125000Y-22375000D01*
%TO.N,+5V*%
D21*
X61149000Y-32351000D02*
X64000000Y-29500000D01*
X55551000Y-32351000D02*
X61149000Y-32351000D01*
%TO.N,B*%
D22*
X124000000Y-64000000D02*
X122000000Y-64000000D01*
%TO.N,BOOT*%
X83973403Y-39244584D02*
X84000000Y-39217987D01*
%TO.N,+5V*%
D21*
X60749000Y-66751000D02*
X64050000Y-63450000D01*
X60749000Y-55251000D02*
X64000000Y-52000000D01*
%TO.N,+3.3V*%
D22*
X69000000Y-37912500D02*
X68962500Y-37875000D01*
%TO.N,RTS*%
X100367271Y-55500000D02*
X101500000Y-56632729D01*
%TO.N,+3.3V*%
D21*
X101000000Y-47000000D02*
X101000000Y-41600000D01*
%TO.N,Net-(J15-CC1)*%
D26*
X132672157Y-30530331D02*
X130030331Y-30530331D01*
%TO.N,USB_D-*%
D24*
X99500000Y-51500000D02*
X90287925Y-51500000D01*
X89650000Y-52137925D02*
X89650000Y-52350000D01*
%TO.N,+3.3V*%
D21*
X102000000Y-40600000D02*
X101000000Y-41600000D01*
D22*
X69000000Y-26912500D02*
X69000000Y-31912500D01*
X69000000Y-26912500D02*
X69357500Y-26912500D01*
%TO.N,GPIO5*%
X79200000Y-47050000D02*
X77000000Y-49250000D01*
%TO.N,Net-(J15-CC2)*%
D23*
X131500000Y-25275000D02*
X134475000Y-28250000D01*
%TO.N,+3.3V*%
D22*
X69357500Y-26912500D02*
X73800000Y-22470000D01*
%TO.N,+5V*%
D21*
X135500000Y-51500000D02*
X132500000Y-54500000D01*
X64000000Y-29500000D02*
X64000000Y-40500000D01*
%TO.N,+3.3V*%
D22*
X93125000Y-22375000D02*
X99350000Y-22375000D01*
%TO.N,+5V*%
D21*
X64050000Y-63450000D02*
X64050000Y-52050000D01*
%TO.N,+3.3V*%
D22*
X82300000Y-22470000D02*
X90800000Y-22470000D01*
%TO.N,SCL*%
D25*
X95500000Y-48500000D02*
X98000000Y-46000000D01*
%TO.N,+3.3V*%
D22*
X90800000Y-22470000D02*
X93030000Y-22470000D01*
%TO.N,USB_D+*%
D24*
X100150000Y-52350000D02*
X90500000Y-52350000D01*
%TO.N,BOOT*%
D22*
X84000000Y-39217987D02*
X84000000Y-37470370D01*
%TO.N,+3.3V*%
X69000000Y-37912500D02*
X69000000Y-42912500D01*
%TO.N,Net-(J15-CC2)*%
D23*
X134475000Y-28250000D02*
X134675000Y-28250000D01*
%TO.N,+5V*%
D21*
X55526000Y-66751000D02*
X60749000Y-66751000D01*
%TO.N,USB_D+*%
D24*
X107000000Y-45500000D02*
X100150000Y-52350000D01*
%TO.N,USB_D-*%
X106500000Y-44500000D02*
X99500000Y-51500000D01*
%TO.N,+5V*%
D21*
X53500000Y-30300000D02*
X55551000Y-32351000D01*
%TO.N,USB_D-*%
D24*
X108000000Y-44500000D02*
X106500000Y-44500000D01*
%TO.N,GPIO4*%
D22*
X75332786Y-46200000D02*
X73566393Y-44433607D01*
%TO.N,USB_D-*%
D23*
X133475000Y-29250000D02*
X134675000Y-29250000D01*
%TO.N,+3.3V*%
D22*
X78500000Y-40675000D02*
X78325000Y-40500000D01*
%TO.N,+5V*%
D21*
X53500000Y-41700000D02*
X55551000Y-43751000D01*
X55551000Y-55251000D02*
X60749000Y-55251000D01*
%TO.N,Net-(J15-CC2)*%
D23*
X131500000Y-24500000D02*
X131500000Y-25275000D01*
%TO.N,+3.3V*%
D22*
X69000000Y-31912500D02*
X68962500Y-31950000D01*
%TO.N,USB_D-*%
D23*
X132725000Y-28500000D02*
X132000000Y-28500000D01*
%TO.N,+5V*%
D21*
X53475000Y-64700000D02*
X55526000Y-66751000D01*
%TO.N,+3.3V*%
D22*
X73800000Y-22470000D02*
X82300000Y-22470000D01*
D21*
X99350000Y-33525000D02*
X100325000Y-34500000D01*
%TO.N,GPIO2*%
D24*
X71467157Y-36500000D02*
X71467157Y-32532843D01*
%TO.N,+3.3V*%
D21*
X102000000Y-36175000D02*
X102000000Y-40600000D01*
%TO.N,GPIO7*%
D22*
X80250000Y-48750000D02*
X78500000Y-50500000D01*
%TO.N,TX*%
X106703281Y-58703281D02*
X106703281Y-60703281D01*
%TO.N,USB_D-*%
D24*
X90287925Y-51500000D02*
X89650000Y-52137925D01*
%TD*%
%TA.AperFunction,Conductor*%
%TO.N,GND*%
G36*
X137503032Y-16000648D02*
G01*
X137836929Y-16017052D01*
X137849037Y-16018245D01*
X137952146Y-16033539D01*
X138176699Y-16066849D01*
X138188617Y-16069219D01*
X138509951Y-16149709D01*
X138521588Y-16153240D01*
X138592806Y-16178722D01*
X138833467Y-16264832D01*
X138844688Y-16269479D01*
X139144163Y-16411120D01*
X139154871Y-16416844D01*
X139438988Y-16587137D01*
X139449106Y-16593897D01*
X139715170Y-16791224D01*
X139724576Y-16798944D01*
X139970013Y-17021395D01*
X139978604Y-17029986D01*
X140165755Y-17236475D01*
X140201055Y-17275423D01*
X140208775Y-17284829D01*
X140406102Y-17550893D01*
X140412862Y-17561011D01*
X140541776Y-17776092D01*
X140583148Y-17845116D01*
X140588885Y-17855848D01*
X140730514Y-18155297D01*
X140735170Y-18166540D01*
X140846759Y-18478411D01*
X140850292Y-18490055D01*
X140930777Y-18811369D01*
X140933151Y-18823305D01*
X140981754Y-19150962D01*
X140982947Y-19163071D01*
X140999351Y-19496966D01*
X140999500Y-19503051D01*
X140999500Y-23587589D01*
X140979815Y-23654628D01*
X140927011Y-23700383D01*
X140857853Y-23710327D01*
X140828048Y-23702150D01*
X140751278Y-23670351D01*
X140751266Y-23670348D01*
X140548420Y-23630000D01*
X139945000Y-23630000D01*
X139945000Y-24380000D01*
X139445000Y-24380000D01*
X139445000Y-23630000D01*
X138841579Y-23630000D01*
X138638733Y-23670348D01*
X138638725Y-23670350D01*
X138447641Y-23749500D01*
X138447631Y-23749505D01*
X138275664Y-23864410D01*
X138275660Y-23864413D01*
X138129413Y-24010660D01*
X138129410Y-24010664D01*
X138014505Y-24182631D01*
X138014500Y-24182641D01*
X137935351Y-24373723D01*
X137935350Y-24373725D01*
X137924157Y-24430000D01*
X138778012Y-24430000D01*
X138760795Y-24439940D01*
X138704940Y-24495795D01*
X138665444Y-24564204D01*
X138645000Y-24640504D01*
X138645000Y-24719496D01*
X138665444Y-24795796D01*
X138704940Y-24864205D01*
X138760795Y-24920060D01*
X138778012Y-24930000D01*
X137924157Y-24930000D01*
X137935350Y-24986274D01*
X137935351Y-24986276D01*
X138014500Y-25177358D01*
X138014505Y-25177368D01*
X138129410Y-25349335D01*
X138129413Y-25349339D01*
X138275660Y-25495586D01*
X138275664Y-25495589D01*
X138447631Y-25610494D01*
X138447641Y-25610499D01*
X138638725Y-25689649D01*
X138638733Y-25689651D01*
X138841579Y-25729999D01*
X138841583Y-25730000D01*
X139445000Y-25730000D01*
X139445000Y-24980000D01*
X139945000Y-24980000D01*
X139945000Y-25730000D01*
X140548417Y-25730000D01*
X140548420Y-25729999D01*
X140751266Y-25689651D01*
X140751274Y-25689649D01*
X140828047Y-25657849D01*
X140897516Y-25650380D01*
X140959995Y-25681655D01*
X140995648Y-25741744D01*
X140999500Y-25772410D01*
X140999500Y-32227589D01*
X140979815Y-32294628D01*
X140927011Y-32340383D01*
X140857853Y-32350327D01*
X140828048Y-32342150D01*
X140751278Y-32310351D01*
X140751266Y-32310348D01*
X140548420Y-32270000D01*
X139945000Y-32270000D01*
X139945000Y-33020000D01*
X139445000Y-33020000D01*
X139445000Y-32270000D01*
X138841579Y-32270000D01*
X138638733Y-32310348D01*
X138638725Y-32310350D01*
X138447641Y-32389500D01*
X138447631Y-32389505D01*
X138275664Y-32504410D01*
X138275660Y-32504413D01*
X138129413Y-32650660D01*
X138129410Y-32650664D01*
X138014505Y-32822631D01*
X138014500Y-32822641D01*
X137935351Y-33013723D01*
X137935350Y-33013725D01*
X137924157Y-33070000D01*
X138778012Y-33070000D01*
X138760795Y-33079940D01*
X138704940Y-33135795D01*
X138665444Y-33204204D01*
X138645000Y-33280504D01*
X138645000Y-33359496D01*
X138665444Y-33435796D01*
X138704940Y-33504205D01*
X138760795Y-33560060D01*
X138778012Y-33570000D01*
X137924157Y-33570000D01*
X137935350Y-33626274D01*
X137935351Y-33626276D01*
X138014500Y-33817358D01*
X138014505Y-33817368D01*
X138129410Y-33989335D01*
X138129413Y-33989339D01*
X138275660Y-34135586D01*
X138275664Y-34135589D01*
X138447631Y-34250494D01*
X138447641Y-34250499D01*
X138638725Y-34329649D01*
X138638733Y-34329651D01*
X138841579Y-34369999D01*
X138841583Y-34370000D01*
X139445000Y-34370000D01*
X139445000Y-33620000D01*
X139945000Y-33620000D01*
X139945000Y-34370000D01*
X140548417Y-34370000D01*
X140548420Y-34369999D01*
X140751266Y-34329651D01*
X140751274Y-34329649D01*
X140828047Y-34297849D01*
X140897516Y-34290380D01*
X140959995Y-34321655D01*
X140995648Y-34381744D01*
X140999500Y-34412410D01*
X140999500Y-70996948D01*
X140999351Y-71003033D01*
X140982947Y-71336928D01*
X140981754Y-71349037D01*
X140933151Y-71676694D01*
X140930777Y-71688630D01*
X140850292Y-72009944D01*
X140846759Y-72021588D01*
X140735170Y-72333459D01*
X140730514Y-72344702D01*
X140588885Y-72644151D01*
X140583148Y-72654883D01*
X140412862Y-72938988D01*
X140406102Y-72949106D01*
X140208775Y-73215170D01*
X140201055Y-73224576D01*
X139978611Y-73470006D01*
X139970006Y-73478611D01*
X139724576Y-73701055D01*
X139715170Y-73708775D01*
X139449106Y-73906102D01*
X139438988Y-73912862D01*
X139154883Y-74083148D01*
X139144151Y-74088885D01*
X138844702Y-74230514D01*
X138833459Y-74235170D01*
X138521588Y-74346759D01*
X138509944Y-74350292D01*
X138188630Y-74430777D01*
X138176694Y-74433151D01*
X137849037Y-74481754D01*
X137836928Y-74482947D01*
X137521989Y-74498419D01*
X137503031Y-74499351D01*
X137496949Y-74499500D01*
X41431478Y-74499500D01*
X41425395Y-74499351D01*
X41405327Y-74498365D01*
X41091498Y-74482947D01*
X41079389Y-74481754D01*
X40751732Y-74433151D01*
X40739796Y-74430777D01*
X40418482Y-74350292D01*
X40406838Y-74346759D01*
X40094967Y-74235170D01*
X40083728Y-74230515D01*
X39784271Y-74088883D01*
X39773548Y-74083150D01*
X39489438Y-73912862D01*
X39479320Y-73906102D01*
X39213256Y-73708775D01*
X39203850Y-73701055D01*
X39164902Y-73665755D01*
X38958413Y-73478604D01*
X38949822Y-73470013D01*
X38727371Y-73224576D01*
X38719651Y-73215170D01*
X38522324Y-72949106D01*
X38515564Y-72938988D01*
X38345271Y-72654871D01*
X38339547Y-72644163D01*
X38197906Y-72344688D01*
X38193256Y-72333459D01*
X38081667Y-72021588D01*
X38078134Y-72009944D01*
X38069385Y-71975015D01*
X37997646Y-71688617D01*
X37995275Y-71676694D01*
X37946672Y-71349037D01*
X37945479Y-71336927D01*
X37929076Y-71003032D01*
X37928927Y-70996948D01*
X37928927Y-62485258D01*
X44424500Y-62485258D01*
X44424500Y-62714741D01*
X44443625Y-62860000D01*
X44454452Y-62942238D01*
X44505123Y-63131348D01*
X44513842Y-63163887D01*
X44601650Y-63375876D01*
X44601657Y-63375890D01*
X44716392Y-63574617D01*
X44856080Y-63756660D01*
X44856089Y-63756670D01*
X45018330Y-63918911D01*
X45018338Y-63918918D01*
X45018339Y-63918919D01*
X45068962Y-63957764D01*
X45200382Y-64058607D01*
X45200385Y-64058608D01*
X45200388Y-64058611D01*
X45399112Y-64173344D01*
X45399117Y-64173346D01*
X45399123Y-64173349D01*
X45490480Y-64211190D01*
X45611113Y-64261158D01*
X45832762Y-64320548D01*
X46060266Y-64350500D01*
X46060273Y-64350500D01*
X46289727Y-64350500D01*
X46289734Y-64350500D01*
X46517238Y-64320548D01*
X46738887Y-64261158D01*
X46950888Y-64173344D01*
X47149612Y-64058611D01*
X47331661Y-63918919D01*
X47331665Y-63918914D01*
X47331670Y-63918911D01*
X47493911Y-63756670D01*
X47493920Y-63756660D01*
X47601632Y-63616287D01*
X47633611Y-63574612D01*
X47647830Y-63549984D01*
X51124500Y-63549984D01*
X51124500Y-65850015D01*
X51135000Y-65952795D01*
X51135001Y-65952796D01*
X51190186Y-66119335D01*
X51190187Y-66119337D01*
X51282286Y-66268651D01*
X51282289Y-66268655D01*
X51406344Y-66392710D01*
X51406348Y-66392713D01*
X51555662Y-66484812D01*
X51555664Y-66484813D01*
X51555666Y-66484814D01*
X51722203Y-66539999D01*
X51824992Y-66550500D01*
X53859218Y-66550500D01*
X53926257Y-66570185D01*
X53946899Y-66586819D01*
X54745735Y-67385655D01*
X54745764Y-67385686D01*
X54888214Y-67528136D01*
X54888218Y-67528139D01*
X55052079Y-67637628D01*
X55052092Y-67637635D01*
X55180833Y-67690961D01*
X55223744Y-67708735D01*
X55234164Y-67713051D01*
X55330812Y-67732275D01*
X55379135Y-67741887D01*
X55427458Y-67751500D01*
X55427459Y-67751500D01*
X60847542Y-67751500D01*
X60878566Y-67745328D01*
X60944188Y-67732275D01*
X61040836Y-67713051D01*
X61094165Y-67690961D01*
X61222914Y-67637632D01*
X61386782Y-67528139D01*
X61526139Y-67388782D01*
X61526140Y-67388779D01*
X61533206Y-67381714D01*
X61533209Y-67381710D01*
X64687778Y-64227141D01*
X64687782Y-64227139D01*
X64827139Y-64087782D01*
X64936632Y-63923914D01*
X65005910Y-63756661D01*
X65012051Y-63741836D01*
X65034197Y-63630500D01*
X65048423Y-63558983D01*
X65050500Y-63548543D01*
X65050500Y-51951458D01*
X65050499Y-51951457D01*
X65040683Y-51902105D01*
X65012052Y-51758165D01*
X65005733Y-51742911D01*
X65003380Y-51732182D01*
X65004004Y-51723229D01*
X65000500Y-51705611D01*
X65000500Y-31871153D01*
X68162000Y-31871153D01*
X68162000Y-37953846D01*
X68192760Y-38108489D01*
X68194160Y-38113101D01*
X68199500Y-38149099D01*
X68199500Y-66578846D01*
X68230261Y-66733489D01*
X68230264Y-66733501D01*
X68290602Y-66879172D01*
X68290609Y-66879185D01*
X68378210Y-67010288D01*
X68378213Y-67010292D01*
X68489707Y-67121786D01*
X68489711Y-67121789D01*
X68620814Y-67209390D01*
X68620827Y-67209397D01*
X68766498Y-67269735D01*
X68766503Y-67269737D01*
X68921153Y-67300499D01*
X68921156Y-67300500D01*
X68921158Y-67300500D01*
X69078844Y-67300500D01*
X69078845Y-67300499D01*
X69233497Y-67269737D01*
X69379179Y-67209394D01*
X69510289Y-67121789D01*
X69621789Y-67010289D01*
X69709394Y-66879179D01*
X69769737Y-66733497D01*
X69800500Y-66578842D01*
X69800500Y-66421158D01*
X69800500Y-65288711D01*
X132149500Y-65288711D01*
X132149500Y-65531288D01*
X132181161Y-65771785D01*
X132243947Y-66006104D01*
X132290849Y-66119334D01*
X132336776Y-66230212D01*
X132458064Y-66440289D01*
X132458066Y-66440292D01*
X132458067Y-66440293D01*
X132605733Y-66632736D01*
X132605739Y-66632743D01*
X132777256Y-66804260D01*
X132777262Y-66804265D01*
X132969711Y-66951936D01*
X133179788Y-67073224D01*
X133403900Y-67166054D01*
X133638211Y-67228838D01*
X133818586Y-67252584D01*
X133878711Y-67260500D01*
X133878712Y-67260500D01*
X134121289Y-67260500D01*
X134169388Y-67254167D01*
X134361789Y-67228838D01*
X134596100Y-67166054D01*
X134820212Y-67073224D01*
X135030289Y-66951936D01*
X135222738Y-66804265D01*
X135394265Y-66632738D01*
X135541936Y-66440289D01*
X135663224Y-66230212D01*
X135756054Y-66006100D01*
X135818838Y-65771789D01*
X135850500Y-65531288D01*
X135850500Y-65288712D01*
X135818838Y-65048211D01*
X135756054Y-64813900D01*
X135663224Y-64589788D01*
X135541936Y-64379711D01*
X135404053Y-64200018D01*
X135394266Y-64187263D01*
X135394260Y-64187256D01*
X135222743Y-64015739D01*
X135222736Y-64015733D01*
X135030293Y-63868067D01*
X135030292Y-63868066D01*
X135030289Y-63868064D01*
X134820212Y-63746776D01*
X134808286Y-63741836D01*
X134596104Y-63653947D01*
X134476093Y-63621790D01*
X134361789Y-63591162D01*
X134361788Y-63591161D01*
X134361785Y-63591161D01*
X134121289Y-63559500D01*
X134121288Y-63559500D01*
X133878712Y-63559500D01*
X133878711Y-63559500D01*
X133638214Y-63591161D01*
X133403895Y-63653947D01*
X133179794Y-63746773D01*
X133179785Y-63746777D01*
X132969706Y-63868067D01*
X132777263Y-64015733D01*
X132777256Y-64015739D01*
X132605739Y-64187256D01*
X132605733Y-64187263D01*
X132458067Y-64379706D01*
X132336777Y-64589785D01*
X132336773Y-64589794D01*
X132243947Y-64813895D01*
X132181161Y-65048214D01*
X132149500Y-65288711D01*
X69800500Y-65288711D01*
X69800500Y-63921153D01*
X121199500Y-63921153D01*
X121199500Y-64078846D01*
X121230261Y-64233489D01*
X121230264Y-64233501D01*
X121290602Y-64379172D01*
X121290609Y-64379185D01*
X121378210Y-64510288D01*
X121378213Y-64510292D01*
X121489707Y-64621786D01*
X121489711Y-64621789D01*
X121620814Y-64709390D01*
X121620827Y-64709397D01*
X121701258Y-64742712D01*
X121766503Y-64769737D01*
X121921153Y-64800499D01*
X121921156Y-64800500D01*
X121921158Y-64800500D01*
X124078844Y-64800500D01*
X124078845Y-64800499D01*
X124233497Y-64769737D01*
X124379179Y-64709394D01*
X124510289Y-64621789D01*
X124621789Y-64510289D01*
X124709394Y-64379179D01*
X124769737Y-64233497D01*
X124800500Y-64078842D01*
X124800500Y-63921158D01*
X124800500Y-63921155D01*
X124800499Y-63921153D01*
X124769031Y-63762951D01*
X124775258Y-63693360D01*
X124818121Y-63638182D01*
X124884011Y-63614938D01*
X124910038Y-63616286D01*
X124999778Y-63630500D01*
X124999780Y-63630500D01*
X125220221Y-63630500D01*
X125220222Y-63630500D01*
X125437951Y-63596015D01*
X125647606Y-63527895D01*
X125844022Y-63427815D01*
X126022365Y-63298242D01*
X126037820Y-63282786D01*
X126099139Y-63249302D01*
X126168830Y-63254285D01*
X126224765Y-63296155D01*
X126249184Y-63361619D01*
X126249500Y-63370468D01*
X126249500Y-64200001D01*
X126249501Y-64200018D01*
X126260000Y-64302796D01*
X126260001Y-64302799D01*
X126308779Y-64450000D01*
X126315186Y-64469334D01*
X126407288Y-64618656D01*
X126531344Y-64742712D01*
X126680666Y-64834814D01*
X126847203Y-64889999D01*
X126949991Y-64900500D01*
X128350008Y-64900499D01*
X128452797Y-64889999D01*
X128619334Y-64834814D01*
X128768656Y-64742712D01*
X128892712Y-64618656D01*
X128984814Y-64469334D01*
X129039999Y-64302797D01*
X129050500Y-64200009D01*
X129050499Y-62799992D01*
X129047190Y-62767603D01*
X129039999Y-62697203D01*
X129039998Y-62697200D01*
X129014686Y-62620814D01*
X128984814Y-62530666D01*
X128892712Y-62381344D01*
X128768656Y-62257288D01*
X128619334Y-62165186D01*
X128560631Y-62145733D01*
X128471195Y-62116097D01*
X128422519Y-62086072D01*
X127738584Y-61402138D01*
X127823694Y-61379333D01*
X127926306Y-61320090D01*
X128010090Y-61236306D01*
X128069333Y-61133694D01*
X128092137Y-61048585D01*
X128801066Y-61757514D01*
X128801066Y-61757513D01*
X128847386Y-61693760D01*
X128947432Y-61497410D01*
X129015526Y-61287835D01*
X129050000Y-61070181D01*
X129050000Y-60849818D01*
X129015526Y-60632164D01*
X128947432Y-60422589D01*
X128847388Y-60226243D01*
X128801066Y-60162485D01*
X128801065Y-60162485D01*
X128092137Y-60871413D01*
X128069333Y-60786306D01*
X128010090Y-60683694D01*
X127926306Y-60599910D01*
X127823694Y-60540667D01*
X127738583Y-60517861D01*
X128447513Y-59808932D01*
X128383756Y-59762611D01*
X128187410Y-59662567D01*
X127977835Y-59594473D01*
X127760181Y-59560000D01*
X127539819Y-59560000D01*
X127322164Y-59594473D01*
X127112589Y-59662567D01*
X126916233Y-59762616D01*
X126852485Y-59808931D01*
X126852485Y-59808932D01*
X127561414Y-60517861D01*
X127476306Y-60540667D01*
X127373694Y-60599910D01*
X127289910Y-60683694D01*
X127230667Y-60786306D01*
X127207861Y-60871415D01*
X126499921Y-60163474D01*
X126496658Y-60157499D01*
X126491065Y-60153617D01*
X126480126Y-60127223D01*
X126466436Y-60102151D01*
X126466286Y-60093828D01*
X126464315Y-60089071D01*
X126465923Y-60073581D01*
X126465568Y-60053799D01*
X126467063Y-60045501D01*
X126476015Y-60017951D01*
X126510500Y-59800222D01*
X126510500Y-59579778D01*
X126476015Y-59362049D01*
X126407895Y-59152394D01*
X126407895Y-59152393D01*
X126373237Y-59084375D01*
X126307815Y-58955978D01*
X126221211Y-58836777D01*
X126178247Y-58777641D01*
X126178243Y-58777636D01*
X126022363Y-58621756D01*
X126022358Y-58621752D01*
X125844025Y-58492187D01*
X125844024Y-58492186D01*
X125844022Y-58492185D01*
X125781096Y-58460122D01*
X125647606Y-58392104D01*
X125647603Y-58392103D01*
X125437952Y-58323985D01*
X125329086Y-58306742D01*
X125220222Y-58289500D01*
X124999778Y-58289500D01*
X124927201Y-58300995D01*
X124782047Y-58323985D01*
X124572396Y-58392103D01*
X124572393Y-58392104D01*
X124375974Y-58492187D01*
X124197641Y-58621752D01*
X124197636Y-58621756D01*
X124041756Y-58777636D01*
X124041752Y-58777641D01*
X123912187Y-58955974D01*
X123812104Y-59152393D01*
X123812103Y-59152396D01*
X123743985Y-59362047D01*
X123726449Y-59472767D01*
X123709500Y-59579778D01*
X123709500Y-59800222D01*
X123710880Y-59808932D01*
X123743985Y-60017952D01*
X123812103Y-60227603D01*
X123812104Y-60227606D01*
X123912187Y-60424025D01*
X124041752Y-60602358D01*
X124041756Y-60602363D01*
X124197636Y-60758243D01*
X124197641Y-60758247D01*
X124337254Y-60859682D01*
X124379920Y-60915012D01*
X124385899Y-60984625D01*
X124353293Y-61046420D01*
X124337254Y-61060318D01*
X124197641Y-61161752D01*
X124197636Y-61161756D01*
X124041756Y-61317636D01*
X124041752Y-61317641D01*
X123912187Y-61495974D01*
X123812104Y-61692393D01*
X123812103Y-61692396D01*
X123743985Y-61902047D01*
X123709500Y-62119778D01*
X123709500Y-62340221D01*
X123743985Y-62557952D01*
X123812103Y-62767603D01*
X123812104Y-62767606D01*
X123912185Y-62964022D01*
X123940224Y-63002614D01*
X123963704Y-63068421D01*
X123947879Y-63136474D01*
X123897773Y-63185169D01*
X123839906Y-63199500D01*
X121921155Y-63199500D01*
X121766510Y-63230261D01*
X121766498Y-63230264D01*
X121620827Y-63290602D01*
X121620814Y-63290609D01*
X121489711Y-63378210D01*
X121489707Y-63378213D01*
X121378213Y-63489707D01*
X121378210Y-63489711D01*
X121290609Y-63620814D01*
X121290602Y-63620827D01*
X121230264Y-63766498D01*
X121230261Y-63766510D01*
X121199500Y-63921153D01*
X69800500Y-63921153D01*
X69800500Y-60333658D01*
X69800500Y-55421153D01*
X99566771Y-55421153D01*
X99566771Y-55578846D01*
X99597532Y-55733489D01*
X99597535Y-55733501D01*
X99657873Y-55879172D01*
X99657880Y-55879185D01*
X99745481Y-56010288D01*
X99745484Y-56010292D01*
X100873648Y-57138455D01*
X100874201Y-57139065D01*
X107245426Y-63510289D01*
X107309749Y-63574612D01*
X107356927Y-63621790D01*
X107488029Y-63709390D01*
X107488042Y-63709397D01*
X107602171Y-63756670D01*
X107633718Y-63769737D01*
X107785859Y-63800000D01*
X107788368Y-63800499D01*
X107788371Y-63800500D01*
X107788373Y-63800500D01*
X107946060Y-63800500D01*
X107946061Y-63800499D01*
X107955764Y-63798569D01*
X107981503Y-63793450D01*
X107981508Y-63793449D01*
X108069118Y-63776021D01*
X108100712Y-63769737D01*
X108246394Y-63709394D01*
X108377504Y-63621789D01*
X108489004Y-63510289D01*
X108576609Y-63379179D01*
X108636952Y-63233497D01*
X108647018Y-63182888D01*
X108667715Y-63078845D01*
X108667715Y-62921155D01*
X108667714Y-62921153D01*
X108653461Y-62849500D01*
X108636952Y-62766503D01*
X108615506Y-62714727D01*
X108576612Y-62620827D01*
X108576605Y-62620814D01*
X108489004Y-62489711D01*
X108489001Y-62489707D01*
X107352084Y-61352791D01*
X107318599Y-61291468D01*
X107323583Y-61221776D01*
X107336658Y-61196225D01*
X107412675Y-61082460D01*
X107473018Y-60936778D01*
X107503781Y-60782123D01*
X107503781Y-59435221D01*
X107523466Y-59368182D01*
X107576270Y-59322427D01*
X107645428Y-59312483D01*
X107708984Y-59341508D01*
X107715462Y-59347540D01*
X107989707Y-59621786D01*
X107989711Y-59621789D01*
X108120814Y-59709390D01*
X108120818Y-59709392D01*
X108120821Y-59709394D01*
X108266503Y-59769738D01*
X108419730Y-59800216D01*
X108421153Y-59800499D01*
X108421157Y-59800500D01*
X108421158Y-59800500D01*
X108578844Y-59800500D01*
X108578845Y-59800499D01*
X108733498Y-59769738D01*
X108879179Y-59709394D01*
X109010290Y-59621789D01*
X109121789Y-59510290D01*
X109209394Y-59379179D01*
X109269738Y-59233498D01*
X109300500Y-59078843D01*
X109300500Y-58921158D01*
X109269738Y-58766503D01*
X109209394Y-58620821D01*
X109209392Y-58620818D01*
X109209390Y-58620814D01*
X109121789Y-58489711D01*
X109121786Y-58489707D01*
X108419144Y-57787065D01*
X132124500Y-57787065D01*
X132124500Y-58032934D01*
X132151227Y-58235939D01*
X132156591Y-58276677D01*
X132220222Y-58514152D01*
X132220225Y-58514162D01*
X132289399Y-58681161D01*
X132314306Y-58741292D01*
X132437233Y-58954208D01*
X132437235Y-58954211D01*
X132437236Y-58954212D01*
X132586897Y-59149254D01*
X132586903Y-59149261D01*
X132760738Y-59323096D01*
X132760745Y-59323102D01*
X132833821Y-59379175D01*
X132955792Y-59472767D01*
X133168708Y-59595694D01*
X133395847Y-59689778D01*
X133633323Y-59753409D01*
X133877073Y-59785500D01*
X133877080Y-59785500D01*
X134122920Y-59785500D01*
X134122927Y-59785500D01*
X134366677Y-59753409D01*
X134604153Y-59689778D01*
X134831292Y-59595694D01*
X135044208Y-59472767D01*
X135239256Y-59323101D01*
X135413101Y-59149256D01*
X135562767Y-58954208D01*
X135685694Y-58741292D01*
X135779778Y-58514153D01*
X135843409Y-58276677D01*
X135875500Y-58032927D01*
X135875500Y-57787073D01*
X135843409Y-57543323D01*
X135779778Y-57305847D01*
X135685694Y-57078708D01*
X135562767Y-56865792D01*
X135413101Y-56670744D01*
X135413096Y-56670738D01*
X135239261Y-56496903D01*
X135239254Y-56496897D01*
X135044212Y-56347236D01*
X135044211Y-56347235D01*
X135044208Y-56347233D01*
X134831292Y-56224306D01*
X134804118Y-56213050D01*
X134604162Y-56130225D01*
X134604155Y-56130223D01*
X134604153Y-56130222D01*
X134366677Y-56066591D01*
X134325939Y-56061227D01*
X134122934Y-56034500D01*
X134122927Y-56034500D01*
X133877073Y-56034500D01*
X133877065Y-56034500D01*
X133645059Y-56065045D01*
X133633323Y-56066591D01*
X133424890Y-56122440D01*
X133395847Y-56130222D01*
X133395837Y-56130225D01*
X133168714Y-56224303D01*
X133168710Y-56224305D01*
X132955787Y-56347236D01*
X132760745Y-56496897D01*
X132760738Y-56496903D01*
X132586903Y-56670738D01*
X132586897Y-56670745D01*
X132437236Y-56865787D01*
X132314307Y-57078705D01*
X132314303Y-57078714D01*
X132220225Y-57305837D01*
X132220222Y-57305847D01*
X132156592Y-57543320D01*
X132156590Y-57543331D01*
X132124500Y-57787065D01*
X108419144Y-57787065D01*
X105724923Y-55092844D01*
X123325000Y-55092844D01*
X123331401Y-55152372D01*
X123331403Y-55152379D01*
X123381645Y-55287086D01*
X123381649Y-55287093D01*
X123467809Y-55402187D01*
X123467812Y-55402190D01*
X123582906Y-55488350D01*
X123582913Y-55488354D01*
X123717620Y-55538596D01*
X123717627Y-55538598D01*
X123777155Y-55544999D01*
X123777172Y-55545000D01*
X125050000Y-55545000D01*
X125050000Y-55298553D01*
X125049999Y-55298552D01*
X125550000Y-55298552D01*
X125550000Y-55545000D01*
X126822828Y-55545000D01*
X126822844Y-55544999D01*
X126882372Y-55538598D01*
X126882379Y-55538596D01*
X127017086Y-55488354D01*
X127017093Y-55488350D01*
X127132187Y-55402190D01*
X127132190Y-55402187D01*
X127218350Y-55287093D01*
X127218354Y-55287086D01*
X127268596Y-55152379D01*
X127268598Y-55152372D01*
X127274999Y-55092844D01*
X127275000Y-55092827D01*
X127275000Y-54401455D01*
X131499500Y-54401455D01*
X131499500Y-54598544D01*
X131537947Y-54791828D01*
X131537949Y-54791836D01*
X131613367Y-54973910D01*
X131613372Y-54973920D01*
X131722860Y-55137780D01*
X131722863Y-55137784D01*
X131862215Y-55277136D01*
X131862219Y-55277139D01*
X132026079Y-55386627D01*
X132026083Y-55386629D01*
X132026086Y-55386631D01*
X132208164Y-55462051D01*
X132401455Y-55500499D01*
X132401458Y-55500500D01*
X132401460Y-55500500D01*
X132598542Y-55500500D01*
X132598543Y-55500499D01*
X132791836Y-55462051D01*
X132973914Y-55386631D01*
X133137781Y-55277139D01*
X136277140Y-52137781D01*
X136386632Y-51973914D01*
X136462052Y-51791835D01*
X136500500Y-51598540D01*
X136500500Y-51401459D01*
X136500500Y-48626459D01*
X136500500Y-48626456D01*
X136462052Y-48433170D01*
X136462051Y-48433169D01*
X136462051Y-48433165D01*
X136436229Y-48370824D01*
X136386635Y-48251092D01*
X136386628Y-48251079D01*
X136277139Y-48087218D01*
X136277136Y-48087214D01*
X136137785Y-47947863D01*
X136137781Y-47947860D01*
X135973920Y-47838371D01*
X135973907Y-47838364D01*
X135791839Y-47762950D01*
X135791829Y-47762947D01*
X135598543Y-47724500D01*
X135598541Y-47724500D01*
X135401459Y-47724500D01*
X135401457Y-47724500D01*
X135208170Y-47762947D01*
X135208160Y-47762950D01*
X135026092Y-47838364D01*
X135026079Y-47838371D01*
X134862218Y-47947860D01*
X134862214Y-47947863D01*
X134722863Y-48087214D01*
X134722860Y-48087218D01*
X134613371Y-48251079D01*
X134613364Y-48251092D01*
X134537950Y-48433160D01*
X134537947Y-48433170D01*
X134499500Y-48626456D01*
X134499500Y-51034217D01*
X134479815Y-51101256D01*
X134463181Y-51121898D01*
X131722863Y-53862215D01*
X131722860Y-53862219D01*
X131613372Y-54026079D01*
X131613367Y-54026089D01*
X131537949Y-54208163D01*
X131537947Y-54208171D01*
X131499500Y-54401455D01*
X127275000Y-54401455D01*
X127275000Y-52845000D01*
X126703552Y-52845000D01*
X126303553Y-53245000D01*
X126696704Y-53638151D01*
X126730189Y-53699474D01*
X126725205Y-53769166D01*
X126696704Y-53813513D01*
X126615218Y-53894999D01*
X126696704Y-53976485D01*
X126730189Y-54037808D01*
X126725205Y-54107500D01*
X126696704Y-54151848D01*
X126126777Y-54721777D01*
X125550000Y-55298552D01*
X125049999Y-55298552D01*
X124473223Y-54721777D01*
X124266609Y-54515163D01*
X124500000Y-54515163D01*
X124500000Y-54574837D01*
X124522836Y-54629968D01*
X124565032Y-54672164D01*
X124620163Y-54695000D01*
X124679837Y-54695000D01*
X124734968Y-54672164D01*
X124777164Y-54629968D01*
X124800000Y-54574837D01*
X124800000Y-54545000D01*
X125003553Y-54545000D01*
X125049999Y-54591446D01*
X125050000Y-54591446D01*
X125550000Y-54591446D01*
X125596446Y-54545001D01*
X125596446Y-54544999D01*
X125566610Y-54515163D01*
X125800000Y-54515163D01*
X125800000Y-54574837D01*
X125822836Y-54629968D01*
X125865032Y-54672164D01*
X125920163Y-54695000D01*
X125979837Y-54695000D01*
X126034968Y-54672164D01*
X126077164Y-54629968D01*
X126100000Y-54574837D01*
X126100000Y-54515163D01*
X126077164Y-54460032D01*
X126034968Y-54417836D01*
X125979837Y-54395000D01*
X125920163Y-54395000D01*
X125865032Y-54417836D01*
X125822836Y-54460032D01*
X125800000Y-54515163D01*
X125566610Y-54515163D01*
X125550000Y-54498553D01*
X125550000Y-54591446D01*
X125050000Y-54591446D01*
X125050000Y-54498553D01*
X125003553Y-54545000D01*
X124800000Y-54545000D01*
X124800000Y-54515163D01*
X124777164Y-54460032D01*
X124734968Y-54417836D01*
X124679837Y-54395000D01*
X124620163Y-54395000D01*
X124565032Y-54417836D01*
X124522836Y-54460032D01*
X124500000Y-54515163D01*
X124266609Y-54515163D01*
X123903294Y-54151848D01*
X123869809Y-54090525D01*
X123874793Y-54020833D01*
X123903294Y-53976485D01*
X123984779Y-53895000D01*
X124353553Y-53895000D01*
X124650000Y-54191446D01*
X124650001Y-54191446D01*
X124946446Y-53895001D01*
X124946446Y-53895000D01*
X125653553Y-53895000D01*
X125950000Y-54191446D01*
X125950001Y-54191446D01*
X126246446Y-53895001D01*
X126246446Y-53894999D01*
X125950001Y-53598553D01*
X125950000Y-53598553D01*
X125653553Y-53895000D01*
X124946446Y-53895000D01*
X124946446Y-53894999D01*
X124650001Y-53598553D01*
X124650000Y-53598553D01*
X124353553Y-53895000D01*
X123984779Y-53895000D01*
X123984780Y-53894999D01*
X123903295Y-53813514D01*
X123869810Y-53752191D01*
X123874794Y-53682499D01*
X123903295Y-53638152D01*
X124296446Y-53245001D01*
X124296446Y-53244999D01*
X124266610Y-53215163D01*
X124500000Y-53215163D01*
X124500000Y-53274837D01*
X124522836Y-53329968D01*
X124565032Y-53372164D01*
X124620163Y-53395000D01*
X124679837Y-53395000D01*
X124734968Y-53372164D01*
X124777164Y-53329968D01*
X124800000Y-53274837D01*
X124800000Y-53245000D01*
X125003553Y-53245000D01*
X125049999Y-53291446D01*
X125050000Y-53291446D01*
X125550000Y-53291446D01*
X125596446Y-53245001D01*
X125596446Y-53244999D01*
X125566610Y-53215163D01*
X125800000Y-53215163D01*
X125800000Y-53274837D01*
X125822836Y-53329968D01*
X125865032Y-53372164D01*
X125920163Y-53395000D01*
X125979837Y-53395000D01*
X126034968Y-53372164D01*
X126077164Y-53329968D01*
X126100000Y-53274837D01*
X126100000Y-53215163D01*
X126077164Y-53160032D01*
X126034968Y-53117836D01*
X125979837Y-53095000D01*
X125920163Y-53095000D01*
X125865032Y-53117836D01*
X125822836Y-53160032D01*
X125800000Y-53215163D01*
X125566610Y-53215163D01*
X125550000Y-53198553D01*
X125550000Y-53291446D01*
X125050000Y-53291446D01*
X125050000Y-53198553D01*
X125003553Y-53245000D01*
X124800000Y-53245000D01*
X124800000Y-53215163D01*
X124777164Y-53160032D01*
X124734968Y-53117836D01*
X124679837Y-53095000D01*
X124620163Y-53095000D01*
X124565032Y-53117836D01*
X124522836Y-53160032D01*
X124500000Y-53215163D01*
X124266610Y-53215163D01*
X123896447Y-52845000D01*
X124603554Y-52845000D01*
X124650000Y-52891445D01*
X124696446Y-52845000D01*
X125903554Y-52845000D01*
X125950000Y-52891445D01*
X125996446Y-52845000D01*
X125903554Y-52845000D01*
X124696446Y-52845000D01*
X124603554Y-52845000D01*
X123896447Y-52845000D01*
X123325000Y-52845000D01*
X123325000Y-55092844D01*
X105724923Y-55092844D01*
X103510292Y-52878213D01*
X103510288Y-52878210D01*
X103379185Y-52790609D01*
X103379172Y-52790602D01*
X103233501Y-52730264D01*
X103233489Y-52730261D01*
X103078845Y-52699500D01*
X103078842Y-52699500D01*
X102921158Y-52699500D01*
X102921155Y-52699500D01*
X102766510Y-52730261D01*
X102766498Y-52730264D01*
X102620827Y-52790602D01*
X102620814Y-52790609D01*
X102489711Y-52878210D01*
X102489707Y-52878213D01*
X102378213Y-52989707D01*
X102378210Y-52989711D01*
X102290609Y-53120814D01*
X102290602Y-53120827D01*
X102230264Y-53266498D01*
X102230261Y-53266510D01*
X102199500Y-53421153D01*
X102199500Y-53578846D01*
X102212573Y-53644568D01*
X102206346Y-53714159D01*
X102163483Y-53769337D01*
X102138411Y-53783319D01*
X102120826Y-53790603D01*
X102120814Y-53790609D01*
X101989711Y-53878210D01*
X101989707Y-53878213D01*
X101878213Y-53989707D01*
X101878210Y-53989711D01*
X101790609Y-54120814D01*
X101790602Y-54120827D01*
X101730264Y-54266498D01*
X101730261Y-54266510D01*
X101699500Y-54421153D01*
X101699500Y-54578846D01*
X101730261Y-54733489D01*
X101730264Y-54733501D01*
X101790602Y-54879172D01*
X101790609Y-54879185D01*
X101878210Y-55010288D01*
X101878213Y-55010292D01*
X105866462Y-58998540D01*
X105899947Y-59059863D01*
X105902781Y-59086221D01*
X105902781Y-59604126D01*
X105883096Y-59671165D01*
X105830292Y-59716920D01*
X105761134Y-59726864D01*
X105697578Y-59697839D01*
X105691100Y-59691807D01*
X102126379Y-56127086D01*
X102125830Y-56126480D01*
X100877563Y-54878213D01*
X100877559Y-54878210D01*
X100746456Y-54790609D01*
X100746443Y-54790602D01*
X100600772Y-54730264D01*
X100600760Y-54730261D01*
X100446116Y-54699500D01*
X100446113Y-54699500D01*
X100288429Y-54699500D01*
X100288426Y-54699500D01*
X100133781Y-54730261D01*
X100133769Y-54730264D01*
X99988098Y-54790602D01*
X99988085Y-54790609D01*
X99856982Y-54878210D01*
X99856978Y-54878213D01*
X99745484Y-54989707D01*
X99745481Y-54989711D01*
X99657880Y-55120814D01*
X99657873Y-55120827D01*
X99597535Y-55266498D01*
X99597532Y-55266510D01*
X99566771Y-55421153D01*
X69800500Y-55421153D01*
X69800500Y-54421158D01*
X69800500Y-52271158D01*
X88849500Y-52271158D01*
X88849500Y-52279293D01*
X88849500Y-52428846D01*
X88880261Y-52583489D01*
X88880264Y-52583501D01*
X88940602Y-52729172D01*
X88940609Y-52729185D01*
X89028210Y-52860288D01*
X89028213Y-52860292D01*
X89139707Y-52971786D01*
X89139711Y-52971789D01*
X89270814Y-53059390D01*
X89270827Y-53059397D01*
X89416498Y-53119735D01*
X89416503Y-53119737D01*
X89571153Y-53150499D01*
X89571156Y-53150500D01*
X89571158Y-53150500D01*
X89728844Y-53150500D01*
X89728845Y-53150499D01*
X89883497Y-53119737D01*
X89948033Y-53093005D01*
X90027548Y-53060070D01*
X90097017Y-53052601D01*
X90122452Y-53060070D01*
X90266498Y-53119735D01*
X90266503Y-53119737D01*
X90421153Y-53150499D01*
X90421156Y-53150500D01*
X90421158Y-53150500D01*
X90578844Y-53150500D01*
X90578845Y-53150499D01*
X90655152Y-53135320D01*
X90733488Y-53119739D01*
X90733489Y-53119738D01*
X90733497Y-53119737D01*
X90757155Y-53109937D01*
X90804604Y-53100500D01*
X100223920Y-53100500D01*
X100321462Y-53081096D01*
X100368913Y-53071658D01*
X100505495Y-53015084D01*
X100584865Y-52962051D01*
X100628416Y-52932952D01*
X103464213Y-50097155D01*
X123325000Y-50097155D01*
X123325000Y-52345000D01*
X123896447Y-52345000D01*
X123896447Y-52344999D01*
X124603553Y-52344999D01*
X124603554Y-52345000D01*
X124696446Y-52345000D01*
X124696446Y-52344999D01*
X125903553Y-52344999D01*
X125903554Y-52345000D01*
X125996446Y-52345000D01*
X125996446Y-52344999D01*
X125950000Y-52298553D01*
X125903553Y-52344999D01*
X124696446Y-52344999D01*
X124650000Y-52298553D01*
X124603553Y-52344999D01*
X123896447Y-52344999D01*
X124013221Y-52228226D01*
X124296446Y-51945001D01*
X124296446Y-51944999D01*
X124266610Y-51915163D01*
X124500000Y-51915163D01*
X124500000Y-51974837D01*
X124522836Y-52029968D01*
X124565032Y-52072164D01*
X124620163Y-52095000D01*
X124679837Y-52095000D01*
X124734968Y-52072164D01*
X124777164Y-52029968D01*
X124800000Y-51974837D01*
X124800000Y-51945000D01*
X125003553Y-51945000D01*
X125049999Y-51991446D01*
X125050000Y-51991446D01*
X125550000Y-51991446D01*
X125596446Y-51945001D01*
X125596446Y-51944999D01*
X125566610Y-51915163D01*
X125800000Y-51915163D01*
X125800000Y-51974837D01*
X125822836Y-52029968D01*
X125865032Y-52072164D01*
X125920163Y-52095000D01*
X125979837Y-52095000D01*
X126034968Y-52072164D01*
X126077164Y-52029968D01*
X126100000Y-51974837D01*
X126100000Y-51915163D01*
X126077164Y-51860032D01*
X126034968Y-51817836D01*
X125979837Y-51795000D01*
X125920163Y-51795000D01*
X125865032Y-51817836D01*
X125822836Y-51860032D01*
X125800000Y-51915163D01*
X125566610Y-51915163D01*
X125550000Y-51898553D01*
X125550000Y-51991446D01*
X125050000Y-51991446D01*
X125050000Y-51898553D01*
X125003553Y-51945000D01*
X124800000Y-51945000D01*
X124800000Y-51915163D01*
X124777164Y-51860032D01*
X124734968Y-51817836D01*
X124679837Y-51795000D01*
X124620163Y-51795000D01*
X124565032Y-51817836D01*
X124522836Y-51860032D01*
X124500000Y-51915163D01*
X124266610Y-51915163D01*
X123903295Y-51551848D01*
X123869810Y-51490525D01*
X123874794Y-51420833D01*
X123903295Y-51376486D01*
X123984781Y-51295000D01*
X124353553Y-51295000D01*
X124650000Y-51591446D01*
X124650001Y-51591446D01*
X124946446Y-51295001D01*
X124946446Y-51295000D01*
X125653553Y-51295000D01*
X125950000Y-51591446D01*
X125950001Y-51591446D01*
X126246446Y-51295001D01*
X126246446Y-51294999D01*
X125950001Y-50998553D01*
X125950000Y-50998553D01*
X125653553Y-51295000D01*
X124946446Y-51295000D01*
X124946446Y-51294999D01*
X124650001Y-50998553D01*
X124650000Y-50998553D01*
X124353553Y-51295000D01*
X123984781Y-51295000D01*
X123903294Y-51213513D01*
X123869809Y-51152190D01*
X123874793Y-51082498D01*
X123903294Y-51038151D01*
X124326283Y-50615163D01*
X124500000Y-50615163D01*
X124500000Y-50674837D01*
X124522836Y-50729968D01*
X124565032Y-50772164D01*
X124620163Y-50795000D01*
X124679837Y-50795000D01*
X124734968Y-50772164D01*
X124777164Y-50729968D01*
X124800000Y-50674837D01*
X124800000Y-50645000D01*
X125003553Y-50645000D01*
X125049999Y-50691446D01*
X125050000Y-50691446D01*
X125550000Y-50691446D01*
X125596446Y-50645001D01*
X125596446Y-50644999D01*
X125566610Y-50615163D01*
X125800000Y-50615163D01*
X125800000Y-50674837D01*
X125822836Y-50729968D01*
X125865032Y-50772164D01*
X125920163Y-50795000D01*
X125979837Y-50795000D01*
X126034968Y-50772164D01*
X126077164Y-50729968D01*
X126100000Y-50674837D01*
X126100000Y-50615163D01*
X126077164Y-50560032D01*
X126034968Y-50517836D01*
X125979837Y-50495000D01*
X125920163Y-50495000D01*
X125865032Y-50517836D01*
X125822836Y-50560032D01*
X125800000Y-50615163D01*
X125566610Y-50615163D01*
X125550000Y-50598553D01*
X125550000Y-50691446D01*
X125050000Y-50691446D01*
X125050000Y-50598553D01*
X125003553Y-50645000D01*
X124800000Y-50645000D01*
X124800000Y-50615163D01*
X124777164Y-50560032D01*
X124734968Y-50517836D01*
X124679837Y-50495000D01*
X124620163Y-50495000D01*
X124565032Y-50517836D01*
X124522836Y-50560032D01*
X124500000Y-50615163D01*
X124326283Y-50615163D01*
X124435489Y-50505957D01*
X124473223Y-50468223D01*
X125049999Y-49891446D01*
X125550000Y-49891446D01*
X126126777Y-50468223D01*
X126696704Y-51038151D01*
X126730189Y-51099474D01*
X126725205Y-51169166D01*
X126696704Y-51213513D01*
X126615218Y-51294999D01*
X126696704Y-51376485D01*
X126730189Y-51437808D01*
X126725205Y-51507500D01*
X126696704Y-51551848D01*
X126303553Y-51944999D01*
X126303553Y-51945000D01*
X126703553Y-52345000D01*
X127275000Y-52345000D01*
X127275000Y-50097172D01*
X127274999Y-50097155D01*
X127268598Y-50037627D01*
X127268596Y-50037620D01*
X127218354Y-49902913D01*
X127218350Y-49902906D01*
X127132190Y-49787812D01*
X127132187Y-49787809D01*
X127017093Y-49701649D01*
X127017086Y-49701645D01*
X126882379Y-49651403D01*
X126882372Y-49651401D01*
X126822844Y-49645000D01*
X125550000Y-49645000D01*
X125550000Y-49891446D01*
X125049999Y-49891446D01*
X125050000Y-49891445D01*
X125050000Y-49645000D01*
X123777155Y-49645000D01*
X123717627Y-49651401D01*
X123717620Y-49651403D01*
X123582913Y-49701645D01*
X123582906Y-49701649D01*
X123467812Y-49787809D01*
X123467809Y-49787812D01*
X123381649Y-49902906D01*
X123381645Y-49902913D01*
X123331403Y-50037620D01*
X123331401Y-50037627D01*
X123325000Y-50097155D01*
X103464213Y-50097155D01*
X107274549Y-46286819D01*
X107335872Y-46253334D01*
X107362230Y-46250500D01*
X107945396Y-46250500D01*
X107992844Y-46259937D01*
X108016503Y-46269737D01*
X108016508Y-46269738D01*
X108016511Y-46269739D01*
X108171153Y-46300499D01*
X108171156Y-46300500D01*
X108171158Y-46300500D01*
X108328844Y-46300500D01*
X108328845Y-46300499D01*
X108483497Y-46269737D01*
X108629179Y-46209394D01*
X108760289Y-46121789D01*
X108871789Y-46010289D01*
X108959394Y-45879179D01*
X109019737Y-45733497D01*
X109050500Y-45578842D01*
X109050500Y-45421158D01*
X109050500Y-45421155D01*
X109050499Y-45421153D01*
X109019738Y-45266510D01*
X109019737Y-45266503D01*
X109006062Y-45233489D01*
X108959397Y-45120827D01*
X108959390Y-45120814D01*
X108871789Y-44989711D01*
X108871786Y-44989707D01*
X108783170Y-44901091D01*
X108749685Y-44839768D01*
X108754669Y-44770076D01*
X108756258Y-44766037D01*
X108769737Y-44733497D01*
X108800500Y-44578842D01*
X108800500Y-44421158D01*
X108800500Y-44421155D01*
X108800499Y-44421153D01*
X108791957Y-44378210D01*
X108769737Y-44266503D01*
X108769735Y-44266498D01*
X108709397Y-44120827D01*
X108709390Y-44120814D01*
X108621789Y-43989711D01*
X108621786Y-43989707D01*
X108510292Y-43878213D01*
X108510288Y-43878210D01*
X108379185Y-43790609D01*
X108379172Y-43790602D01*
X108233501Y-43730264D01*
X108233489Y-43730261D01*
X108078845Y-43699500D01*
X108078842Y-43699500D01*
X107921158Y-43699500D01*
X107921155Y-43699500D01*
X107766511Y-43730260D01*
X107766506Y-43730262D01*
X107766504Y-43730262D01*
X107766503Y-43730263D01*
X107742844Y-43740062D01*
X107695396Y-43749500D01*
X106426080Y-43749500D01*
X106281092Y-43778340D01*
X106281086Y-43778342D01*
X106144508Y-43834914D01*
X106144496Y-43834921D01*
X106095269Y-43867813D01*
X106021588Y-43917044D01*
X106021580Y-43917050D01*
X99225451Y-50713181D01*
X99164128Y-50746666D01*
X99137770Y-50749500D01*
X90214005Y-50749500D01*
X90069017Y-50778340D01*
X90069007Y-50778343D01*
X89932436Y-50834912D01*
X89932423Y-50834919D01*
X89809509Y-50917048D01*
X89809505Y-50917051D01*
X89067052Y-51659503D01*
X89067046Y-51659510D01*
X89023623Y-51724498D01*
X89023624Y-51724499D01*
X88984913Y-51782433D01*
X88928343Y-51919007D01*
X88928340Y-51919016D01*
X88899564Y-52063679D01*
X88898860Y-52065997D01*
X88898726Y-52067567D01*
X88896414Y-52077509D01*
X88880263Y-52116503D01*
X88849500Y-52271158D01*
X69800500Y-52271158D01*
X69800500Y-50421153D01*
X77699500Y-50421153D01*
X77699500Y-50578846D01*
X77730261Y-50733489D01*
X77730264Y-50733501D01*
X77790602Y-50879172D01*
X77790609Y-50879185D01*
X77878210Y-51010288D01*
X77878213Y-51010292D01*
X77989707Y-51121786D01*
X77989711Y-51121789D01*
X78120814Y-51209390D01*
X78120827Y-51209397D01*
X78266498Y-51269735D01*
X78266503Y-51269737D01*
X78393503Y-51294999D01*
X78421153Y-51300499D01*
X78421156Y-51300500D01*
X78421158Y-51300500D01*
X78578844Y-51300500D01*
X78578845Y-51300499D01*
X78733497Y-51269737D01*
X78879179Y-51209394D01*
X79010289Y-51121789D01*
X80871789Y-49260289D01*
X80959394Y-49129179D01*
X81019738Y-48983497D01*
X81050500Y-48828842D01*
X81050500Y-48671157D01*
X81019738Y-48516503D01*
X80959394Y-48370821D01*
X80959392Y-48370818D01*
X80959390Y-48370814D01*
X80871789Y-48239711D01*
X80871786Y-48239707D01*
X80760292Y-48128213D01*
X80760288Y-48128210D01*
X80629185Y-48040609D01*
X80629175Y-48040604D01*
X80483497Y-47980262D01*
X80483489Y-47980260D01*
X80328847Y-47949500D01*
X80328843Y-47949500D01*
X80171158Y-47949500D01*
X80171153Y-47949500D01*
X80016510Y-47980260D01*
X80016502Y-47980262D01*
X79870824Y-48040604D01*
X79870814Y-48040609D01*
X79739711Y-48128210D01*
X79739707Y-48128213D01*
X77878213Y-49989707D01*
X77878210Y-49989711D01*
X77790609Y-50120814D01*
X77790602Y-50120827D01*
X77730264Y-50266498D01*
X77730261Y-50266510D01*
X77699500Y-50421153D01*
X69800500Y-50421153D01*
X69800500Y-49333658D01*
X69800500Y-49171153D01*
X76199500Y-49171153D01*
X76199500Y-49328846D01*
X76230261Y-49483489D01*
X76230264Y-49483501D01*
X76290602Y-49629172D01*
X76290609Y-49629185D01*
X76378210Y-49760288D01*
X76378213Y-49760292D01*
X76489707Y-49871786D01*
X76489711Y-49871789D01*
X76620814Y-49959390D01*
X76620827Y-49959397D01*
X76694013Y-49989711D01*
X76766503Y-50019737D01*
X76921153Y-50050499D01*
X76921156Y-50050500D01*
X76921158Y-50050500D01*
X77078844Y-50050500D01*
X77078845Y-50050499D01*
X77233497Y-50019737D01*
X77379179Y-49959394D01*
X77510289Y-49871789D01*
X79821789Y-47560289D01*
X79909394Y-47429179D01*
X79909395Y-47429176D01*
X79909397Y-47429173D01*
X79912719Y-47421153D01*
X94699500Y-47421153D01*
X94699500Y-47578846D01*
X94730261Y-47733489D01*
X94730264Y-47733501D01*
X94790602Y-47879172D01*
X94790609Y-47879185D01*
X94825304Y-47931109D01*
X94846182Y-47997786D01*
X94827698Y-48065167D01*
X94825304Y-48068891D01*
X94790609Y-48120814D01*
X94790602Y-48120827D01*
X94730264Y-48266498D01*
X94730261Y-48266510D01*
X94699500Y-48421153D01*
X94699500Y-48578846D01*
X94730261Y-48733489D01*
X94730264Y-48733501D01*
X94790602Y-48879172D01*
X94790609Y-48879185D01*
X94878210Y-49010288D01*
X94878213Y-49010292D01*
X94989707Y-49121786D01*
X94989711Y-49121789D01*
X95120814Y-49209390D01*
X95120827Y-49209397D01*
X95266498Y-49269735D01*
X95266503Y-49269737D01*
X95421153Y-49300499D01*
X95421156Y-49300500D01*
X95421158Y-49300500D01*
X95578844Y-49300500D01*
X95578845Y-49300499D01*
X95733497Y-49269737D01*
X95879179Y-49209394D01*
X96010289Y-49121789D01*
X96121789Y-49010289D01*
X96209394Y-48879179D01*
X96209395Y-48879176D01*
X96209397Y-48879173D01*
X96267163Y-48739711D01*
X96269192Y-48734810D01*
X96296069Y-48694586D01*
X98194586Y-46796069D01*
X98234810Y-46769192D01*
X98289435Y-46746566D01*
X98379173Y-46709397D01*
X98379176Y-46709395D01*
X98379179Y-46709394D01*
X98510289Y-46621789D01*
X98621789Y-46510289D01*
X98709394Y-46379179D01*
X98769737Y-46233497D01*
X98800500Y-46078842D01*
X98800500Y-45921158D01*
X98800500Y-45921155D01*
X98800499Y-45921153D01*
X98780543Y-45820827D01*
X98769737Y-45766503D01*
X98737929Y-45689711D01*
X98709396Y-45620825D01*
X98709394Y-45620822D01*
X98709394Y-45620821D01*
X98674694Y-45568889D01*
X98653816Y-45502215D01*
X98672300Y-45434835D01*
X98674676Y-45431136D01*
X98709394Y-45379179D01*
X98769737Y-45233497D01*
X98800500Y-45078842D01*
X98800500Y-44921158D01*
X98800500Y-44921155D01*
X98800499Y-44921153D01*
X98784310Y-44839768D01*
X98769737Y-44766503D01*
X98755941Y-44733197D01*
X98709397Y-44620827D01*
X98709390Y-44620814D01*
X98621789Y-44489711D01*
X98621786Y-44489707D01*
X98510292Y-44378213D01*
X98510288Y-44378210D01*
X98379185Y-44290609D01*
X98379172Y-44290602D01*
X98233501Y-44230264D01*
X98233489Y-44230261D01*
X98078845Y-44199500D01*
X98078842Y-44199500D01*
X97921158Y-44199500D01*
X97921155Y-44199500D01*
X97766510Y-44230261D01*
X97766498Y-44230264D01*
X97620827Y-44290602D01*
X97620814Y-44290609D01*
X97489711Y-44378210D01*
X97489707Y-44378213D01*
X97378213Y-44489707D01*
X97378210Y-44489711D01*
X97290609Y-44620814D01*
X97290604Y-44620823D01*
X97230809Y-44765184D01*
X97203929Y-44805412D01*
X95305412Y-46703929D01*
X95265184Y-46730809D01*
X95120823Y-46790604D01*
X95120814Y-46790609D01*
X94989711Y-46878210D01*
X94989707Y-46878213D01*
X94878213Y-46989707D01*
X94878210Y-46989711D01*
X94790609Y-47120814D01*
X94790602Y-47120827D01*
X94730264Y-47266498D01*
X94730261Y-47266510D01*
X94699500Y-47421153D01*
X79912719Y-47421153D01*
X79934895Y-47367614D01*
X79934895Y-47367613D01*
X79969737Y-47283497D01*
X80000500Y-47128842D01*
X80000500Y-46971157D01*
X80000500Y-46971154D01*
X79969738Y-46816508D01*
X79969737Y-46816507D01*
X79969737Y-46816503D01*
X79961274Y-46796072D01*
X79909397Y-46670827D01*
X79909390Y-46670814D01*
X79821789Y-46539711D01*
X79821786Y-46539707D01*
X79710292Y-46428213D01*
X79710288Y-46428210D01*
X79579185Y-46340609D01*
X79579172Y-46340602D01*
X79433501Y-46280264D01*
X79433491Y-46280261D01*
X79278845Y-46249500D01*
X79278843Y-46249500D01*
X79121158Y-46249500D01*
X79121155Y-46249500D01*
X78966510Y-46280261D01*
X78966498Y-46280264D01*
X78820827Y-46340602D01*
X78820814Y-46340609D01*
X78689711Y-46428210D01*
X78689707Y-46428213D01*
X76378213Y-48739707D01*
X76378210Y-48739711D01*
X76290609Y-48870814D01*
X76290602Y-48870827D01*
X76230264Y-49016498D01*
X76230261Y-49016510D01*
X76199500Y-49171153D01*
X69800500Y-49171153D01*
X69800500Y-44354760D01*
X72765893Y-44354760D01*
X72765893Y-44512453D01*
X72796654Y-44667096D01*
X72796657Y-44667108D01*
X72856995Y-44812779D01*
X72857002Y-44812792D01*
X72944603Y-44943895D01*
X72944606Y-44943899D01*
X74822493Y-46821786D01*
X74822497Y-46821789D01*
X74953600Y-46909390D01*
X74953613Y-46909397D01*
X75099284Y-46969735D01*
X75099289Y-46969737D01*
X75253939Y-47000499D01*
X75253942Y-47000500D01*
X75253944Y-47000500D01*
X75411630Y-47000500D01*
X75411631Y-47000499D01*
X75566283Y-46969737D01*
X75711965Y-46909394D01*
X75843075Y-46821789D01*
X75954575Y-46710289D01*
X76042180Y-46579179D01*
X76102523Y-46433497D01*
X76133286Y-46278842D01*
X76133286Y-46121158D01*
X76133286Y-46121155D01*
X76133285Y-46121153D01*
X76102523Y-45966503D01*
X76083741Y-45921158D01*
X76042183Y-45820827D01*
X76042176Y-45820814D01*
X75954575Y-45689711D01*
X75954572Y-45689707D01*
X74076685Y-43811820D01*
X74076681Y-43811817D01*
X73945578Y-43724216D01*
X73945565Y-43724209D01*
X73799894Y-43663871D01*
X73799882Y-43663868D01*
X73645238Y-43633107D01*
X73645235Y-43633107D01*
X73487551Y-43633107D01*
X73487548Y-43633107D01*
X73332903Y-43663868D01*
X73332891Y-43663871D01*
X73187220Y-43724209D01*
X73187207Y-43724216D01*
X73056104Y-43811817D01*
X73056100Y-43811820D01*
X72944606Y-43923314D01*
X72944603Y-43923318D01*
X72857002Y-44054421D01*
X72856995Y-44054434D01*
X72796657Y-44200105D01*
X72796654Y-44200117D01*
X72765893Y-44354760D01*
X69800500Y-44354760D01*
X69800500Y-42833658D01*
X69800500Y-40144440D01*
X69820185Y-40077401D01*
X69872989Y-40031646D01*
X69942147Y-40021702D01*
X70005703Y-40050727D01*
X70012181Y-40056759D01*
X71077207Y-41121786D01*
X71077211Y-41121789D01*
X71208314Y-41209390D01*
X71208321Y-41209394D01*
X71354003Y-41269738D01*
X71489986Y-41296786D01*
X71508653Y-41300499D01*
X71508657Y-41300500D01*
X71508658Y-41300500D01*
X71666343Y-41300500D01*
X77957650Y-41300500D01*
X77971698Y-41304024D01*
X77983016Y-41303122D01*
X78005154Y-41312417D01*
X78016184Y-41315185D01*
X78021513Y-41318038D01*
X78120821Y-41384394D01*
X78223833Y-41427062D01*
X78266502Y-41444737D01*
X78381416Y-41467595D01*
X78421152Y-41475499D01*
X78421155Y-41475500D01*
X78421157Y-41475500D01*
X78578844Y-41475500D01*
X78578845Y-41475499D01*
X78733497Y-41444737D01*
X78879179Y-41384394D01*
X79010289Y-41296789D01*
X79121789Y-41185289D01*
X79209394Y-41054179D01*
X79269737Y-40908497D01*
X79300500Y-40753842D01*
X79300500Y-40596158D01*
X79281808Y-40502185D01*
X79269737Y-40441502D01*
X79252062Y-40398833D01*
X79209394Y-40295821D01*
X79121789Y-40164711D01*
X79010289Y-40053211D01*
X78964364Y-40007286D01*
X78835292Y-39878213D01*
X78835288Y-39878210D01*
X78704185Y-39790609D01*
X78704172Y-39790602D01*
X78558501Y-39730264D01*
X78558489Y-39730261D01*
X78403845Y-39699500D01*
X78403842Y-39699500D01*
X71970440Y-39699500D01*
X71903401Y-39679815D01*
X71882759Y-39663181D01*
X71385320Y-39165742D01*
X83172903Y-39165742D01*
X83172903Y-39171337D01*
X83172903Y-39323430D01*
X83203664Y-39478073D01*
X83203667Y-39478085D01*
X83264005Y-39623756D01*
X83264012Y-39623769D01*
X83351613Y-39754872D01*
X83351616Y-39754876D01*
X83463110Y-39866370D01*
X83463114Y-39866373D01*
X83594217Y-39953974D01*
X83594230Y-39953981D01*
X83722922Y-40007286D01*
X83739906Y-40014321D01*
X83894556Y-40045083D01*
X83894559Y-40045084D01*
X83894561Y-40045084D01*
X84052247Y-40045084D01*
X84052248Y-40045083D01*
X84206900Y-40014321D01*
X84352582Y-39953978D01*
X84483692Y-39866373D01*
X84621789Y-39728276D01*
X84709394Y-39597166D01*
X84769737Y-39451484D01*
X84800500Y-39296829D01*
X84800500Y-39139144D01*
X84800500Y-37595515D01*
X84802883Y-37571321D01*
X84808965Y-37540747D01*
X84808965Y-37383060D01*
X84808964Y-37383058D01*
X84786423Y-37269737D01*
X84778202Y-37228408D01*
X84770326Y-37209394D01*
X84770324Y-37209390D01*
X84748593Y-37156926D01*
X84717859Y-37082726D01*
X84717857Y-37082724D01*
X84717857Y-37082722D01*
X84630254Y-36951616D01*
X84630251Y-36951612D01*
X84518757Y-36840118D01*
X84518753Y-36840115D01*
X84387650Y-36752514D01*
X84387637Y-36752507D01*
X84241966Y-36692169D01*
X84241954Y-36692166D01*
X84087310Y-36661405D01*
X84087307Y-36661405D01*
X83929622Y-36661405D01*
X83929620Y-36661405D01*
X83837206Y-36679788D01*
X83837205Y-36679788D01*
X83774975Y-36692166D01*
X83774963Y-36692169D01*
X83629292Y-36752507D01*
X83629279Y-36752514D01*
X83498178Y-36840114D01*
X83498176Y-36840115D01*
X83498176Y-36840116D01*
X83489711Y-36848581D01*
X83459120Y-36879172D01*
X83378209Y-36960082D01*
X83290609Y-37091184D01*
X83290602Y-37091197D01*
X83230264Y-37236868D01*
X83230261Y-37236880D01*
X83199500Y-37391523D01*
X83199500Y-39019818D01*
X83197399Y-39041143D01*
X83197316Y-39042988D01*
X83197221Y-39043483D01*
X83172903Y-39165742D01*
X71385320Y-39165742D01*
X69799319Y-37579741D01*
X69765834Y-37518418D01*
X69763000Y-37492060D01*
X69763000Y-32453996D01*
X70666657Y-32453996D01*
X70666657Y-32611689D01*
X70697418Y-32766332D01*
X70697420Y-32766340D01*
X70707218Y-32789994D01*
X70716657Y-32837447D01*
X70716657Y-36195396D01*
X70707219Y-36242844D01*
X70697420Y-36266503D01*
X70697419Y-36266506D01*
X70697417Y-36266511D01*
X70666657Y-36421153D01*
X70666657Y-36578846D01*
X70697418Y-36733489D01*
X70697421Y-36733501D01*
X70757759Y-36879172D01*
X70757766Y-36879185D01*
X70845367Y-37010288D01*
X70845370Y-37010292D01*
X70956864Y-37121786D01*
X70956868Y-37121789D01*
X71087971Y-37209390D01*
X71087984Y-37209397D01*
X71233655Y-37269735D01*
X71233660Y-37269737D01*
X71388310Y-37300499D01*
X71388313Y-37300500D01*
X71388315Y-37300500D01*
X71546001Y-37300500D01*
X71546002Y-37300499D01*
X71700654Y-37269737D01*
X71846336Y-37209394D01*
X71977446Y-37121789D01*
X72088946Y-37010289D01*
X72176551Y-36879179D01*
X72236894Y-36733497D01*
X72267657Y-36578842D01*
X72267657Y-36421158D01*
X72267657Y-36421155D01*
X72267656Y-36421153D01*
X72236896Y-36266511D01*
X72236895Y-36266508D01*
X72236894Y-36266503D01*
X72227094Y-36242844D01*
X72217657Y-36195396D01*
X72217657Y-32837447D01*
X72227096Y-32789994D01*
X72236894Y-32766340D01*
X72267657Y-32611685D01*
X72267657Y-32454001D01*
X72267657Y-32453998D01*
X72267656Y-32453996D01*
X72239083Y-32310351D01*
X72236894Y-32299346D01*
X72207172Y-32227589D01*
X72176554Y-32153670D01*
X72176547Y-32153657D01*
X72088946Y-32022554D01*
X72088943Y-32022550D01*
X71977449Y-31911056D01*
X71977445Y-31911053D01*
X71846342Y-31823452D01*
X71846329Y-31823445D01*
X71700658Y-31763107D01*
X71700646Y-31763104D01*
X71546002Y-31732343D01*
X71545999Y-31732343D01*
X71388315Y-31732343D01*
X71388312Y-31732343D01*
X71233667Y-31763104D01*
X71233655Y-31763107D01*
X71087984Y-31823445D01*
X71087971Y-31823452D01*
X70956868Y-31911053D01*
X70956864Y-31911056D01*
X70845370Y-32022550D01*
X70845367Y-32022554D01*
X70757766Y-32153657D01*
X70757759Y-32153670D01*
X70697421Y-32299341D01*
X70697418Y-32299353D01*
X70666657Y-32453996D01*
X69763000Y-32453996D01*
X69763000Y-32186599D01*
X69768340Y-32150601D01*
X69769739Y-32145989D01*
X69790245Y-32042893D01*
X69800500Y-31991342D01*
X69800500Y-31833658D01*
X69800500Y-27645529D01*
X69820185Y-27578490D01*
X69855610Y-27542426D01*
X69867789Y-27534289D01*
X74095259Y-23306819D01*
X74156582Y-23273334D01*
X74182940Y-23270500D01*
X93108844Y-23270500D01*
X93108845Y-23270499D01*
X93263497Y-23239737D01*
X93371056Y-23195185D01*
X93395793Y-23184939D01*
X93443245Y-23175500D01*
X98225500Y-23175500D01*
X98292539Y-23195185D01*
X98338294Y-23247989D01*
X98349500Y-23299500D01*
X98349500Y-33623544D01*
X98387947Y-33816833D01*
X98387949Y-33816837D01*
X98410038Y-33870164D01*
X98463366Y-33998911D01*
X98463371Y-33998920D01*
X98572860Y-34162781D01*
X98572863Y-34162785D01*
X98716537Y-34306459D01*
X98716559Y-34306479D01*
X100963181Y-36553101D01*
X100996666Y-36614424D01*
X100999500Y-36640782D01*
X100999500Y-40134217D01*
X100979815Y-40201256D01*
X100963181Y-40221898D01*
X100362220Y-40822859D01*
X100362218Y-40822861D01*
X100305073Y-40880006D01*
X100222859Y-40962219D01*
X100113369Y-41126082D01*
X100080768Y-41204788D01*
X100080764Y-41204797D01*
X100078861Y-41209394D01*
X100037949Y-41308164D01*
X100024229Y-41377139D01*
X100022823Y-41384206D01*
X100022823Y-41384207D01*
X99999500Y-41501456D01*
X99999500Y-41501459D01*
X99999500Y-47098541D01*
X99999500Y-47098543D01*
X99999499Y-47098543D01*
X100037947Y-47291829D01*
X100037950Y-47291839D01*
X100113364Y-47473907D01*
X100113371Y-47473920D01*
X100222860Y-47637781D01*
X100222863Y-47637785D01*
X100362214Y-47777136D01*
X100362218Y-47777139D01*
X100526079Y-47886628D01*
X100526092Y-47886635D01*
X100677864Y-47949500D01*
X100708165Y-47962051D01*
X100708169Y-47962051D01*
X100708170Y-47962052D01*
X100901456Y-48000500D01*
X100901459Y-48000500D01*
X101098543Y-48000500D01*
X101253351Y-47969706D01*
X101291835Y-47962051D01*
X101473914Y-47886632D01*
X101637782Y-47777139D01*
X101777139Y-47637782D01*
X101886632Y-47473914D01*
X101962051Y-47291835D01*
X101974632Y-47228582D01*
X102000500Y-47098543D01*
X102000500Y-42065782D01*
X102020185Y-41998743D01*
X102036819Y-41978101D01*
X102403563Y-41611358D01*
X102777140Y-41237781D01*
X102886632Y-41073914D01*
X102962052Y-40891835D01*
X103000501Y-40698540D01*
X103000501Y-40501459D01*
X103000501Y-40496349D01*
X103000500Y-40496323D01*
X103000500Y-36076458D01*
X103000499Y-36076455D01*
X102976950Y-35958064D01*
X102962052Y-35883165D01*
X102898717Y-35730263D01*
X102886632Y-35701086D01*
X102777139Y-35537218D01*
X102637782Y-35397861D01*
X102637781Y-35397860D01*
X100962781Y-33722861D01*
X100386819Y-33146899D01*
X100353334Y-33085576D01*
X100351659Y-33070000D01*
X132814157Y-33070000D01*
X133668012Y-33070000D01*
X133650795Y-33079940D01*
X133594940Y-33135795D01*
X133555444Y-33204204D01*
X133535000Y-33280504D01*
X133535000Y-33359496D01*
X133555444Y-33435796D01*
X133594940Y-33504205D01*
X133650795Y-33560060D01*
X133668012Y-33570000D01*
X132814157Y-33570000D01*
X132825350Y-33626274D01*
X132825351Y-33626276D01*
X132904500Y-33817358D01*
X132904505Y-33817368D01*
X133019410Y-33989335D01*
X133019413Y-33989339D01*
X133165660Y-34135586D01*
X133165664Y-34135589D01*
X133337631Y-34250494D01*
X133337641Y-34250499D01*
X133528725Y-34329649D01*
X133528733Y-34329651D01*
X133731579Y-34369999D01*
X133731583Y-34370000D01*
X134085000Y-34370000D01*
X134085000Y-33620000D01*
X134585000Y-33620000D01*
X134585000Y-34370000D01*
X134938417Y-34370000D01*
X134938420Y-34369999D01*
X135141266Y-34329651D01*
X135141274Y-34329649D01*
X135332358Y-34250499D01*
X135332368Y-34250494D01*
X135504335Y-34135589D01*
X135504339Y-34135586D01*
X135650586Y-33989339D01*
X135650589Y-33989335D01*
X135765494Y-33817368D01*
X135765499Y-33817358D01*
X135844648Y-33626276D01*
X135844649Y-33626274D01*
X135855843Y-33570000D01*
X135001988Y-33570000D01*
X135019205Y-33560060D01*
X135075060Y-33504205D01*
X135114556Y-33435796D01*
X135135000Y-33359496D01*
X135135000Y-33280504D01*
X135114556Y-33204204D01*
X135075060Y-33135795D01*
X135019205Y-33079940D01*
X135001988Y-33070000D01*
X135855843Y-33070000D01*
X135844649Y-33013725D01*
X135844648Y-33013723D01*
X135765499Y-32822641D01*
X135765494Y-32822631D01*
X135650589Y-32650664D01*
X135650586Y-32650660D01*
X135504339Y-32504413D01*
X135504335Y-32504410D01*
X135332368Y-32389505D01*
X135332358Y-32389500D01*
X135141274Y-32310350D01*
X135141266Y-32310348D01*
X134938420Y-32270000D01*
X134585000Y-32270000D01*
X134585000Y-33020000D01*
X134085000Y-33020000D01*
X134085000Y-32270000D01*
X133731579Y-32270000D01*
X133528733Y-32310348D01*
X133528725Y-32310350D01*
X133337641Y-32389500D01*
X133337631Y-32389505D01*
X133165664Y-32504410D01*
X133165660Y-32504413D01*
X133019413Y-32650660D01*
X133019410Y-32650664D01*
X132904505Y-32822631D01*
X132904500Y-32822641D01*
X132825351Y-33013723D01*
X132825350Y-33013725D01*
X132814157Y-33070000D01*
X100351659Y-33070000D01*
X100350500Y-33059218D01*
X100350500Y-29421153D01*
X128199500Y-29421153D01*
X128199500Y-29578846D01*
X128230261Y-29733489D01*
X128230264Y-29733501D01*
X128290602Y-29879172D01*
X128290609Y-29879185D01*
X128378210Y-30010288D01*
X128378213Y-30010292D01*
X128489707Y-30121786D01*
X128489711Y-30121789D01*
X128620814Y-30209390D01*
X128620827Y-30209397D01*
X128708230Y-30245599D01*
X128766503Y-30269737D01*
X128833580Y-30283079D01*
X128895488Y-30315461D01*
X128897068Y-30317014D01*
X129615656Y-31035603D01*
X129615657Y-31035604D01*
X129615660Y-31035606D01*
X129615662Y-31035608D01*
X129722204Y-31106796D01*
X129840587Y-31155832D01*
X129840591Y-31155832D01*
X129840592Y-31155833D01*
X129966259Y-31180831D01*
X129966262Y-31180831D01*
X132167222Y-31180831D01*
X132234261Y-31200516D01*
X132236066Y-31201697D01*
X132292978Y-31239725D01*
X132292980Y-31239726D01*
X132292984Y-31239728D01*
X132370653Y-31271899D01*
X132438660Y-31300068D01*
X132593235Y-31330815D01*
X132593310Y-31330830D01*
X132593313Y-31330831D01*
X132593315Y-31330831D01*
X132751001Y-31330831D01*
X132751002Y-31330830D01*
X132905654Y-31300068D01*
X133051336Y-31239725D01*
X133182446Y-31152120D01*
X133293946Y-31040620D01*
X133381551Y-30909510D01*
X133441894Y-30763828D01*
X133472657Y-30609173D01*
X133472657Y-30451489D01*
X133472657Y-30451486D01*
X133472656Y-30451484D01*
X133441895Y-30296841D01*
X133441894Y-30296834D01*
X133405677Y-30209397D01*
X133381554Y-30151158D01*
X133381547Y-30151145D01*
X133309548Y-30043391D01*
X133288670Y-29976713D01*
X133307155Y-29909333D01*
X133359133Y-29862643D01*
X133412650Y-29850500D01*
X134275230Y-29850500D01*
X134337369Y-29868746D01*
X134337819Y-29867905D01*
X134341859Y-29870064D01*
X134342269Y-29870185D01*
X134343087Y-29870721D01*
X134343190Y-29870776D01*
X134463347Y-29920546D01*
X134470672Y-29923580D01*
X134470676Y-29923580D01*
X134470677Y-29923581D01*
X134606004Y-29950500D01*
X134606007Y-29950500D01*
X134743995Y-29950500D01*
X134835041Y-29932389D01*
X134879328Y-29923580D01*
X135006811Y-29870775D01*
X135121542Y-29794114D01*
X135219114Y-29696542D01*
X135295775Y-29581811D01*
X135297292Y-29578150D01*
X135315451Y-29534309D01*
X135348580Y-29454328D01*
X135368006Y-29356670D01*
X135375500Y-29318995D01*
X135375500Y-29181004D01*
X135348581Y-29045677D01*
X135348580Y-29045676D01*
X135348580Y-29045672D01*
X135348578Y-29045667D01*
X135295778Y-28918195D01*
X135295776Y-28918191D01*
X135295775Y-28918189D01*
X135229425Y-28818890D01*
X135208548Y-28752214D01*
X135227032Y-28684834D01*
X135229426Y-28681109D01*
X135239906Y-28665425D01*
X135295775Y-28581811D01*
X135348580Y-28454328D01*
X135375500Y-28318993D01*
X135375500Y-28181007D01*
X135375500Y-28181004D01*
X135348581Y-28045677D01*
X135348580Y-28045676D01*
X135348580Y-28045672D01*
X135348578Y-28045667D01*
X135295778Y-27918195D01*
X135295771Y-27918182D01*
X135219114Y-27803458D01*
X135219111Y-27803454D01*
X135121545Y-27705888D01*
X135121541Y-27705885D01*
X135006817Y-27629228D01*
X135006804Y-27629221D01*
X134879332Y-27576421D01*
X134879322Y-27576418D01*
X134743995Y-27549500D01*
X134743993Y-27549500D01*
X134675097Y-27549500D01*
X134608058Y-27529815D01*
X134587416Y-27513181D01*
X132178821Y-25104586D01*
X132165396Y-25080000D01*
X132149210Y-25057136D01*
X132148878Y-25049751D01*
X132145336Y-25043263D01*
X132147334Y-25015320D01*
X132146079Y-24987337D01*
X132149966Y-24978510D01*
X132150320Y-24973571D01*
X132159287Y-24954607D01*
X132161237Y-24951250D01*
X132209394Y-24879179D01*
X132269737Y-24733497D01*
X132300500Y-24578842D01*
X132300500Y-24430000D01*
X132814157Y-24430000D01*
X133668012Y-24430000D01*
X133650795Y-24439940D01*
X133594940Y-24495795D01*
X133555444Y-24564204D01*
X133535000Y-24640504D01*
X133535000Y-24719496D01*
X133555444Y-24795796D01*
X133594940Y-24864205D01*
X133650795Y-24920060D01*
X133668012Y-24930000D01*
X132814157Y-24930000D01*
X132825350Y-24986274D01*
X132825351Y-24986276D01*
X132904500Y-25177358D01*
X132904505Y-25177368D01*
X133019410Y-25349335D01*
X133019413Y-25349339D01*
X133165660Y-25495586D01*
X133165664Y-25495589D01*
X133337631Y-25610494D01*
X133337641Y-25610499D01*
X133528725Y-25689649D01*
X133528733Y-25689651D01*
X133731579Y-25729999D01*
X133731583Y-25730000D01*
X134085000Y-25730000D01*
X134085000Y-24980000D01*
X134585000Y-24980000D01*
X134585000Y-25730000D01*
X134938417Y-25730000D01*
X134938420Y-25729999D01*
X135141266Y-25689651D01*
X135141274Y-25689649D01*
X135332358Y-25610499D01*
X135332368Y-25610494D01*
X135504335Y-25495589D01*
X135504339Y-25495586D01*
X135650586Y-25349339D01*
X135650589Y-25349335D01*
X135765494Y-25177368D01*
X135765499Y-25177358D01*
X135844648Y-24986276D01*
X135844649Y-24986274D01*
X135855843Y-24930000D01*
X135001988Y-24930000D01*
X135019205Y-24920060D01*
X135075060Y-24864205D01*
X135114556Y-24795796D01*
X135135000Y-24719496D01*
X135135000Y-24640504D01*
X135114556Y-24564204D01*
X135075060Y-24495795D01*
X135019205Y-24439940D01*
X135001988Y-24430000D01*
X135855843Y-24430000D01*
X135844649Y-24373725D01*
X135844648Y-24373723D01*
X135765499Y-24182641D01*
X135765494Y-24182631D01*
X135650589Y-24010664D01*
X135650586Y-24010660D01*
X135504339Y-23864413D01*
X135504335Y-23864410D01*
X135332368Y-23749505D01*
X135332358Y-23749500D01*
X135141274Y-23670350D01*
X135141266Y-23670348D01*
X134938420Y-23630000D01*
X134585000Y-23630000D01*
X134585000Y-24380000D01*
X134085000Y-24380000D01*
X134085000Y-23630000D01*
X133731579Y-23630000D01*
X133528733Y-23670348D01*
X133528725Y-23670350D01*
X133337641Y-23749500D01*
X133337631Y-23749505D01*
X133165664Y-23864410D01*
X133165660Y-23864413D01*
X133019413Y-24010660D01*
X133019410Y-24010664D01*
X132904505Y-24182631D01*
X132904500Y-24182641D01*
X132825351Y-24373723D01*
X132825350Y-24373725D01*
X132814157Y-24430000D01*
X132300500Y-24430000D01*
X132300500Y-24421158D01*
X132300500Y-24421155D01*
X132300499Y-24421153D01*
X132291065Y-24373725D01*
X132269737Y-24266503D01*
X132262694Y-24249500D01*
X132209397Y-24120827D01*
X132209390Y-24120814D01*
X132121789Y-23989711D01*
X132121786Y-23989707D01*
X132010292Y-23878213D01*
X132010288Y-23878210D01*
X131879185Y-23790609D01*
X131879172Y-23790602D01*
X131733501Y-23730264D01*
X131733489Y-23730261D01*
X131578845Y-23699500D01*
X131578842Y-23699500D01*
X131421158Y-23699500D01*
X131421155Y-23699500D01*
X131266510Y-23730261D01*
X131266498Y-23730264D01*
X131120827Y-23790602D01*
X131120814Y-23790609D01*
X130989711Y-23878210D01*
X130989707Y-23878213D01*
X130878213Y-23989707D01*
X130878210Y-23989711D01*
X130790609Y-24120814D01*
X130790602Y-24120827D01*
X130730264Y-24266498D01*
X130730261Y-24266510D01*
X130699500Y-24421153D01*
X130699500Y-24578846D01*
X130730261Y-24733489D01*
X130730264Y-24733501D01*
X130790602Y-24879172D01*
X130790609Y-24879185D01*
X130878602Y-25010874D01*
X130884252Y-25028920D01*
X130894477Y-25044830D01*
X130898928Y-25075789D01*
X130899480Y-25077551D01*
X130899500Y-25079765D01*
X130899500Y-25188330D01*
X130899499Y-25188348D01*
X130899499Y-25354054D01*
X130899498Y-25354054D01*
X130940423Y-25506785D01*
X130969358Y-25556900D01*
X130969359Y-25556904D01*
X130969360Y-25556904D01*
X131019479Y-25643714D01*
X131019481Y-25643717D01*
X131138349Y-25762585D01*
X131138355Y-25762590D01*
X132863584Y-27487819D01*
X132897069Y-27549142D01*
X132892085Y-27618834D01*
X132850213Y-27674767D01*
X132784749Y-27699184D01*
X132775903Y-27699500D01*
X132646155Y-27699500D01*
X132491510Y-27730261D01*
X132491498Y-27730264D01*
X132345827Y-27790602D01*
X132345814Y-27790609D01*
X132214125Y-27878602D01*
X132196078Y-27884252D01*
X132180169Y-27894477D01*
X132149207Y-27898928D01*
X132147447Y-27899480D01*
X132145234Y-27899500D01*
X132086670Y-27899500D01*
X132086654Y-27899499D01*
X132079058Y-27899499D01*
X131920943Y-27899499D01*
X131844579Y-27919961D01*
X131768214Y-27940423D01*
X131768209Y-27940426D01*
X131631290Y-28019475D01*
X131631282Y-28019481D01*
X130985339Y-28665425D01*
X130924016Y-28698910D01*
X130921850Y-28699361D01*
X130766508Y-28730261D01*
X130766498Y-28730264D01*
X130620827Y-28790602D01*
X130620814Y-28790609D01*
X130489711Y-28878210D01*
X130489707Y-28878213D01*
X130378213Y-28989707D01*
X130378210Y-28989711D01*
X130290609Y-29120814D01*
X130290602Y-29120827D01*
X130230264Y-29266498D01*
X130230261Y-29266510D01*
X130199500Y-29421153D01*
X130199500Y-29480192D01*
X130193261Y-29501437D01*
X130191682Y-29523526D01*
X130183609Y-29534309D01*
X130179815Y-29547231D01*
X130163081Y-29561730D01*
X130149810Y-29579459D01*
X130137189Y-29584166D01*
X130127011Y-29592986D01*
X130105093Y-29596137D01*
X130084346Y-29603876D01*
X130071185Y-29601013D01*
X130057853Y-29602930D01*
X130037709Y-29593730D01*
X130016073Y-29589024D01*
X129998347Y-29575755D01*
X129994297Y-29573905D01*
X129987819Y-29567873D01*
X129817015Y-29397069D01*
X129783530Y-29335746D01*
X129783093Y-29333652D01*
X129769737Y-29266503D01*
X129734324Y-29181007D01*
X129709397Y-29120827D01*
X129709390Y-29120814D01*
X129621789Y-28989711D01*
X129621786Y-28989707D01*
X129510292Y-28878213D01*
X129510288Y-28878210D01*
X129379185Y-28790609D01*
X129379172Y-28790602D01*
X129233501Y-28730264D01*
X129233489Y-28730261D01*
X129078845Y-28699500D01*
X129078842Y-28699500D01*
X128921158Y-28699500D01*
X128921155Y-28699500D01*
X128766510Y-28730261D01*
X128766498Y-28730264D01*
X128620827Y-28790602D01*
X128620814Y-28790609D01*
X128489711Y-28878210D01*
X128489707Y-28878213D01*
X128378213Y-28989707D01*
X128378210Y-28989711D01*
X128290609Y-29120814D01*
X128290602Y-29120827D01*
X128230264Y-29266498D01*
X128230261Y-29266510D01*
X128199500Y-29421153D01*
X100350500Y-29421153D01*
X100350500Y-22276456D01*
X100312052Y-22083170D01*
X100312051Y-22083169D01*
X100312051Y-22083165D01*
X100312049Y-22083160D01*
X100236635Y-21901092D01*
X100236628Y-21901079D01*
X100127139Y-21737218D01*
X100127136Y-21737214D01*
X99987785Y-21597863D01*
X99987781Y-21597860D01*
X99823920Y-21488371D01*
X99823907Y-21488364D01*
X99641839Y-21412950D01*
X99641829Y-21412947D01*
X99448543Y-21374500D01*
X99448541Y-21374500D01*
X99251459Y-21374500D01*
X99251457Y-21374500D01*
X99058170Y-21412947D01*
X99058160Y-21412950D01*
X98876088Y-21488366D01*
X98778456Y-21553602D01*
X98711778Y-21574480D01*
X98709565Y-21574500D01*
X93046155Y-21574500D01*
X92937765Y-21596060D01*
X92937759Y-21596061D01*
X92928715Y-21597861D01*
X92891503Y-21605263D01*
X92756471Y-21661194D01*
X92753681Y-21662197D01*
X92746250Y-21662638D01*
X92711755Y-21669500D01*
X73721153Y-21669500D01*
X73566510Y-21700260D01*
X73566502Y-21700262D01*
X73420824Y-21760604D01*
X73420814Y-21760609D01*
X73289711Y-21848210D01*
X73289707Y-21848213D01*
X69062241Y-26075681D01*
X69000918Y-26109166D01*
X68974560Y-26112000D01*
X68921155Y-26112000D01*
X68766510Y-26142761D01*
X68766498Y-26142764D01*
X68620827Y-26203102D01*
X68620814Y-26203109D01*
X68489711Y-26290710D01*
X68489707Y-26290713D01*
X68378213Y-26402207D01*
X68378210Y-26402211D01*
X68290609Y-26533314D01*
X68290602Y-26533327D01*
X68230264Y-26678998D01*
X68230261Y-26679010D01*
X68199500Y-26833653D01*
X68199500Y-31675898D01*
X68194163Y-31711887D01*
X68192761Y-31716508D01*
X68162000Y-31871153D01*
X65000500Y-31871153D01*
X65000500Y-29401456D01*
X64986887Y-29333023D01*
X64966744Y-29231758D01*
X64962051Y-29208164D01*
X64930206Y-29131284D01*
X64886632Y-29026086D01*
X64862327Y-28989711D01*
X64777139Y-28862217D01*
X64637785Y-28722863D01*
X64637781Y-28722860D01*
X64473920Y-28613371D01*
X64473907Y-28613364D01*
X64311739Y-28546193D01*
X64311737Y-28546192D01*
X64302190Y-28542238D01*
X64291836Y-28537949D01*
X64177399Y-28515186D01*
X64175561Y-28514820D01*
X64175555Y-28514819D01*
X64098543Y-28499500D01*
X64098541Y-28499500D01*
X63901459Y-28499500D01*
X63901457Y-28499500D01*
X63824444Y-28514819D01*
X63824431Y-28514821D01*
X63822601Y-28515186D01*
X63708164Y-28537949D01*
X63697810Y-28542238D01*
X63688263Y-28546192D01*
X63688260Y-28546193D01*
X63526092Y-28613364D01*
X63526079Y-28613371D01*
X63362219Y-28722859D01*
X63326599Y-28758480D01*
X63222861Y-28862218D01*
X63222858Y-28862221D01*
X61521059Y-30564019D01*
X61459736Y-30597504D01*
X61390044Y-30592520D01*
X61340149Y-30558096D01*
X61333049Y-30550000D01*
X59867904Y-30550000D01*
X59900000Y-30388642D01*
X59900000Y-30211358D01*
X59867904Y-30050000D01*
X61333049Y-30050000D01*
X61318346Y-29938312D01*
X61255578Y-29704060D01*
X61162779Y-29480021D01*
X61162772Y-29480006D01*
X61041519Y-29269990D01*
X60893889Y-29077594D01*
X60893883Y-29077587D01*
X60722412Y-28906116D01*
X60722405Y-28906110D01*
X60530009Y-28758480D01*
X60319993Y-28637227D01*
X60319978Y-28637220D01*
X60095939Y-28544421D01*
X59861687Y-28481653D01*
X59621264Y-28450001D01*
X59621248Y-28450000D01*
X59250000Y-28450000D01*
X59250000Y-29432095D01*
X59088642Y-29400000D01*
X58911358Y-29400000D01*
X58750000Y-29432095D01*
X58750000Y-28450000D01*
X58378752Y-28450000D01*
X58378735Y-28450001D01*
X58138312Y-28481653D01*
X57904060Y-28544421D01*
X57680021Y-28637220D01*
X57680006Y-28637227D01*
X57469990Y-28758480D01*
X57277594Y-28906110D01*
X57277587Y-28906116D01*
X57106116Y-29077587D01*
X57106110Y-29077594D01*
X56958480Y-29269990D01*
X56837227Y-29480006D01*
X56837220Y-29480021D01*
X56744421Y-29704060D01*
X56681653Y-29938312D01*
X56666950Y-30050000D01*
X58132096Y-30050000D01*
X58100000Y-30211358D01*
X58100000Y-30388642D01*
X58132096Y-30550000D01*
X56666950Y-30550000D01*
X56681653Y-30661687D01*
X56744421Y-30895939D01*
X56837220Y-31119978D01*
X56837227Y-31119992D01*
X56862924Y-31164500D01*
X56879397Y-31232400D01*
X56856545Y-31298427D01*
X56801623Y-31341617D01*
X56755537Y-31350500D01*
X56016782Y-31350500D01*
X55987341Y-31341855D01*
X55957355Y-31335332D01*
X55952339Y-31331577D01*
X55949743Y-31330815D01*
X55929101Y-31314181D01*
X55886819Y-31271899D01*
X55853334Y-31210576D01*
X55850500Y-31184218D01*
X55850500Y-29149997D01*
X55850499Y-29149984D01*
X55839999Y-29047204D01*
X55839999Y-29047203D01*
X55784814Y-28880666D01*
X55783299Y-28878210D01*
X55692713Y-28731348D01*
X55692710Y-28731344D01*
X55568655Y-28607289D01*
X55568651Y-28607286D01*
X55419337Y-28515187D01*
X55419335Y-28515186D01*
X55318138Y-28481653D01*
X55252797Y-28460001D01*
X55252795Y-28460000D01*
X55150015Y-28449500D01*
X55150008Y-28449500D01*
X51849992Y-28449500D01*
X51849984Y-28449500D01*
X51747204Y-28460000D01*
X51747203Y-28460001D01*
X51580664Y-28515186D01*
X51580662Y-28515187D01*
X51431348Y-28607286D01*
X51431344Y-28607289D01*
X51307289Y-28731344D01*
X51307286Y-28731348D01*
X51215187Y-28880662D01*
X51215186Y-28880664D01*
X51160001Y-29047203D01*
X51160000Y-29047204D01*
X51149500Y-29149984D01*
X51149500Y-31450015D01*
X51160000Y-31552795D01*
X51160001Y-31552796D01*
X51215186Y-31719335D01*
X51215187Y-31719337D01*
X51307286Y-31868651D01*
X51307289Y-31868655D01*
X51431344Y-31992710D01*
X51431348Y-31992713D01*
X51580662Y-32084812D01*
X51580664Y-32084813D01*
X51580666Y-32084814D01*
X51747203Y-32139999D01*
X51849992Y-32150500D01*
X53884218Y-32150500D01*
X53951257Y-32170185D01*
X53971899Y-32186819D01*
X54770735Y-32985655D01*
X54770764Y-32985686D01*
X54913214Y-33128136D01*
X54913218Y-33128139D01*
X55077079Y-33237628D01*
X55077092Y-33237635D01*
X55205833Y-33290961D01*
X55248744Y-33308735D01*
X55259164Y-33313051D01*
X55355812Y-33332275D01*
X55404135Y-33341887D01*
X55452458Y-33351500D01*
X55452459Y-33351500D01*
X61247542Y-33351500D01*
X61278566Y-33345328D01*
X61344188Y-33332275D01*
X61440836Y-33313051D01*
X61494165Y-33290961D01*
X61622914Y-33237632D01*
X61786782Y-33128139D01*
X61926139Y-32988782D01*
X61926140Y-32988779D01*
X61933206Y-32981714D01*
X61933208Y-32981710D01*
X62787820Y-32127099D01*
X62849142Y-32093615D01*
X62918834Y-32098599D01*
X62974767Y-32140471D01*
X62999184Y-32205935D01*
X62999500Y-32214781D01*
X62999500Y-40034217D01*
X62979815Y-40101256D01*
X62963181Y-40121898D01*
X61545987Y-41539091D01*
X61484664Y-41572576D01*
X61414972Y-41567592D01*
X61359039Y-41525720D01*
X61335367Y-41467595D01*
X61318346Y-41338312D01*
X61255578Y-41104060D01*
X61162779Y-40880021D01*
X61162772Y-40880006D01*
X61041519Y-40669990D01*
X60893889Y-40477594D01*
X60893883Y-40477587D01*
X60722412Y-40306116D01*
X60722405Y-40306110D01*
X60530009Y-40158480D01*
X60319993Y-40037227D01*
X60319978Y-40037220D01*
X60095939Y-39944421D01*
X59861687Y-39881653D01*
X59621264Y-39850001D01*
X59621248Y-39850000D01*
X59250000Y-39850000D01*
X59250000Y-40832095D01*
X59088642Y-40800000D01*
X58911358Y-40800000D01*
X58750000Y-40832095D01*
X58750000Y-39850000D01*
X58378752Y-39850000D01*
X58378735Y-39850001D01*
X58138312Y-39881653D01*
X57904060Y-39944421D01*
X57680021Y-40037220D01*
X57680006Y-40037227D01*
X57469990Y-40158480D01*
X57277594Y-40306110D01*
X57277587Y-40306116D01*
X57106116Y-40477587D01*
X57106110Y-40477594D01*
X56958480Y-40669990D01*
X56837227Y-40880006D01*
X56837220Y-40880021D01*
X56744421Y-41104060D01*
X56681653Y-41338312D01*
X56666950Y-41450000D01*
X58132096Y-41450000D01*
X58100000Y-41611358D01*
X58100000Y-41788642D01*
X58132096Y-41950000D01*
X56666950Y-41950000D01*
X56681653Y-42061687D01*
X56744421Y-42295939D01*
X56837220Y-42519978D01*
X56837227Y-42519992D01*
X56862924Y-42564500D01*
X56879397Y-42632400D01*
X56856545Y-42698427D01*
X56801623Y-42741617D01*
X56755537Y-42750500D01*
X56016782Y-42750500D01*
X55987341Y-42741855D01*
X55957355Y-42735332D01*
X55952339Y-42731577D01*
X55949743Y-42730815D01*
X55929101Y-42714181D01*
X55886819Y-42671899D01*
X55853334Y-42610576D01*
X55850500Y-42584218D01*
X55850500Y-40549997D01*
X55850499Y-40549984D01*
X55839999Y-40447204D01*
X55839999Y-40447203D01*
X55784814Y-40280666D01*
X55748565Y-40221898D01*
X55692713Y-40131348D01*
X55692710Y-40131344D01*
X55568655Y-40007289D01*
X55568651Y-40007286D01*
X55419337Y-39915187D01*
X55419335Y-39915186D01*
X55272017Y-39866370D01*
X55252797Y-39860001D01*
X55252795Y-39860000D01*
X55150015Y-39849500D01*
X55150008Y-39849500D01*
X51849992Y-39849500D01*
X51849984Y-39849500D01*
X51747204Y-39860000D01*
X51747203Y-39860001D01*
X51580664Y-39915186D01*
X51580662Y-39915187D01*
X51431348Y-40007286D01*
X51431344Y-40007289D01*
X51307289Y-40131344D01*
X51307286Y-40131348D01*
X51215187Y-40280662D01*
X51215186Y-40280664D01*
X51160001Y-40447203D01*
X51160000Y-40447204D01*
X51149500Y-40549984D01*
X51149500Y-42850015D01*
X51160000Y-42952795D01*
X51160001Y-42952796D01*
X51215186Y-43119335D01*
X51215187Y-43119337D01*
X51307286Y-43268651D01*
X51307289Y-43268655D01*
X51431344Y-43392710D01*
X51431348Y-43392713D01*
X51580662Y-43484812D01*
X51580664Y-43484813D01*
X51580666Y-43484814D01*
X51747203Y-43539999D01*
X51849992Y-43550500D01*
X53884218Y-43550500D01*
X53951257Y-43570185D01*
X53971899Y-43586819D01*
X54770735Y-44385655D01*
X54770764Y-44385686D01*
X54913214Y-44528136D01*
X54913218Y-44528139D01*
X55077079Y-44637628D01*
X55077092Y-44637635D01*
X55205833Y-44690961D01*
X55248744Y-44708735D01*
X55259164Y-44713051D01*
X55355812Y-44732275D01*
X55404135Y-44741887D01*
X55452458Y-44751500D01*
X55452459Y-44751500D01*
X60847542Y-44751500D01*
X60878566Y-44745328D01*
X60944188Y-44732275D01*
X61040836Y-44713051D01*
X61094165Y-44690961D01*
X61222914Y-44637632D01*
X61386782Y-44528139D01*
X61526139Y-44388782D01*
X61526139Y-44388780D01*
X61536347Y-44378573D01*
X61536348Y-44378570D01*
X62787820Y-43127098D01*
X62849142Y-43093615D01*
X62918834Y-43098599D01*
X62974767Y-43140471D01*
X62999184Y-43205935D01*
X62999500Y-43214781D01*
X62999500Y-51534217D01*
X62979815Y-51601256D01*
X62963181Y-51621898D01*
X61545987Y-53039091D01*
X61484664Y-53072576D01*
X61414972Y-53067592D01*
X61359039Y-53025720D01*
X61335367Y-52967595D01*
X61318346Y-52838312D01*
X61255578Y-52604060D01*
X61162779Y-52380021D01*
X61162772Y-52380006D01*
X61041519Y-52169990D01*
X60893889Y-51977594D01*
X60893883Y-51977587D01*
X60722412Y-51806116D01*
X60722405Y-51806110D01*
X60530009Y-51658480D01*
X60319993Y-51537227D01*
X60319978Y-51537220D01*
X60095939Y-51444421D01*
X59861687Y-51381653D01*
X59621264Y-51350001D01*
X59621248Y-51350000D01*
X59250000Y-51350000D01*
X59250000Y-52332095D01*
X59088642Y-52300000D01*
X58911358Y-52300000D01*
X58750000Y-52332095D01*
X58750000Y-51350000D01*
X58378752Y-51350000D01*
X58378735Y-51350001D01*
X58138312Y-51381653D01*
X57904060Y-51444421D01*
X57680021Y-51537220D01*
X57680006Y-51537227D01*
X57469990Y-51658480D01*
X57277594Y-51806110D01*
X57277587Y-51806116D01*
X57106116Y-51977587D01*
X57106110Y-51977594D01*
X56958480Y-52169990D01*
X56837227Y-52380006D01*
X56837220Y-52380021D01*
X56744421Y-52604060D01*
X56681653Y-52838312D01*
X56666950Y-52950000D01*
X58132096Y-52950000D01*
X58100000Y-53111358D01*
X58100000Y-53288642D01*
X58132096Y-53450000D01*
X56666950Y-53450000D01*
X56681653Y-53561687D01*
X56744421Y-53795939D01*
X56837220Y-54019978D01*
X56837227Y-54019992D01*
X56862924Y-54064500D01*
X56879397Y-54132400D01*
X56856545Y-54198427D01*
X56801623Y-54241617D01*
X56755537Y-54250500D01*
X56016782Y-54250500D01*
X55987341Y-54241855D01*
X55957355Y-54235332D01*
X55952339Y-54231577D01*
X55949743Y-54230815D01*
X55929101Y-54214181D01*
X55886819Y-54171899D01*
X55853334Y-54110576D01*
X55850500Y-54084218D01*
X55850500Y-52049997D01*
X55850499Y-52049984D01*
X55842727Y-51973911D01*
X55839999Y-51947203D01*
X55784814Y-51780666D01*
X55770935Y-51758165D01*
X55692713Y-51631348D01*
X55692710Y-51631344D01*
X55568655Y-51507289D01*
X55568651Y-51507286D01*
X55419337Y-51415187D01*
X55419335Y-51415186D01*
X55302542Y-51376485D01*
X55252797Y-51360001D01*
X55252795Y-51360000D01*
X55150015Y-51349500D01*
X55150008Y-51349500D01*
X51849992Y-51349500D01*
X51849984Y-51349500D01*
X51747204Y-51360000D01*
X51747203Y-51360001D01*
X51580664Y-51415186D01*
X51580662Y-51415187D01*
X51431348Y-51507286D01*
X51431344Y-51507289D01*
X51307289Y-51631344D01*
X51307286Y-51631348D01*
X51215187Y-51780662D01*
X51215186Y-51780664D01*
X51160001Y-51947203D01*
X51160000Y-51947204D01*
X51149500Y-52049984D01*
X51149500Y-54350015D01*
X51160000Y-54452795D01*
X51160001Y-54452797D01*
X51175163Y-54498553D01*
X51215186Y-54619335D01*
X51215187Y-54619337D01*
X51307286Y-54768651D01*
X51307289Y-54768655D01*
X51431344Y-54892710D01*
X51431348Y-54892713D01*
X51580662Y-54984812D01*
X51580664Y-54984813D01*
X51580666Y-54984814D01*
X51747203Y-55039999D01*
X51849992Y-55050500D01*
X53884218Y-55050500D01*
X53951257Y-55070185D01*
X53971899Y-55086819D01*
X54770735Y-55885655D01*
X54770764Y-55885686D01*
X54913214Y-56028136D01*
X54913218Y-56028139D01*
X55077079Y-56137628D01*
X55077092Y-56137635D01*
X55205833Y-56190961D01*
X55259159Y-56213049D01*
X55259164Y-56213051D01*
X55315747Y-56224306D01*
X55349925Y-56231104D01*
X55452456Y-56251500D01*
X55452459Y-56251500D01*
X60847543Y-56251500D01*
X60905253Y-56240020D01*
X60984253Y-56224306D01*
X61040836Y-56213051D01*
X61094165Y-56190961D01*
X61222914Y-56137632D01*
X61386782Y-56028139D01*
X61526139Y-55888782D01*
X61526139Y-55888780D01*
X61536347Y-55878573D01*
X61536348Y-55878570D01*
X62837820Y-54577098D01*
X62899142Y-54543615D01*
X62968834Y-54548599D01*
X63024767Y-54590471D01*
X63049184Y-54655935D01*
X63049500Y-54664781D01*
X63049500Y-62984218D01*
X63029815Y-63051257D01*
X63013181Y-63071899D01*
X61523895Y-64561184D01*
X61462572Y-64594669D01*
X61392880Y-64589685D01*
X61336947Y-64547813D01*
X61313275Y-64489688D01*
X61293346Y-64338312D01*
X61230578Y-64104060D01*
X61137779Y-63880021D01*
X61137772Y-63880006D01*
X61016519Y-63669990D01*
X60868889Y-63477594D01*
X60868883Y-63477587D01*
X60697412Y-63306116D01*
X60697405Y-63306110D01*
X60505009Y-63158480D01*
X60294993Y-63037227D01*
X60294978Y-63037220D01*
X60070939Y-62944421D01*
X59836687Y-62881653D01*
X59596264Y-62850001D01*
X59596248Y-62850000D01*
X59225000Y-62850000D01*
X59225000Y-63832095D01*
X59063642Y-63800000D01*
X58886358Y-63800000D01*
X58725000Y-63832095D01*
X58725000Y-62850000D01*
X58353752Y-62850000D01*
X58353735Y-62850001D01*
X58113312Y-62881653D01*
X57879060Y-62944421D01*
X57655021Y-63037220D01*
X57655006Y-63037227D01*
X57444990Y-63158480D01*
X57252594Y-63306110D01*
X57252587Y-63306116D01*
X57081116Y-63477587D01*
X57081110Y-63477594D01*
X56933480Y-63669990D01*
X56812227Y-63880006D01*
X56812220Y-63880021D01*
X56719421Y-64104060D01*
X56656653Y-64338312D01*
X56641950Y-64450000D01*
X58107096Y-64450000D01*
X58075000Y-64611358D01*
X58075000Y-64788642D01*
X58107096Y-64950000D01*
X56641950Y-64950000D01*
X56656653Y-65061687D01*
X56719421Y-65295939D01*
X56812220Y-65519978D01*
X56812227Y-65519992D01*
X56837924Y-65564500D01*
X56854397Y-65632400D01*
X56831545Y-65698427D01*
X56776623Y-65741617D01*
X56730537Y-65750500D01*
X55991782Y-65750500D01*
X55962341Y-65741855D01*
X55932355Y-65735332D01*
X55927339Y-65731577D01*
X55924743Y-65730815D01*
X55904101Y-65714181D01*
X55861819Y-65671899D01*
X55828334Y-65610576D01*
X55825500Y-65584218D01*
X55825500Y-63549997D01*
X55825499Y-63549984D01*
X55823242Y-63527896D01*
X55814999Y-63447203D01*
X55759814Y-63280666D01*
X55740468Y-63249302D01*
X55667713Y-63131348D01*
X55667710Y-63131344D01*
X55543655Y-63007289D01*
X55543651Y-63007286D01*
X55394337Y-62915187D01*
X55394335Y-62915186D01*
X55293138Y-62881653D01*
X55227797Y-62860001D01*
X55227795Y-62860000D01*
X55125015Y-62849500D01*
X55125008Y-62849500D01*
X51824992Y-62849500D01*
X51824984Y-62849500D01*
X51722204Y-62860000D01*
X51722203Y-62860001D01*
X51555664Y-62915186D01*
X51555662Y-62915187D01*
X51406348Y-63007286D01*
X51406344Y-63007289D01*
X51282289Y-63131344D01*
X51282286Y-63131348D01*
X51190187Y-63280662D01*
X51190186Y-63280664D01*
X51135001Y-63447203D01*
X51135000Y-63447204D01*
X51124500Y-63549984D01*
X47647830Y-63549984D01*
X47748344Y-63375888D01*
X47836158Y-63163887D01*
X47895548Y-62942238D01*
X47925500Y-62714734D01*
X47925500Y-62485266D01*
X47895548Y-62257762D01*
X47836158Y-62036113D01*
X47777403Y-61894266D01*
X47748349Y-61824123D01*
X47748346Y-61824117D01*
X47748344Y-61824112D01*
X47633611Y-61625388D01*
X47633608Y-61625385D01*
X47633607Y-61625382D01*
X47493918Y-61443338D01*
X47493911Y-61443330D01*
X47331670Y-61281089D01*
X47331661Y-61281081D01*
X47149617Y-61141392D01*
X46950890Y-61026657D01*
X46950876Y-61026650D01*
X46738887Y-60938842D01*
X46720585Y-60933938D01*
X46517238Y-60879452D01*
X46460256Y-60871950D01*
X46289741Y-60849500D01*
X46289734Y-60849500D01*
X46060266Y-60849500D01*
X46060258Y-60849500D01*
X45843715Y-60878009D01*
X45832762Y-60879452D01*
X45744326Y-60903148D01*
X45611112Y-60938842D01*
X45399123Y-61026650D01*
X45399109Y-61026657D01*
X45200382Y-61141392D01*
X45018338Y-61281081D01*
X44856081Y-61443338D01*
X44716392Y-61625382D01*
X44601657Y-61824109D01*
X44601650Y-61824123D01*
X44513842Y-62036112D01*
X44454453Y-62257759D01*
X44454451Y-62257770D01*
X44424500Y-62485258D01*
X37928927Y-62485258D01*
X37928927Y-60378711D01*
X51124500Y-60378711D01*
X51124500Y-60621288D01*
X51155884Y-60859682D01*
X51156162Y-60861789D01*
X51176808Y-60938842D01*
X51218947Y-61096104D01*
X51310709Y-61317636D01*
X51311776Y-61320212D01*
X51433064Y-61530289D01*
X51433066Y-61530292D01*
X51433067Y-61530293D01*
X51580733Y-61722736D01*
X51580739Y-61722743D01*
X51752256Y-61894260D01*
X51752263Y-61894266D01*
X51762406Y-61902049D01*
X51944711Y-62041936D01*
X52154788Y-62163224D01*
X52378900Y-62256054D01*
X52613211Y-62318838D01*
X52793586Y-62342584D01*
X52853711Y-62350500D01*
X52853712Y-62350500D01*
X54096289Y-62350500D01*
X54144388Y-62344167D01*
X54336789Y-62318838D01*
X54571100Y-62256054D01*
X54795212Y-62163224D01*
X55005289Y-62041936D01*
X55197738Y-61894265D01*
X55369265Y-61722738D01*
X55516936Y-61530289D01*
X55638224Y-61320212D01*
X55731054Y-61096100D01*
X55793838Y-60861789D01*
X55825500Y-60621288D01*
X55825500Y-60378712D01*
X55825500Y-60378711D01*
X56624500Y-60378711D01*
X56624500Y-60621288D01*
X56655884Y-60859682D01*
X56656162Y-60861789D01*
X56676808Y-60938842D01*
X56718947Y-61096104D01*
X56810709Y-61317636D01*
X56811776Y-61320212D01*
X56933064Y-61530289D01*
X56933066Y-61530292D01*
X56933067Y-61530293D01*
X57080733Y-61722736D01*
X57080739Y-61722743D01*
X57252256Y-61894260D01*
X57252263Y-61894266D01*
X57262406Y-61902049D01*
X57444711Y-62041936D01*
X57654788Y-62163224D01*
X57878900Y-62256054D01*
X58113211Y-62318838D01*
X58293586Y-62342584D01*
X58353711Y-62350500D01*
X58353712Y-62350500D01*
X59596289Y-62350500D01*
X59644388Y-62344167D01*
X59836789Y-62318838D01*
X60071100Y-62256054D01*
X60295212Y-62163224D01*
X60505289Y-62041936D01*
X60697738Y-61894265D01*
X60869265Y-61722738D01*
X61016936Y-61530289D01*
X61138224Y-61320212D01*
X61231054Y-61096100D01*
X61293838Y-60861789D01*
X61325500Y-60621288D01*
X61325500Y-60378712D01*
X61293838Y-60138211D01*
X61231054Y-59903900D01*
X61138224Y-59679788D01*
X61016936Y-59469711D01*
X60947473Y-59379185D01*
X60869266Y-59277263D01*
X60869260Y-59277256D01*
X60697743Y-59105739D01*
X60697736Y-59105733D01*
X60505293Y-58958067D01*
X60505292Y-58958066D01*
X60505289Y-58958064D01*
X60295212Y-58836776D01*
X60295205Y-58836773D01*
X60071104Y-58743947D01*
X59836785Y-58681161D01*
X59596289Y-58649500D01*
X59596288Y-58649500D01*
X58353712Y-58649500D01*
X58353711Y-58649500D01*
X58113214Y-58681161D01*
X57878895Y-58743947D01*
X57654794Y-58836773D01*
X57654785Y-58836777D01*
X57444706Y-58958067D01*
X57252263Y-59105733D01*
X57252256Y-59105739D01*
X57080739Y-59277256D01*
X57080733Y-59277263D01*
X56933067Y-59469706D01*
X56811777Y-59679785D01*
X56811773Y-59679794D01*
X56718947Y-59903895D01*
X56656161Y-60138214D01*
X56624500Y-60378711D01*
X55825500Y-60378711D01*
X55793838Y-60138211D01*
X55731054Y-59903900D01*
X55638224Y-59679788D01*
X55516936Y-59469711D01*
X55447473Y-59379185D01*
X55369266Y-59277263D01*
X55369260Y-59277256D01*
X55197743Y-59105739D01*
X55197736Y-59105733D01*
X55005293Y-58958067D01*
X55005292Y-58958066D01*
X55005289Y-58958064D01*
X54795212Y-58836776D01*
X54795205Y-58836773D01*
X54571104Y-58743947D01*
X54336785Y-58681161D01*
X54096289Y-58649500D01*
X54096288Y-58649500D01*
X52853712Y-58649500D01*
X52853711Y-58649500D01*
X52613214Y-58681161D01*
X52378895Y-58743947D01*
X52154794Y-58836773D01*
X52154785Y-58836777D01*
X51944706Y-58958067D01*
X51752263Y-59105733D01*
X51752256Y-59105739D01*
X51580739Y-59277256D01*
X51580733Y-59277263D01*
X51433067Y-59469706D01*
X51311777Y-59679785D01*
X51311773Y-59679794D01*
X51218947Y-59903895D01*
X51156161Y-60138214D01*
X51124500Y-60378711D01*
X37928927Y-60378711D01*
X37928927Y-50985258D01*
X44449500Y-50985258D01*
X44449500Y-51214741D01*
X44468625Y-51360000D01*
X44479452Y-51442238D01*
X44530123Y-51631348D01*
X44538842Y-51663887D01*
X44626650Y-51875876D01*
X44626657Y-51875890D01*
X44741392Y-52074617D01*
X44881081Y-52256661D01*
X44881089Y-52256670D01*
X45043330Y-52418911D01*
X45043338Y-52418918D01*
X45225382Y-52558607D01*
X45225385Y-52558608D01*
X45225388Y-52558611D01*
X45424112Y-52673344D01*
X45424117Y-52673346D01*
X45424123Y-52673349D01*
X45487258Y-52699500D01*
X45636113Y-52761158D01*
X45857762Y-52820548D01*
X46085266Y-52850500D01*
X46085273Y-52850500D01*
X46314727Y-52850500D01*
X46314734Y-52850500D01*
X46542238Y-52820548D01*
X46763887Y-52761158D01*
X46975888Y-52673344D01*
X47174612Y-52558611D01*
X47356661Y-52418919D01*
X47356665Y-52418914D01*
X47356670Y-52418911D01*
X47518911Y-52256670D01*
X47518914Y-52256665D01*
X47518919Y-52256661D01*
X47658611Y-52074612D01*
X47773344Y-51875888D01*
X47861158Y-51663887D01*
X47920548Y-51442238D01*
X47950500Y-51214734D01*
X47950500Y-50985266D01*
X47920548Y-50757762D01*
X47861158Y-50536113D01*
X47802403Y-50394266D01*
X47773349Y-50324123D01*
X47773346Y-50324117D01*
X47773344Y-50324112D01*
X47658611Y-50125388D01*
X47658608Y-50125385D01*
X47658607Y-50125382D01*
X47531241Y-49959397D01*
X47518919Y-49943339D01*
X47518918Y-49943338D01*
X47518911Y-49943330D01*
X47356670Y-49781089D01*
X47356661Y-49781081D01*
X47174617Y-49641392D01*
X47153463Y-49629179D01*
X46975888Y-49526656D01*
X46975876Y-49526650D01*
X46763887Y-49438842D01*
X46542238Y-49379452D01*
X46504215Y-49374446D01*
X46314741Y-49349500D01*
X46314734Y-49349500D01*
X46085266Y-49349500D01*
X46085258Y-49349500D01*
X45868715Y-49378009D01*
X45857762Y-49379452D01*
X45764076Y-49404554D01*
X45636112Y-49438842D01*
X45424123Y-49526650D01*
X45424109Y-49526657D01*
X45225382Y-49641392D01*
X45043338Y-49781081D01*
X44881081Y-49943338D01*
X44741392Y-50125382D01*
X44626657Y-50324109D01*
X44626650Y-50324123D01*
X44538842Y-50536112D01*
X44479453Y-50757759D01*
X44479451Y-50757770D01*
X44449500Y-50985258D01*
X37928927Y-50985258D01*
X37928927Y-48878711D01*
X51149500Y-48878711D01*
X51149500Y-49121288D01*
X51181161Y-49361785D01*
X51243947Y-49596104D01*
X51336773Y-49820205D01*
X51336776Y-49820212D01*
X51458064Y-50030289D01*
X51458066Y-50030292D01*
X51458067Y-50030293D01*
X51605733Y-50222736D01*
X51605739Y-50222743D01*
X51777256Y-50394260D01*
X51777262Y-50394265D01*
X51969711Y-50541936D01*
X52179788Y-50663224D01*
X52403900Y-50756054D01*
X52638211Y-50818838D01*
X52818586Y-50842584D01*
X52878711Y-50850500D01*
X52878712Y-50850500D01*
X54121289Y-50850500D01*
X54169388Y-50844167D01*
X54361789Y-50818838D01*
X54596100Y-50756054D01*
X54820212Y-50663224D01*
X55030289Y-50541936D01*
X55222738Y-50394265D01*
X55394265Y-50222738D01*
X55541936Y-50030289D01*
X55663224Y-49820212D01*
X55756054Y-49596100D01*
X55818838Y-49361789D01*
X55850500Y-49121288D01*
X55850500Y-48878712D01*
X55850500Y-48878711D01*
X56649500Y-48878711D01*
X56649500Y-49121288D01*
X56681161Y-49361785D01*
X56743947Y-49596104D01*
X56836773Y-49820205D01*
X56836776Y-49820212D01*
X56958064Y-50030289D01*
X56958066Y-50030292D01*
X56958067Y-50030293D01*
X57105733Y-50222736D01*
X57105739Y-50222743D01*
X57277256Y-50394260D01*
X57277262Y-50394265D01*
X57469711Y-50541936D01*
X57679788Y-50663224D01*
X57903900Y-50756054D01*
X58138211Y-50818838D01*
X58318586Y-50842584D01*
X58378711Y-50850500D01*
X58378712Y-50850500D01*
X59621289Y-50850500D01*
X59669388Y-50844167D01*
X59861789Y-50818838D01*
X60096100Y-50756054D01*
X60320212Y-50663224D01*
X60530289Y-50541936D01*
X60722738Y-50394265D01*
X60894265Y-50222738D01*
X61041936Y-50030289D01*
X61163224Y-49820212D01*
X61256054Y-49596100D01*
X61318838Y-49361789D01*
X61350500Y-49121288D01*
X61350500Y-48878712D01*
X61318838Y-48638211D01*
X61256054Y-48403900D01*
X61163224Y-48179788D01*
X61041936Y-47969711D01*
X60972473Y-47879185D01*
X60894266Y-47777263D01*
X60894260Y-47777256D01*
X60722743Y-47605739D01*
X60722736Y-47605733D01*
X60530293Y-47458067D01*
X60530292Y-47458066D01*
X60530289Y-47458064D01*
X60320212Y-47336776D01*
X60320205Y-47336773D01*
X60096104Y-47243947D01*
X59861785Y-47181161D01*
X59621289Y-47149500D01*
X59621288Y-47149500D01*
X58378712Y-47149500D01*
X58378711Y-47149500D01*
X58138214Y-47181161D01*
X57903895Y-47243947D01*
X57679794Y-47336773D01*
X57679785Y-47336777D01*
X57469706Y-47458067D01*
X57277263Y-47605733D01*
X57277256Y-47605739D01*
X57105739Y-47777256D01*
X57105733Y-47777263D01*
X56958067Y-47969706D01*
X56836777Y-48179785D01*
X56836773Y-48179794D01*
X56743947Y-48403895D01*
X56681161Y-48638214D01*
X56649500Y-48878711D01*
X55850500Y-48878711D01*
X55818838Y-48638211D01*
X55756054Y-48403900D01*
X55663224Y-48179788D01*
X55541936Y-47969711D01*
X55472473Y-47879185D01*
X55394266Y-47777263D01*
X55394260Y-47777256D01*
X55222743Y-47605739D01*
X55222736Y-47605733D01*
X55030293Y-47458067D01*
X55030292Y-47458066D01*
X55030289Y-47458064D01*
X54820212Y-47336776D01*
X54820205Y-47336773D01*
X54596104Y-47243947D01*
X54361785Y-47181161D01*
X54121289Y-47149500D01*
X54121288Y-47149500D01*
X52878712Y-47149500D01*
X52878711Y-47149500D01*
X52638214Y-47181161D01*
X52403895Y-47243947D01*
X52179794Y-47336773D01*
X52179785Y-47336777D01*
X51969706Y-47458067D01*
X51777263Y-47605733D01*
X51777256Y-47605739D01*
X51605739Y-47777256D01*
X51605733Y-47777263D01*
X51458067Y-47969706D01*
X51336777Y-48179785D01*
X51336773Y-48179794D01*
X51243947Y-48403895D01*
X51181161Y-48638214D01*
X51149500Y-48878711D01*
X37928927Y-48878711D01*
X37928927Y-39485258D01*
X44449500Y-39485258D01*
X44449500Y-39714741D01*
X44471023Y-39878213D01*
X44479452Y-39942238D01*
X44530123Y-40131348D01*
X44538842Y-40163887D01*
X44626650Y-40375876D01*
X44626657Y-40375890D01*
X44741392Y-40574617D01*
X44881081Y-40756661D01*
X44881089Y-40756670D01*
X45043330Y-40918911D01*
X45043338Y-40918918D01*
X45225382Y-41058607D01*
X45225385Y-41058608D01*
X45225388Y-41058611D01*
X45424112Y-41173344D01*
X45424117Y-41173346D01*
X45424123Y-41173349D01*
X45500024Y-41204788D01*
X45636113Y-41261158D01*
X45857762Y-41320548D01*
X46085266Y-41350500D01*
X46085273Y-41350500D01*
X46314727Y-41350500D01*
X46314734Y-41350500D01*
X46542238Y-41320548D01*
X46763887Y-41261158D01*
X46975888Y-41173344D01*
X47174612Y-41058611D01*
X47356661Y-40918919D01*
X47356665Y-40918914D01*
X47356670Y-40918911D01*
X47518911Y-40756670D01*
X47518914Y-40756665D01*
X47518919Y-40756661D01*
X47658611Y-40574612D01*
X47773344Y-40375888D01*
X47861158Y-40163887D01*
X47920548Y-39942238D01*
X47950500Y-39714734D01*
X47950500Y-39485266D01*
X47920548Y-39257762D01*
X47861158Y-39036113D01*
X47802403Y-38894266D01*
X47773349Y-38824123D01*
X47773346Y-38824117D01*
X47773344Y-38824112D01*
X47658611Y-38625388D01*
X47658608Y-38625385D01*
X47658607Y-38625382D01*
X47518918Y-38443338D01*
X47518911Y-38443330D01*
X47356670Y-38281089D01*
X47356661Y-38281081D01*
X47174617Y-38141392D01*
X46975890Y-38026657D01*
X46975876Y-38026650D01*
X46763887Y-37938842D01*
X46542238Y-37879452D01*
X46504215Y-37874446D01*
X46314741Y-37849500D01*
X46314734Y-37849500D01*
X46085266Y-37849500D01*
X46085258Y-37849500D01*
X45868715Y-37878009D01*
X45857762Y-37879452D01*
X45764076Y-37904554D01*
X45636112Y-37938842D01*
X45424123Y-38026650D01*
X45424109Y-38026657D01*
X45225382Y-38141392D01*
X45043338Y-38281081D01*
X44881081Y-38443338D01*
X44741392Y-38625382D01*
X44626657Y-38824109D01*
X44626650Y-38824123D01*
X44538842Y-39036112D01*
X44479453Y-39257759D01*
X44479451Y-39257770D01*
X44449500Y-39485258D01*
X37928927Y-39485258D01*
X37928927Y-37378711D01*
X51149500Y-37378711D01*
X51149500Y-37621288D01*
X51181161Y-37861785D01*
X51243947Y-38096104D01*
X51320567Y-38281081D01*
X51336776Y-38320212D01*
X51458064Y-38530289D01*
X51458066Y-38530292D01*
X51458067Y-38530293D01*
X51605733Y-38722736D01*
X51605739Y-38722743D01*
X51777256Y-38894260D01*
X51777262Y-38894265D01*
X51969711Y-39041936D01*
X52179788Y-39163224D01*
X52403900Y-39256054D01*
X52638211Y-39318838D01*
X52818586Y-39342584D01*
X52878711Y-39350500D01*
X52878712Y-39350500D01*
X54121289Y-39350500D01*
X54169388Y-39344167D01*
X54361789Y-39318838D01*
X54596100Y-39256054D01*
X54820212Y-39163224D01*
X55030289Y-39041936D01*
X55222738Y-38894265D01*
X55394265Y-38722738D01*
X55541936Y-38530289D01*
X55663224Y-38320212D01*
X55756054Y-38096100D01*
X55818838Y-37861789D01*
X55850500Y-37621288D01*
X55850500Y-37378712D01*
X55850500Y-37378711D01*
X56649500Y-37378711D01*
X56649500Y-37621288D01*
X56681161Y-37861785D01*
X56743947Y-38096104D01*
X56820567Y-38281081D01*
X56836776Y-38320212D01*
X56958064Y-38530289D01*
X56958066Y-38530292D01*
X56958067Y-38530293D01*
X57105733Y-38722736D01*
X57105739Y-38722743D01*
X57277256Y-38894260D01*
X57277262Y-38894265D01*
X57469711Y-39041936D01*
X57679788Y-39163224D01*
X57903900Y-39256054D01*
X58138211Y-39318838D01*
X58318586Y-39342584D01*
X58378711Y-39350500D01*
X58378712Y-39350500D01*
X59621289Y-39350500D01*
X59669388Y-39344167D01*
X59861789Y-39318838D01*
X60096100Y-39256054D01*
X60320212Y-39163224D01*
X60530289Y-39041936D01*
X60722738Y-38894265D01*
X60894265Y-38722738D01*
X61041936Y-38530289D01*
X61163224Y-38320212D01*
X61256054Y-38096100D01*
X61318838Y-37861789D01*
X61350500Y-37621288D01*
X61350500Y-37378712D01*
X61318838Y-37138211D01*
X61256054Y-36903900D01*
X61229633Y-36840115D01*
X61163224Y-36679788D01*
X61163222Y-36679785D01*
X61041936Y-36469711D01*
X60894265Y-36277262D01*
X60894260Y-36277256D01*
X60722743Y-36105739D01*
X60722736Y-36105733D01*
X60530293Y-35958067D01*
X60530292Y-35958066D01*
X60530289Y-35958064D01*
X60320212Y-35836776D01*
X60320205Y-35836773D01*
X60096104Y-35743947D01*
X59861785Y-35681161D01*
X59621289Y-35649500D01*
X59621288Y-35649500D01*
X58378712Y-35649500D01*
X58378711Y-35649500D01*
X58138214Y-35681161D01*
X57903895Y-35743947D01*
X57679794Y-35836773D01*
X57679785Y-35836777D01*
X57469706Y-35958067D01*
X57277263Y-36105733D01*
X57277256Y-36105739D01*
X57105739Y-36277256D01*
X57105733Y-36277263D01*
X56958067Y-36469706D01*
X56836777Y-36679785D01*
X56836776Y-36679788D01*
X56743947Y-36903895D01*
X56681161Y-37138214D01*
X56649500Y-37378711D01*
X55850500Y-37378711D01*
X55818838Y-37138211D01*
X55756054Y-36903900D01*
X55729633Y-36840115D01*
X55663224Y-36679788D01*
X55663222Y-36679785D01*
X55541936Y-36469711D01*
X55394265Y-36277262D01*
X55394260Y-36277256D01*
X55222743Y-36105739D01*
X55222736Y-36105733D01*
X55030293Y-35958067D01*
X55030292Y-35958066D01*
X55030289Y-35958064D01*
X54820212Y-35836776D01*
X54820205Y-35836773D01*
X54596104Y-35743947D01*
X54361785Y-35681161D01*
X54121289Y-35649500D01*
X54121288Y-35649500D01*
X52878712Y-35649500D01*
X52878711Y-35649500D01*
X52638214Y-35681161D01*
X52403895Y-35743947D01*
X52179794Y-35836773D01*
X52179785Y-35836777D01*
X51969706Y-35958067D01*
X51777263Y-36105733D01*
X51777256Y-36105739D01*
X51605739Y-36277256D01*
X51605733Y-36277263D01*
X51458067Y-36469706D01*
X51336777Y-36679785D01*
X51336776Y-36679788D01*
X51243947Y-36903895D01*
X51181161Y-37138214D01*
X51149500Y-37378711D01*
X37928927Y-37378711D01*
X37928927Y-28085258D01*
X44449500Y-28085258D01*
X44449500Y-28314741D01*
X44467475Y-28451265D01*
X44479452Y-28542238D01*
X44530123Y-28731348D01*
X44538842Y-28763887D01*
X44626650Y-28975876D01*
X44626657Y-28975890D01*
X44741392Y-29174617D01*
X44881081Y-29356661D01*
X44881089Y-29356670D01*
X45043330Y-29518911D01*
X45043338Y-29518918D01*
X45225382Y-29658607D01*
X45225385Y-29658608D01*
X45225388Y-29658611D01*
X45424112Y-29773344D01*
X45424117Y-29773346D01*
X45424123Y-29773349D01*
X45474255Y-29794114D01*
X45636113Y-29861158D01*
X45857762Y-29920548D01*
X46085266Y-29950500D01*
X46085273Y-29950500D01*
X46314727Y-29950500D01*
X46314734Y-29950500D01*
X46542238Y-29920548D01*
X46763887Y-29861158D01*
X46975888Y-29773344D01*
X47174612Y-29658611D01*
X47356661Y-29518919D01*
X47356665Y-29518914D01*
X47356670Y-29518911D01*
X47518911Y-29356670D01*
X47518914Y-29356665D01*
X47518919Y-29356661D01*
X47658611Y-29174612D01*
X47773344Y-28975888D01*
X47861158Y-28763887D01*
X47920548Y-28542238D01*
X47950500Y-28314734D01*
X47950500Y-28085266D01*
X47920548Y-27857762D01*
X47861158Y-27636113D01*
X47802403Y-27494266D01*
X47773349Y-27424123D01*
X47773346Y-27424117D01*
X47773344Y-27424112D01*
X47658611Y-27225388D01*
X47658608Y-27225385D01*
X47658607Y-27225382D01*
X47518918Y-27043338D01*
X47518911Y-27043330D01*
X47356670Y-26881089D01*
X47356661Y-26881081D01*
X47174617Y-26741392D01*
X46975890Y-26626657D01*
X46975876Y-26626650D01*
X46763887Y-26538842D01*
X46542238Y-26479452D01*
X46504215Y-26474446D01*
X46314741Y-26449500D01*
X46314734Y-26449500D01*
X46085266Y-26449500D01*
X46085258Y-26449500D01*
X45868715Y-26478009D01*
X45857762Y-26479452D01*
X45764076Y-26504554D01*
X45636112Y-26538842D01*
X45424123Y-26626650D01*
X45424109Y-26626657D01*
X45225382Y-26741392D01*
X45043338Y-26881081D01*
X44881081Y-27043338D01*
X44741392Y-27225382D01*
X44626657Y-27424109D01*
X44626650Y-27424123D01*
X44538842Y-27636112D01*
X44479453Y-27857759D01*
X44479451Y-27857770D01*
X44449500Y-28085258D01*
X37928927Y-28085258D01*
X37928927Y-25978711D01*
X51149500Y-25978711D01*
X51149500Y-26221288D01*
X51181161Y-26461785D01*
X51243947Y-26696104D01*
X51300922Y-26833653D01*
X51336776Y-26920212D01*
X51458064Y-27130289D01*
X51458066Y-27130292D01*
X51458067Y-27130293D01*
X51605733Y-27322736D01*
X51605739Y-27322743D01*
X51777256Y-27494260D01*
X51777262Y-27494265D01*
X51969711Y-27641936D01*
X52179788Y-27763224D01*
X52403900Y-27856054D01*
X52638211Y-27918838D01*
X52802191Y-27940426D01*
X52878711Y-27950500D01*
X52878712Y-27950500D01*
X54121289Y-27950500D01*
X54169388Y-27944167D01*
X54361789Y-27918838D01*
X54596100Y-27856054D01*
X54820212Y-27763224D01*
X55030289Y-27641936D01*
X55222738Y-27494265D01*
X55394265Y-27322738D01*
X55541936Y-27130289D01*
X55663224Y-26920212D01*
X55756054Y-26696100D01*
X55818838Y-26461789D01*
X55850500Y-26221288D01*
X55850500Y-25978712D01*
X55850500Y-25978711D01*
X56649500Y-25978711D01*
X56649500Y-26221288D01*
X56681161Y-26461785D01*
X56743947Y-26696104D01*
X56800922Y-26833653D01*
X56836776Y-26920212D01*
X56958064Y-27130289D01*
X56958066Y-27130292D01*
X56958067Y-27130293D01*
X57105733Y-27322736D01*
X57105739Y-27322743D01*
X57277256Y-27494260D01*
X57277262Y-27494265D01*
X57469711Y-27641936D01*
X57679788Y-27763224D01*
X57903900Y-27856054D01*
X58138211Y-27918838D01*
X58302191Y-27940426D01*
X58378711Y-27950500D01*
X58378712Y-27950500D01*
X59621289Y-27950500D01*
X59669388Y-27944167D01*
X59861789Y-27918838D01*
X60096100Y-27856054D01*
X60320212Y-27763224D01*
X60530289Y-27641936D01*
X60722738Y-27494265D01*
X60894265Y-27322738D01*
X61041936Y-27130289D01*
X61163224Y-26920212D01*
X61256054Y-26696100D01*
X61318838Y-26461789D01*
X61350500Y-26221288D01*
X61350500Y-25978712D01*
X61318838Y-25738211D01*
X61256054Y-25503900D01*
X61252611Y-25495589D01*
X61163226Y-25279794D01*
X61163224Y-25279788D01*
X61041936Y-25069711D01*
X60894265Y-24877262D01*
X60894260Y-24877256D01*
X60722743Y-24705739D01*
X60722736Y-24705733D01*
X60530293Y-24558067D01*
X60530292Y-24558066D01*
X60530289Y-24558064D01*
X60320212Y-24436776D01*
X60320205Y-24436773D01*
X60096104Y-24343947D01*
X59861785Y-24281161D01*
X59621289Y-24249500D01*
X59621288Y-24249500D01*
X58378712Y-24249500D01*
X58378711Y-24249500D01*
X58138214Y-24281161D01*
X57903895Y-24343947D01*
X57679794Y-24436773D01*
X57679785Y-24436777D01*
X57469706Y-24558067D01*
X57277263Y-24705733D01*
X57277256Y-24705739D01*
X57105739Y-24877256D01*
X57105733Y-24877263D01*
X56958067Y-25069706D01*
X56836777Y-25279785D01*
X56836773Y-25279794D01*
X56743947Y-25503895D01*
X56681161Y-25738214D01*
X56649500Y-25978711D01*
X55850500Y-25978711D01*
X55818838Y-25738211D01*
X55756054Y-25503900D01*
X55752611Y-25495589D01*
X55663226Y-25279794D01*
X55663224Y-25279788D01*
X55541936Y-25069711D01*
X55394265Y-24877262D01*
X55394260Y-24877256D01*
X55222743Y-24705739D01*
X55222736Y-24705733D01*
X55030293Y-24558067D01*
X55030292Y-24558066D01*
X55030289Y-24558064D01*
X54820212Y-24436776D01*
X54820205Y-24436773D01*
X54596104Y-24343947D01*
X54361785Y-24281161D01*
X54121289Y-24249500D01*
X54121288Y-24249500D01*
X52878712Y-24249500D01*
X52878711Y-24249500D01*
X52638214Y-24281161D01*
X52403895Y-24343947D01*
X52179794Y-24436773D01*
X52179785Y-24436777D01*
X51969706Y-24558067D01*
X51777263Y-24705733D01*
X51777256Y-24705739D01*
X51605739Y-24877256D01*
X51605733Y-24877263D01*
X51458067Y-25069706D01*
X51336777Y-25279785D01*
X51336773Y-25279794D01*
X51243947Y-25503895D01*
X51181161Y-25738214D01*
X51149500Y-25978711D01*
X37928927Y-25978711D01*
X37928927Y-19503051D01*
X37929076Y-19496967D01*
X37945479Y-19163072D01*
X37946672Y-19150962D01*
X37995276Y-18823296D01*
X37997645Y-18811385D01*
X38078137Y-18490043D01*
X38081667Y-18478411D01*
X38193262Y-18166525D01*
X38197903Y-18155318D01*
X38339551Y-17855828D01*
X38345267Y-17845136D01*
X38515572Y-17560998D01*
X38522315Y-17550905D01*
X38719659Y-17284818D01*
X38727362Y-17275433D01*
X38949832Y-17029975D01*
X38958402Y-17021405D01*
X39203860Y-16798935D01*
X39213245Y-16791232D01*
X39479332Y-16593888D01*
X39489425Y-16587145D01*
X39773563Y-16416840D01*
X39784255Y-16411124D01*
X40083745Y-16269476D01*
X40094952Y-16264835D01*
X40406839Y-16153239D01*
X40418470Y-16149710D01*
X40739812Y-16069218D01*
X40751723Y-16066849D01*
X41079389Y-16018244D01*
X41091495Y-16017052D01*
X41425394Y-16000648D01*
X41431478Y-16000500D01*
X41494319Y-16000500D01*
X137434108Y-16000500D01*
X137496949Y-16000500D01*
X137503032Y-16000648D01*
G37*
%TD.AperFunction*%
%TD*%
M02*
