M48
; DRILL file KiCad 10.0.1 date 2026-05-05T14:40:40
; FORMAT={-:-/ absolute / inch / decimal}
; #@! TF.CreationDate,2026-05-05T14:40:40-05:00
; #@! TF.GenerationSoftware,Kicad,Pcbnew,10.0.1
; #@! TF.FileFunction,Plated,1,2,PTH
FMAT,2
INCH
; #@! TA.AperFunction,Plated,PTH,ViaDrill
T1C0.0079
; #@! TA.AperFunction,Plated,PTH,ViaDrill
T2C0.0118
; #@! TA.AperFunction,Plated,PTH,ComponentDrill
T3C0.0118
; #@! TA.AperFunction,Plated,PTH,ComponentDrill
T4C0.0236
; #@! TA.AperFunction,Plated,PTH,ComponentDrill
T5C0.0354
; #@! TA.AperFunction,Plated,PTH,ComponentDrill
T6C0.0709
; #@! TA.AperFunction,Plated,PTH,ComponentDrill
T7C0.1063
%
G90
G05
T1
X5.3022Y-1.1122
X5.3022Y-1.1516
T2
X2.5197Y-1.1614
X2.5197Y-1.5945
X2.5197Y-2.0472
X2.5217Y-2.498
X2.7151Y-1.2579
X2.7165Y-1.0595
X2.7165Y-1.4926
X2.7165Y-1.6895
X2.7165Y-1.9454
X2.7165Y-2.1457
X2.7165Y-2.3784
X2.7165Y-2.6181
X2.8137Y-1.2808
X2.8137Y-1.437
X2.8963Y-1.7494
X2.9055Y-0.8846
X2.9134Y-0.8268
X2.9659Y-1.8189
X3.0059Y-2.6821
X3.0315Y-1.939
X3.0906Y-1.6014
X3.0906Y-1.9882
X3.1181Y-1.8524
X3.1594Y-1.9193
X3.2402Y-0.8846
X3.248Y-0.8268
X3.2539Y-2.1796
X3.306Y-1.5451
X3.3074Y-1.4749
X3.3406Y-2.6821
X3.5295Y-1.7854
X3.5295Y-2.061
X3.563Y-2.061
X3.5748Y-0.8846
X3.5827Y-0.8268
X3.6614Y-2.3312
X3.6752Y-2.6821
X3.7598Y-1.8701
X3.7598Y-1.9094
X3.8583Y-1.7717
X3.8583Y-1.811
X3.878Y-1.9685
X3.9114Y-0.8809
X3.9173Y-0.8268
X3.9498Y-1.3583
X3.9515Y-2.185
X3.9764Y-1.5354
X3.9764Y-1.6378
X3.9764Y-1.8504
X4.0098Y-2.6821
X4.0354Y-2.1457
X4.0551Y-2.1063
X4.1703Y-1.9237
X4.2009Y-2.3899
X4.2467Y-2.4803
X4.252Y-1.752
X4.2618Y-1.7913
X4.2717Y-2.3228
X4.2751Y-2.6181
X4.625Y-2.6931
X4.7244Y-2.5034
X4.8031Y-2.5197
X4.8819Y-2.5197
X5.0079Y-1.7835
X5.0787Y-1.1614
X5.1378Y-1.0039
X5.1575Y-1.1614
X5.1772Y-0.9646
X5.1969Y-2.0669
X5.2165Y-2.1457
X5.2233Y-1.202
X5.2254Y-1.122
X5.2874Y-1.5098
X5.3346Y-1.9183
X5.4887Y-2.1457
T3
X4.9075Y-1.9939
X4.9075Y-2.0451
X4.9075Y-2.0963
X4.9075Y-2.1474
X4.9587Y-1.9939
X4.9587Y-2.0451
X4.9587Y-2.0963
X4.9587Y-2.1474
T5
X4.9256Y-2.35
X4.9256Y-2.45
X5.0256Y-2.4
X5.0256Y-2.5
T6
X2.1053Y-2.3819
X2.1053Y-2.5472
X2.1063Y-1.0276
X2.1063Y-1.1929
X2.1063Y-1.4764
X2.1063Y-1.6417
X2.1063Y-1.9291
X2.1063Y-2.0945
X2.3219Y-2.3819
X2.3219Y-2.5472
X2.3228Y-1.0276
X2.3228Y-1.1929
X2.3228Y-1.4764
X2.3228Y-1.6417
X2.3228Y-1.9291
X2.3228Y-2.0945
T7
X1.6299Y-0.7677
X1.6299Y-2.7953
X5.4134Y-0.7677
X5.4134Y-2.7953
T4
G00X5.2691Y-0.9717
M15
G01X5.3085Y-0.9717
M16
G05
G00X5.2691Y-1.3118
M15
G01X5.3085Y-1.3118
M16
G05
G00X5.4703Y-0.9717
M15
G01X5.5293Y-0.9717
M16
G05
G00X5.4703Y-1.3118
M15
G01X5.5293Y-1.3118
M16
G05
M30
