%TF.GenerationSoftware,KiCad,Pcbnew,10.0.1*%
%TF.CreationDate,2026-05-05T14:40:40-05:00*%
%TF.ProjectId,VEXBridge,56455842-7269-4646-9765-2e6b69636164,1.0*%
%TF.SameCoordinates,Original*%
%TF.FileFunction,Legend,Bot*%
%TF.FilePolarity,Positive*%
%FSLAX46Y46*%
G04 Gerber Fmt 4.6, Leading zero omitted, Abs format (unit mm)*
G04 Created by KiCad (PCBNEW 10.0.1) date 2026-05-05 14:40:40*
%MOMM*%
%LPD*%
G01*
G04 APERTURE LIST*
G04 Aperture macros list*
%AMRoundRect*
0 Rectangle with rounded corners*
0 $1 Rounding radius*
0 $2 $3 $4 $5 $6 $7 $8 $9 X,Y pos of 4 corners*
0 Add a 4 corners polygon primitive as box body*
4,1,4,$2,$3,$4,$5,$6,$7,$8,$9,$2,$3,0*
0 Add four circle primitives for the rounded corners*
1,1,$1+$1,$2,$3*
1,1,$1+$1,$4,$5*
1,1,$1+$1,$6,$7*
1,1,$1+$1,$8,$9*
0 Add four rect primitives between the rounded corners*
20,1,$1+$1,$2,$3,$4,$5,0*
20,1,$1+$1,$4,$5,$6,$7,0*
20,1,$1+$1,$6,$7,$8,$9,0*
20,1,$1+$1,$8,$9,$2,$3,0*%
G04 Aperture macros list end*
%ADD10C,0.187500*%
%ADD11C,0.000000*%
%ADD12O,2.100000X1.100000*%
%ADD13O,2.600000X1.100000*%
%ADD14O,3.700000X2.700000*%
%ADD15RoundRect,0.250001X1.599999X-1.099999X1.599999X1.099999X-1.599999X1.099999X-1.599999X-1.099999X0*%
%ADD16C,3.000000*%
%ADD17C,5.400000*%
%ADD18C,1.800000*%
%ADD19RoundRect,0.250000X0.650000X-0.650000X0.650000X0.650000X-0.650000X0.650000X-0.650000X-0.650000X0*%
%ADD20C,3.250000*%
G04 APERTURE END LIST*
D10*
X122750000Y-35806678D02*
X122883928Y-36878107D01*
X122883928Y-36878107D02*
X122982143Y-37092392D01*
X122982143Y-37092392D02*
X123142857Y-37235250D01*
X123142857Y-37235250D02*
X123366071Y-37306678D01*
X123366071Y-37306678D02*
X123508928Y-37306678D01*
X121508929Y-37306678D02*
X122223214Y-37306678D01*
X122223214Y-37306678D02*
X122035714Y-35806678D01*
X120133928Y-37163821D02*
X120214285Y-37235250D01*
X120214285Y-37235250D02*
X120437500Y-37306678D01*
X120437500Y-37306678D02*
X120580357Y-37306678D01*
X120580357Y-37306678D02*
X120785714Y-37235250D01*
X120785714Y-37235250D02*
X120910714Y-37092392D01*
X120910714Y-37092392D02*
X120964285Y-36949535D01*
X120964285Y-36949535D02*
X121000000Y-36663821D01*
X121000000Y-36663821D02*
X120973214Y-36449535D01*
X120973214Y-36449535D02*
X120866071Y-36163821D01*
X120866071Y-36163821D02*
X120776785Y-36020964D01*
X120776785Y-36020964D02*
X120616071Y-35878107D01*
X120616071Y-35878107D02*
X120392857Y-35806678D01*
X120392857Y-35806678D02*
X120250000Y-35806678D01*
X120250000Y-35806678D02*
X120044643Y-35878107D01*
X120044643Y-35878107D02*
X119982143Y-35949535D01*
X118892857Y-35806678D02*
X119026785Y-36878107D01*
X119026785Y-36878107D02*
X119125000Y-37092392D01*
X119125000Y-37092392D02*
X119285714Y-37235250D01*
X119285714Y-37235250D02*
X119508928Y-37306678D01*
X119508928Y-37306678D02*
X119651785Y-37306678D01*
X117651786Y-37306678D02*
X118366071Y-37306678D01*
X118366071Y-37306678D02*
X118178571Y-35806678D01*
X116276785Y-37163821D02*
X116357142Y-37235250D01*
X116357142Y-37235250D02*
X116580357Y-37306678D01*
X116580357Y-37306678D02*
X116723214Y-37306678D01*
X116723214Y-37306678D02*
X116928571Y-37235250D01*
X116928571Y-37235250D02*
X117053571Y-37092392D01*
X117053571Y-37092392D02*
X117107142Y-36949535D01*
X117107142Y-36949535D02*
X117142857Y-36663821D01*
X117142857Y-36663821D02*
X117116071Y-36449535D01*
X117116071Y-36449535D02*
X117008928Y-36163821D01*
X117008928Y-36163821D02*
X116919642Y-36020964D01*
X116919642Y-36020964D02*
X116758928Y-35878107D01*
X116758928Y-35878107D02*
X116535714Y-35806678D01*
X116535714Y-35806678D02*
X116392857Y-35806678D01*
X116392857Y-35806678D02*
X116187500Y-35878107D01*
X116187500Y-35878107D02*
X116125000Y-35949535D01*
X115035714Y-35806678D02*
X115169642Y-36878107D01*
X115169642Y-36878107D02*
X115267857Y-37092392D01*
X115267857Y-37092392D02*
X115428571Y-37235250D01*
X115428571Y-37235250D02*
X115651785Y-37306678D01*
X115651785Y-37306678D02*
X115794642Y-37306678D01*
X113794643Y-37306678D02*
X114508928Y-37306678D01*
X114508928Y-37306678D02*
X114321428Y-35806678D01*
X112419642Y-37163821D02*
X112499999Y-37235250D01*
X112499999Y-37235250D02*
X112723214Y-37306678D01*
X112723214Y-37306678D02*
X112866071Y-37306678D01*
X112866071Y-37306678D02*
X113071428Y-37235250D01*
X113071428Y-37235250D02*
X113196428Y-37092392D01*
X113196428Y-37092392D02*
X113249999Y-36949535D01*
X113249999Y-36949535D02*
X113285714Y-36663821D01*
X113285714Y-36663821D02*
X113258928Y-36449535D01*
X113258928Y-36449535D02*
X113151785Y-36163821D01*
X113151785Y-36163821D02*
X113062499Y-36020964D01*
X113062499Y-36020964D02*
X112901785Y-35878107D01*
X112901785Y-35878107D02*
X112678571Y-35806678D01*
X112678571Y-35806678D02*
X112535714Y-35806678D01*
X112535714Y-35806678D02*
X112330357Y-35878107D01*
X112330357Y-35878107D02*
X112267857Y-35949535D01*
X111178571Y-35806678D02*
X111312499Y-36878107D01*
X111312499Y-36878107D02*
X111410714Y-37092392D01*
X111410714Y-37092392D02*
X111571428Y-37235250D01*
X111571428Y-37235250D02*
X111794642Y-37306678D01*
X111794642Y-37306678D02*
X111937499Y-37306678D01*
X109937500Y-37306678D02*
X110651785Y-37306678D01*
X110651785Y-37306678D02*
X110464285Y-35806678D01*
X108562499Y-37163821D02*
X108642856Y-37235250D01*
X108642856Y-37235250D02*
X108866071Y-37306678D01*
X108866071Y-37306678D02*
X109008928Y-37306678D01*
X109008928Y-37306678D02*
X109214285Y-37235250D01*
X109214285Y-37235250D02*
X109339285Y-37092392D01*
X109339285Y-37092392D02*
X109392856Y-36949535D01*
X109392856Y-36949535D02*
X109428571Y-36663821D01*
X109428571Y-36663821D02*
X109401785Y-36449535D01*
X109401785Y-36449535D02*
X109294642Y-36163821D01*
X109294642Y-36163821D02*
X109205356Y-36020964D01*
X109205356Y-36020964D02*
X109044642Y-35878107D01*
X109044642Y-35878107D02*
X108821428Y-35806678D01*
X108821428Y-35806678D02*
X108678571Y-35806678D01*
X108678571Y-35806678D02*
X108473214Y-35878107D01*
X108473214Y-35878107D02*
X108410714Y-35949535D01*
D11*
%TO.C,G\u002A\u002A\u002A*%
G36*
X118479550Y-27415440D02*
G01*
X118479550Y-30715572D01*
X111164457Y-30715572D01*
X103849364Y-30715572D01*
X103855404Y-27421435D01*
X103856855Y-26630170D01*
X104206942Y-26630170D01*
X104206942Y-27386192D01*
X104206942Y-28142214D01*
X104958368Y-28142214D01*
X105709794Y-28142214D01*
X105702974Y-28374531D01*
X105696154Y-28606848D01*
X104987289Y-28613159D01*
X104278424Y-28619471D01*
X104278424Y-28816218D01*
X104278424Y-29012966D01*
X104475498Y-29209016D01*
X104672572Y-29405066D01*
X105387422Y-29405066D01*
X106102272Y-29405066D01*
X106298322Y-29207992D01*
X106494372Y-29010918D01*
X106494372Y-27819520D01*
X106494372Y-26635265D01*
X106875610Y-26635265D01*
X106875610Y-28336375D01*
X106875610Y-30037485D01*
X107084571Y-30245478D01*
X107293532Y-30453471D01*
X108008409Y-30453471D01*
X108723285Y-30453471D01*
X108919335Y-30256397D01*
X109115385Y-30059323D01*
X109115385Y-29887073D01*
X109115385Y-29714822D01*
X108400563Y-29714822D01*
X107685742Y-29714822D01*
X107685742Y-29328748D01*
X107685742Y-28942674D01*
X107776099Y-29030905D01*
X107866456Y-29119137D01*
X108330612Y-29119137D01*
X108794767Y-29119137D01*
X108990817Y-28922063D01*
X109186867Y-28724989D01*
X109186867Y-27676556D01*
X109186867Y-27224859D01*
X109591933Y-27224859D01*
X109591933Y-29405066D01*
X109985085Y-29405066D01*
X110378237Y-29405066D01*
X110378237Y-29304795D01*
X110378237Y-29204524D01*
X110480405Y-29304795D01*
X110582574Y-29405066D01*
X111034918Y-29405066D01*
X111487263Y-29405066D01*
X111683313Y-29207992D01*
X111879363Y-29010918D01*
X111879363Y-27820544D01*
X112284428Y-27820544D01*
X112284428Y-29405066D01*
X112677580Y-29405066D01*
X113070732Y-29405066D01*
X113070732Y-28213696D01*
X113070732Y-27022326D01*
X113142214Y-27022326D01*
X113213697Y-27022326D01*
X113428143Y-27022326D01*
X113725985Y-27022326D01*
X114023828Y-27022326D01*
X114023828Y-28213696D01*
X114023828Y-29405066D01*
X114416980Y-29405066D01*
X114810132Y-29405066D01*
X114810132Y-28016594D01*
X114810132Y-26630170D01*
X115215197Y-26630170D01*
X115215197Y-27821568D01*
X115215197Y-29012966D01*
X115412271Y-29209016D01*
X115609345Y-29405066D01*
X116060666Y-29405066D01*
X116511987Y-29405066D01*
X116614155Y-29304795D01*
X116716323Y-29204524D01*
X116716323Y-29304795D01*
X116716323Y-29405066D01*
X117109475Y-29405066D01*
X117502627Y-29405066D01*
X117502627Y-27224859D01*
X117502627Y-25044653D01*
X117109475Y-25044653D01*
X116716323Y-25044653D01*
X116716323Y-25437805D01*
X116716323Y-25740608D01*
X116716323Y-26436564D01*
X116614155Y-26336293D01*
X116511987Y-26236022D01*
X116059642Y-26236022D01*
X115607297Y-26236022D01*
X115411247Y-26433096D01*
X115217234Y-26628122D01*
X115215197Y-26630170D01*
X114810132Y-26630170D01*
X114810132Y-26628122D01*
X114613058Y-26432072D01*
X114415984Y-26236022D01*
X113922064Y-26236022D01*
X113428143Y-26236022D01*
X113428143Y-26629174D01*
X113428143Y-27022326D01*
X113213697Y-27022326D01*
X113213697Y-26629174D01*
X113213697Y-26236022D01*
X112749062Y-26236022D01*
X112284428Y-26236022D01*
X112284428Y-26628122D01*
X112284428Y-27820544D01*
X111879363Y-27820544D01*
X111879363Y-27819520D01*
X111879363Y-26628122D01*
X111682289Y-26432072D01*
X111485215Y-26236022D01*
X111033894Y-26236022D01*
X110582574Y-26236022D01*
X110480405Y-26336293D01*
X110378237Y-26436564D01*
X110378237Y-25740608D01*
X110378237Y-25044653D01*
X112284428Y-25044653D01*
X112284428Y-25437805D01*
X112284428Y-25830957D01*
X112677580Y-25830957D01*
X113070732Y-25830957D01*
X113070732Y-25437805D01*
X113070732Y-25044653D01*
X112677580Y-25044653D01*
X112284428Y-25044653D01*
X110378237Y-25044653D01*
X109985085Y-25044653D01*
X109591933Y-25044653D01*
X109591933Y-26628122D01*
X109591933Y-27224859D01*
X109186867Y-27224859D01*
X109186867Y-26628122D01*
X108989794Y-26432072D01*
X108792720Y-26236022D01*
X108029011Y-26236022D01*
X107265302Y-26236022D01*
X107070456Y-26435644D01*
X106882582Y-26628122D01*
X106875610Y-26635265D01*
X106494372Y-26635265D01*
X106494372Y-26628122D01*
X106297298Y-26432072D01*
X106100225Y-26236022D01*
X105349633Y-26236022D01*
X104599042Y-26236022D01*
X104402992Y-26433096D01*
X104206942Y-26630170D01*
X103856855Y-26630170D01*
X103861445Y-24127298D01*
X111170498Y-24121303D01*
X118479550Y-24115309D01*
X118479550Y-27224859D01*
X118479550Y-27415440D01*
G37*
G36*
X122426426Y-25193069D02*
G01*
X122425114Y-25196105D01*
X122405983Y-25239295D01*
X122369593Y-25320697D01*
X122317970Y-25435801D01*
X122253141Y-25580098D01*
X122177133Y-25749078D01*
X122091974Y-25938232D01*
X121999690Y-26143050D01*
X121902308Y-26359024D01*
X121411551Y-27447036D01*
X121925142Y-28586885D01*
X121964378Y-28673971D01*
X122061075Y-28888642D01*
X122151280Y-29088975D01*
X122233125Y-29270814D01*
X122304739Y-29429998D01*
X122364252Y-29562370D01*
X122409792Y-29663772D01*
X122439490Y-29730046D01*
X122451475Y-29757032D01*
X122447901Y-29766931D01*
X122422245Y-29774722D01*
X122369053Y-29779749D01*
X122283302Y-29782274D01*
X122159972Y-29782557D01*
X121994040Y-29780860D01*
X121523863Y-29774390D01*
X121242630Y-29131051D01*
X121220413Y-29080368D01*
X121150148Y-28921969D01*
X121086179Y-28780555D01*
X121031012Y-28661483D01*
X120987157Y-28570111D01*
X120957122Y-28511797D01*
X120943415Y-28491899D01*
X120941282Y-28494046D01*
X120922897Y-28527939D01*
X120889287Y-28598723D01*
X120842912Y-28700920D01*
X120786233Y-28829050D01*
X120721711Y-28977635D01*
X120651806Y-29141195D01*
X120378180Y-29786304D01*
X119917327Y-29786304D01*
X119901017Y-29786293D01*
X119760326Y-29785230D01*
X119638281Y-29782631D01*
X119542133Y-29778778D01*
X119479135Y-29773951D01*
X119456539Y-29768433D01*
X119458381Y-29762776D01*
X119475715Y-29720398D01*
X119509858Y-29640365D01*
X119559021Y-29526766D01*
X119621420Y-29383689D01*
X119695267Y-29215225D01*
X119778777Y-29025462D01*
X119870164Y-28818490D01*
X119967640Y-28598397D01*
X120478676Y-27446231D01*
X119967574Y-26295939D01*
X119924530Y-26199011D01*
X119829436Y-25984491D01*
X119741218Y-25784961D01*
X119661665Y-25604499D01*
X119592565Y-25447181D01*
X119535708Y-25317084D01*
X119492881Y-25218286D01*
X119465873Y-25154862D01*
X119456473Y-25130891D01*
X119456768Y-25130362D01*
X119484249Y-25125859D01*
X119551325Y-25121953D01*
X119650743Y-25118875D01*
X119775253Y-25116859D01*
X119917605Y-25116135D01*
X120378736Y-25116135D01*
X120652952Y-25760879D01*
X120673869Y-25809930D01*
X120742632Y-25969324D01*
X120805351Y-26111942D01*
X120859553Y-26232348D01*
X120902766Y-26325106D01*
X120932517Y-26384781D01*
X120946333Y-26405935D01*
X120948428Y-26404308D01*
X120967145Y-26372252D01*
X121001387Y-26303305D01*
X121048630Y-26202895D01*
X121106355Y-26076447D01*
X121172038Y-25929389D01*
X121243160Y-25767147D01*
X121520821Y-25128049D01*
X121990304Y-25121586D01*
X122459787Y-25115124D01*
X122426426Y-25193069D01*
G37*
G36*
X126353996Y-25116389D02*
G01*
X126477508Y-25117618D01*
X126565286Y-25120379D01*
X126623655Y-25125226D01*
X126658940Y-25132715D01*
X126677464Y-25143399D01*
X126685555Y-25157833D01*
X126692998Y-25186880D01*
X126710638Y-25258340D01*
X126737418Y-25367900D01*
X126772330Y-25511399D01*
X126814363Y-25684674D01*
X126862508Y-25883565D01*
X126915756Y-26103909D01*
X126973097Y-26341545D01*
X127033522Y-26592313D01*
X127033763Y-26593313D01*
X127093912Y-26842779D01*
X127150803Y-27078107D01*
X127203453Y-27295272D01*
X127250880Y-27490250D01*
X127292099Y-27659015D01*
X127326129Y-27797542D01*
X127351985Y-27901806D01*
X127368685Y-27967781D01*
X127375246Y-27991443D01*
X127375536Y-27991108D01*
X127383638Y-27963216D01*
X127401744Y-27893482D01*
X127428888Y-27785823D01*
X127464103Y-27644160D01*
X127506424Y-27472410D01*
X127554884Y-27274492D01*
X127608518Y-27054325D01*
X127666359Y-26815829D01*
X127727441Y-26562920D01*
X128073287Y-25128049D01*
X128544040Y-25121582D01*
X128580666Y-25121086D01*
X128732472Y-25119375D01*
X128843811Y-25119186D01*
X128920641Y-25120982D01*
X128968921Y-25125228D01*
X128994607Y-25132391D01*
X129003659Y-25142934D01*
X129002034Y-25157323D01*
X129000851Y-25161649D01*
X128989841Y-25204505D01*
X128968378Y-25289306D01*
X128937275Y-25412801D01*
X128897347Y-25571739D01*
X128849410Y-25762868D01*
X128794278Y-25982936D01*
X128732766Y-26228693D01*
X128665688Y-26496885D01*
X128593859Y-26784262D01*
X128518095Y-27087573D01*
X128439209Y-27403565D01*
X128415742Y-27497587D01*
X128337325Y-27811704D01*
X128262075Y-28113028D01*
X128190828Y-28398216D01*
X128124421Y-28663923D01*
X128063691Y-28906804D01*
X128009475Y-29123515D01*
X127962608Y-29310710D01*
X127923928Y-29465047D01*
X127894271Y-29583179D01*
X127874475Y-29661762D01*
X127865375Y-29697451D01*
X127841609Y-29787304D01*
X127373542Y-29780847D01*
X126905475Y-29774390D01*
X126326900Y-27463133D01*
X126277320Y-27265018D01*
X126198439Y-26949586D01*
X126123370Y-26649116D01*
X126052891Y-26366734D01*
X125987781Y-26105567D01*
X125928815Y-25868740D01*
X125876773Y-25659380D01*
X125832430Y-25480614D01*
X125796566Y-25335567D01*
X125769957Y-25227366D01*
X125753381Y-25159137D01*
X125747615Y-25134006D01*
X125747945Y-25133301D01*
X125775697Y-25127866D01*
X125842993Y-25123152D01*
X125942611Y-25119440D01*
X126067332Y-25117008D01*
X126209933Y-25116135D01*
X126353996Y-25116389D01*
G37*
G36*
X100137849Y-29588551D02*
G01*
X100129349Y-29725858D01*
X100121966Y-29777794D01*
X100074939Y-29956916D01*
X99998398Y-30099241D01*
X99891638Y-30205803D01*
X99753958Y-30277634D01*
X99710763Y-30290811D01*
X99566268Y-30308608D01*
X99418393Y-30293086D01*
X99281695Y-30246867D01*
X99170730Y-30172573D01*
X99145103Y-30144877D01*
X99091549Y-30070769D01*
X99045531Y-29988837D01*
X99038787Y-29974324D01*
X99016829Y-29919672D01*
X99002414Y-29863276D01*
X98993997Y-29793664D01*
X98990033Y-29699361D01*
X98988976Y-29568896D01*
X98989679Y-29543003D01*
X99250893Y-29543003D01*
X99261504Y-29678531D01*
X99288869Y-29803870D01*
X99330933Y-29906927D01*
X99385643Y-29975614D01*
X99410545Y-29992772D01*
X99505039Y-30025179D01*
X99604602Y-30019432D01*
X99698051Y-29979660D01*
X99774202Y-29909992D01*
X99821872Y-29814557D01*
X99840161Y-29712010D01*
X99846933Y-29584832D01*
X99841988Y-29453142D01*
X99825993Y-29333995D01*
X99799613Y-29244447D01*
X99745916Y-29160557D01*
X99666513Y-29099647D01*
X99576436Y-29076064D01*
X99484002Y-29088477D01*
X99397527Y-29135553D01*
X99325328Y-29215960D01*
X99275721Y-29328366D01*
X99259087Y-29409377D01*
X99250893Y-29543003D01*
X98989679Y-29543003D01*
X98993626Y-29397670D01*
X99013038Y-29231808D01*
X99049973Y-29100648D01*
X99107008Y-28998109D01*
X99186721Y-28918109D01*
X99291689Y-28854565D01*
X99411217Y-28815507D01*
X99550611Y-28800026D01*
X99688535Y-28809491D01*
X99805665Y-28844288D01*
X99825733Y-28854683D01*
X99924904Y-28928823D01*
X100014076Y-29029003D01*
X100077335Y-29138014D01*
X100092625Y-29181928D01*
X100118036Y-29300187D01*
X100133594Y-29441194D01*
X100137742Y-29584832D01*
X100137849Y-29588551D01*
G37*
G36*
X106033012Y-32264615D02*
G01*
X106123111Y-32266645D01*
X106183427Y-32272241D01*
X106223851Y-32283198D01*
X106254271Y-32301313D01*
X106284578Y-32328379D01*
X106289106Y-32332736D01*
X106318532Y-32364359D01*
X106336851Y-32397553D01*
X106346688Y-32443839D01*
X106350665Y-32514736D01*
X106351408Y-32621763D01*
X106351402Y-32637309D01*
X106350402Y-32739257D01*
X106345844Y-32806495D01*
X106335104Y-32850543D01*
X106315556Y-32882921D01*
X106284578Y-32915148D01*
X106254328Y-32941961D01*
X106219360Y-32962322D01*
X106173190Y-32973498D01*
X106103668Y-32978209D01*
X105998650Y-32979174D01*
X105779550Y-32979174D01*
X105779550Y-33074484D01*
X105779550Y-33169794D01*
X106053565Y-33169794D01*
X106327580Y-33169794D01*
X106327580Y-33246098D01*
X106327579Y-33246709D01*
X106309403Y-33323227D01*
X106251424Y-33400976D01*
X106175268Y-33479550D01*
X105901104Y-33479550D01*
X105626941Y-33479550D01*
X105548367Y-33403393D01*
X105543565Y-33398732D01*
X105507987Y-33361719D01*
X105486204Y-33327121D01*
X105474832Y-33282420D01*
X105470490Y-33215099D01*
X105469794Y-33112642D01*
X105469794Y-33107958D01*
X105470657Y-33006712D01*
X105475406Y-32939940D01*
X105487338Y-32894942D01*
X105509754Y-32859019D01*
X105545950Y-32819474D01*
X105547241Y-32818143D01*
X105585430Y-32780984D01*
X105620227Y-32758187D01*
X105664393Y-32746246D01*
X105730690Y-32741652D01*
X105831879Y-32740900D01*
X106041651Y-32740900D01*
X106041651Y-32645591D01*
X106041651Y-32550281D01*
X105767636Y-32550281D01*
X105493621Y-32550281D01*
X105493621Y-32485890D01*
X105513889Y-32417732D01*
X105569778Y-32342926D01*
X105645934Y-32264353D01*
X105931842Y-32264353D01*
X106033012Y-32264615D01*
G37*
G36*
X124070348Y-32264615D02*
G01*
X124160447Y-32266645D01*
X124220763Y-32272241D01*
X124261186Y-32283198D01*
X124291607Y-32301313D01*
X124321914Y-32328379D01*
X124351148Y-32358582D01*
X124371959Y-32391743D01*
X124383223Y-32436145D01*
X124387848Y-32503925D01*
X124388743Y-32607216D01*
X124388743Y-32612335D01*
X124387875Y-32713492D01*
X124383119Y-32780210D01*
X124371181Y-32825176D01*
X124348768Y-32861077D01*
X124312587Y-32900601D01*
X124311297Y-32901932D01*
X124273108Y-32939091D01*
X124238311Y-32961888D01*
X124194145Y-32973829D01*
X124127848Y-32978423D01*
X124026658Y-32979174D01*
X123816886Y-32979174D01*
X123816886Y-33074484D01*
X123816886Y-33169794D01*
X124090901Y-33169794D01*
X124364916Y-33169794D01*
X124364916Y-33240447D01*
X124347351Y-33310948D01*
X124290966Y-33395325D01*
X124217015Y-33479550D01*
X123940646Y-33479550D01*
X123664277Y-33479550D01*
X123585703Y-33403393D01*
X123580901Y-33398732D01*
X123545323Y-33361719D01*
X123523539Y-33327121D01*
X123512168Y-33282420D01*
X123507826Y-33215099D01*
X123507130Y-33112642D01*
X123507130Y-33107958D01*
X123507993Y-33006712D01*
X123512742Y-32939940D01*
X123524674Y-32894942D01*
X123547089Y-32859019D01*
X123583286Y-32819474D01*
X123584577Y-32818143D01*
X123622766Y-32780984D01*
X123657563Y-32758187D01*
X123701729Y-32746246D01*
X123768026Y-32741652D01*
X123869215Y-32740900D01*
X124078987Y-32740900D01*
X124078987Y-32645591D01*
X124078987Y-32550281D01*
X123804972Y-32550281D01*
X123530957Y-32550281D01*
X123530957Y-32485890D01*
X123551224Y-32417732D01*
X123607114Y-32342926D01*
X123683270Y-32264353D01*
X123969178Y-32264353D01*
X124070348Y-32264615D01*
G37*
G36*
X115680381Y-32268111D02*
G01*
X115708131Y-32272796D01*
X115709870Y-32276011D01*
X115722535Y-32313800D01*
X115743771Y-32386475D01*
X115771092Y-32485323D01*
X115802010Y-32601632D01*
X115810315Y-32633358D01*
X115841066Y-32749423D01*
X115867793Y-32848186D01*
X115887869Y-32920031D01*
X115898668Y-32955347D01*
X115903382Y-32955157D01*
X115918967Y-32922055D01*
X115942120Y-32853573D01*
X115970589Y-32756619D01*
X116002122Y-32638100D01*
X116019058Y-32572134D01*
X116049390Y-32457072D01*
X116075112Y-32363435D01*
X116093924Y-32299494D01*
X116103524Y-32273524D01*
X116123679Y-32269118D01*
X116179982Y-32267077D01*
X116257552Y-32269101D01*
X116399991Y-32276266D01*
X116216260Y-32895057D01*
X116215836Y-32896484D01*
X116167641Y-33061704D01*
X116125014Y-33213357D01*
X116089627Y-33345041D01*
X116063152Y-33450355D01*
X116047259Y-33522898D01*
X116043621Y-33556267D01*
X116057752Y-33580190D01*
X116096699Y-33594715D01*
X116171072Y-33598687D01*
X116287430Y-33598687D01*
X116287430Y-33741651D01*
X116287430Y-33884615D01*
X116137226Y-33884615D01*
X116053774Y-33882635D01*
X115997791Y-33872286D01*
X115954127Y-33847108D01*
X115904909Y-33800640D01*
X115884336Y-33778129D01*
X115862396Y-33748284D01*
X115841023Y-33709671D01*
X115818329Y-33656980D01*
X115792425Y-33584900D01*
X115761423Y-33488119D01*
X115723433Y-33361327D01*
X115676569Y-33199213D01*
X115618940Y-32996466D01*
X115415083Y-32276266D01*
X115556177Y-32269101D01*
X115619526Y-32267061D01*
X115680381Y-32268111D01*
G37*
G36*
X122649344Y-33203266D02*
G01*
X122573187Y-33281839D01*
X122549748Y-33305441D01*
X122511859Y-33336149D01*
X122469939Y-33352588D01*
X122409449Y-33359196D01*
X122315852Y-33360413D01*
X122223384Y-33357329D01*
X122146010Y-33347359D01*
X122106079Y-33331820D01*
X122099757Y-33326575D01*
X122086362Y-33331153D01*
X122079450Y-33370483D01*
X122077486Y-33450957D01*
X122077486Y-33598687D01*
X122351501Y-33598687D01*
X122625516Y-33598687D01*
X122625516Y-33663078D01*
X122605249Y-33731236D01*
X122549360Y-33806042D01*
X122473204Y-33884615D01*
X122199040Y-33884615D01*
X121924877Y-33884615D01*
X121846304Y-33808459D01*
X121767730Y-33732303D01*
X121767730Y-33065157D01*
X121767730Y-32562195D01*
X122065573Y-32562195D01*
X122065573Y-32812383D01*
X122065573Y-33062570D01*
X122202580Y-33069716D01*
X122339588Y-33076862D01*
X122339588Y-32812383D01*
X122339588Y-32547903D01*
X122202580Y-32555049D01*
X122065573Y-32562195D01*
X121767730Y-32562195D01*
X121767730Y-32398011D01*
X121831757Y-32331182D01*
X121839100Y-32323543D01*
X121865498Y-32298688D01*
X121893753Y-32281995D01*
X121933025Y-32271840D01*
X121992473Y-32266597D01*
X122081258Y-32264643D01*
X122208537Y-32264353D01*
X122244290Y-32264358D01*
X122361139Y-32264910D01*
X122441771Y-32267531D01*
X122495346Y-32273843D01*
X122531022Y-32285473D01*
X122557959Y-32304044D01*
X122585317Y-32331182D01*
X122649344Y-32398011D01*
X122649344Y-32800638D01*
X122649344Y-32812383D01*
X122649344Y-33203266D01*
G37*
G36*
X109472796Y-32717073D02*
G01*
X109472796Y-33013827D01*
X109472796Y-33479550D01*
X109098649Y-33479550D01*
X108724502Y-33479550D01*
X108645928Y-33403393D01*
X108567355Y-33327237D01*
X108567355Y-33169794D01*
X108851010Y-33169794D01*
X109018939Y-33169794D01*
X109186867Y-33169794D01*
X109186867Y-33013827D01*
X109186867Y-32857860D01*
X109026032Y-32864906D01*
X108865197Y-32871951D01*
X108858104Y-33020872D01*
X108851010Y-33169794D01*
X108567355Y-33169794D01*
X108567355Y-33086181D01*
X108567403Y-33037357D01*
X108568787Y-32943577D01*
X108574051Y-32881793D01*
X108585784Y-32840809D01*
X108606577Y-32809431D01*
X108639020Y-32776466D01*
X108710686Y-32707806D01*
X108639020Y-32633866D01*
X108626785Y-32621125D01*
X108598354Y-32587411D01*
X108580834Y-32552079D01*
X108571586Y-32503621D01*
X108567973Y-32430527D01*
X108567355Y-32321288D01*
X108567380Y-32288546D01*
X108567819Y-32252439D01*
X108865197Y-32252439D01*
X108865197Y-32407317D01*
X108865197Y-32562195D01*
X109014427Y-32569297D01*
X109089040Y-32571385D01*
X109146976Y-32563198D01*
X109176454Y-32534717D01*
X109185531Y-32476886D01*
X109182264Y-32380649D01*
X109174954Y-32252439D01*
X109020076Y-32252439D01*
X108865197Y-32252439D01*
X108567819Y-32252439D01*
X108568580Y-32189778D01*
X108573394Y-32124573D01*
X108584289Y-32081758D01*
X108603730Y-32050165D01*
X108634184Y-32018623D01*
X108701013Y-31954597D01*
X109086905Y-31954597D01*
X109472796Y-31954597D01*
X109472796Y-32476886D01*
X109472796Y-32717073D01*
G37*
G36*
X101538274Y-28814768D02*
G01*
X101836117Y-28821294D01*
X101843211Y-28970216D01*
X101850304Y-29119137D01*
X101553027Y-29119137D01*
X101419703Y-29120731D01*
X101315917Y-29127531D01*
X101246816Y-29142001D01*
X101205725Y-29166594D01*
X101185966Y-29203765D01*
X101180864Y-29255970D01*
X101189810Y-29317387D01*
X101227639Y-29368331D01*
X101299928Y-29396440D01*
X101411866Y-29405066D01*
X101446311Y-29405754D01*
X101595730Y-29429621D01*
X101717378Y-29489379D01*
X101816866Y-29587557D01*
X101842019Y-29622267D01*
X101861909Y-29659003D01*
X101874904Y-29703186D01*
X101882915Y-29764869D01*
X101887851Y-29854099D01*
X101891622Y-29980929D01*
X101899472Y-30286679D01*
X101409117Y-30286679D01*
X100918762Y-30286679D01*
X100918762Y-30143715D01*
X100918762Y-30000750D01*
X101264259Y-30000750D01*
X101609757Y-30000750D01*
X101609757Y-29910743D01*
X101607020Y-29854342D01*
X101588259Y-29789047D01*
X101545081Y-29746741D01*
X101469812Y-29721280D01*
X101354779Y-29706516D01*
X101224536Y-29686929D01*
X101096689Y-29639565D01*
X100998538Y-29562748D01*
X100923162Y-29452402D01*
X100918460Y-29443047D01*
X100877189Y-29309861D01*
X100880615Y-29178371D01*
X100926291Y-29055412D01*
X101011765Y-28947818D01*
X101134590Y-28862423D01*
X101155843Y-28851857D01*
X101203124Y-28832418D01*
X101254005Y-28820289D01*
X101319490Y-28814170D01*
X101410579Y-28812762D01*
X101538274Y-28814768D01*
G37*
G36*
X117503237Y-33479550D02*
G01*
X117348054Y-33479550D01*
X117292959Y-33478925D01*
X117230827Y-33473925D01*
X117200728Y-33461818D01*
X117192871Y-33440116D01*
X117192047Y-33421107D01*
X117181614Y-33413951D01*
X117149297Y-33440116D01*
X117147749Y-33441485D01*
X117105291Y-33463861D01*
X117036133Y-33475934D01*
X116930028Y-33479550D01*
X116892763Y-33479428D01*
X116813198Y-33476371D01*
X116760667Y-33465722D01*
X116719933Y-33442917D01*
X116675760Y-33403393D01*
X116597186Y-33327237D01*
X116597186Y-33169794D01*
X116905519Y-33169794D01*
X117049907Y-33169794D01*
X117194295Y-33169794D01*
X117187626Y-32865994D01*
X117180957Y-32562195D01*
X117049907Y-32562195D01*
X116918856Y-32562195D01*
X116912187Y-32865994D01*
X116905519Y-33169794D01*
X116597186Y-33169794D01*
X116597186Y-32874368D01*
X116597186Y-32421499D01*
X116673343Y-32342926D01*
X116699016Y-32317164D01*
X116736329Y-32287597D01*
X116778408Y-32271811D01*
X116839546Y-32265499D01*
X116934038Y-32264353D01*
X116953383Y-32264482D01*
X117039814Y-32268458D01*
X117104023Y-32276864D01*
X117133303Y-32288180D01*
X117149461Y-32308668D01*
X117169185Y-32307952D01*
X117182669Y-32265704D01*
X117190402Y-32179963D01*
X117192871Y-32048769D01*
X117192871Y-31785531D01*
X117341792Y-31792625D01*
X117490713Y-31799718D01*
X117496975Y-32639634D01*
X117500928Y-33169794D01*
X117503237Y-33479550D01*
G37*
G36*
X113475798Y-32857404D02*
G01*
X113475798Y-33322403D01*
X113399642Y-33400976D01*
X113323485Y-33479550D01*
X113049322Y-33479550D01*
X112775158Y-33479550D01*
X112696585Y-33403393D01*
X112679799Y-33386428D01*
X112632035Y-33319014D01*
X112618012Y-33248515D01*
X112618012Y-33169794D01*
X112892027Y-33169794D01*
X113166042Y-33169794D01*
X113166042Y-33074484D01*
X113166042Y-32979174D01*
X112880113Y-32979174D01*
X112594184Y-32979174D01*
X112594184Y-32740900D01*
X112877236Y-32740900D01*
X113021639Y-32740900D01*
X113166042Y-32740900D01*
X113166042Y-32644402D01*
X113166042Y-32547903D01*
X113029034Y-32555049D01*
X112892027Y-32562195D01*
X112884632Y-32651548D01*
X112877236Y-32740900D01*
X112594184Y-32740900D01*
X112594184Y-32685790D01*
X112594184Y-32684723D01*
X112594548Y-32562277D01*
X112596832Y-32477831D01*
X112602829Y-32421802D01*
X112614330Y-32384606D01*
X112633128Y-32356659D01*
X112661013Y-32328379D01*
X112663441Y-32326056D01*
X112692300Y-32300504D01*
X112721867Y-32283203D01*
X112761529Y-32272545D01*
X112820678Y-32266922D01*
X112908702Y-32264727D01*
X113034991Y-32264353D01*
X113046135Y-32264353D01*
X113169189Y-32264810D01*
X113254691Y-32267208D01*
X113312030Y-32273157D01*
X113350597Y-32284264D01*
X113379780Y-32302135D01*
X113408969Y-32328379D01*
X113475798Y-32392405D01*
X113475798Y-32644402D01*
X113475798Y-32857404D01*
G37*
G36*
X120338087Y-32857404D02*
G01*
X120338087Y-33322403D01*
X120261930Y-33400976D01*
X120185774Y-33479550D01*
X119906988Y-33479550D01*
X119628202Y-33479550D01*
X119554251Y-33395325D01*
X119501399Y-33318347D01*
X119480301Y-33240447D01*
X119480301Y-33169794D01*
X119754316Y-33169794D01*
X120028331Y-33169794D01*
X120028331Y-33074484D01*
X120028331Y-32979174D01*
X119742402Y-32979174D01*
X119456473Y-32979174D01*
X119456473Y-32685790D01*
X119456473Y-32684723D01*
X119456837Y-32562277D01*
X119457161Y-32550281D01*
X119766229Y-32550281D01*
X119766229Y-32645591D01*
X119766229Y-32740900D01*
X119909194Y-32740900D01*
X120052158Y-32740900D01*
X120052158Y-32645591D01*
X120052158Y-32550281D01*
X119909194Y-32550281D01*
X119766229Y-32550281D01*
X119457161Y-32550281D01*
X119459121Y-32477831D01*
X119465118Y-32421802D01*
X119476619Y-32384606D01*
X119495417Y-32356659D01*
X119523302Y-32328379D01*
X119525730Y-32326056D01*
X119554589Y-32300504D01*
X119584156Y-32283203D01*
X119623818Y-32272545D01*
X119682967Y-32266922D01*
X119770991Y-32264727D01*
X119897280Y-32264353D01*
X119908424Y-32264353D01*
X120031478Y-32264810D01*
X120116980Y-32267208D01*
X120174319Y-32273157D01*
X120212886Y-32284264D01*
X120242069Y-32302135D01*
X120271258Y-32328379D01*
X120338087Y-32392405D01*
X120338087Y-32645591D01*
X120338087Y-32857404D01*
G37*
G36*
X119194372Y-33322403D02*
G01*
X119118216Y-33400976D01*
X119106428Y-33413015D01*
X119064993Y-33449799D01*
X119023276Y-33469739D01*
X118965493Y-33477950D01*
X118875861Y-33479550D01*
X118782448Y-33476413D01*
X118710130Y-33463920D01*
X118666089Y-33440116D01*
X118644259Y-33421107D01*
X118625920Y-33413951D01*
X118622515Y-33440116D01*
X118620096Y-33454034D01*
X118600496Y-33469872D01*
X118552942Y-33477546D01*
X118467636Y-33479550D01*
X118312758Y-33479550D01*
X118312758Y-32633677D01*
X118312758Y-32550281D01*
X118622515Y-32550281D01*
X118622515Y-32860037D01*
X118622515Y-33169794D01*
X118765479Y-33169794D01*
X118908443Y-33169794D01*
X118908443Y-32860037D01*
X118908443Y-32550281D01*
X118765479Y-32550281D01*
X118622515Y-32550281D01*
X118312758Y-32550281D01*
X118312758Y-31787805D01*
X118467636Y-31787805D01*
X118622515Y-31787805D01*
X118622515Y-32054672D01*
X118622690Y-32109057D01*
X118624784Y-32209156D01*
X118629775Y-32269477D01*
X118638328Y-32295559D01*
X118651107Y-32292945D01*
X118686939Y-32278407D01*
X118763282Y-32268056D01*
X118870207Y-32264353D01*
X118912366Y-32264508D01*
X118995611Y-32267472D01*
X119050110Y-32276838D01*
X119089531Y-32296007D01*
X119127543Y-32328379D01*
X119194372Y-32392405D01*
X119194372Y-32857404D01*
X119194372Y-32860037D01*
X119194372Y-33322403D01*
G37*
G36*
X125532458Y-32869534D02*
G01*
X125532458Y-33322403D01*
X125456302Y-33400976D01*
X125380146Y-33479550D01*
X125105982Y-33479550D01*
X124831819Y-33479550D01*
X124753246Y-33403393D01*
X124736459Y-33386428D01*
X124688695Y-33319014D01*
X124674672Y-33248515D01*
X124674672Y-33169794D01*
X124948687Y-33169794D01*
X125222702Y-33169794D01*
X125222702Y-33074484D01*
X125222702Y-32979174D01*
X124936773Y-32979174D01*
X124650845Y-32979174D01*
X124650845Y-32740900D01*
X124933897Y-32740900D01*
X125078299Y-32740900D01*
X125222702Y-32740900D01*
X125222702Y-32644402D01*
X125222702Y-32547903D01*
X125085695Y-32555049D01*
X124948687Y-32562195D01*
X124941292Y-32651548D01*
X124933897Y-32740900D01*
X124650845Y-32740900D01*
X124650845Y-32685790D01*
X124650845Y-32684723D01*
X124651209Y-32562277D01*
X124653493Y-32477831D01*
X124659490Y-32421802D01*
X124670991Y-32384606D01*
X124689788Y-32356659D01*
X124717674Y-32328379D01*
X124745457Y-32303283D01*
X124774981Y-32284716D01*
X124813531Y-32273247D01*
X124870764Y-32267168D01*
X124956337Y-32264772D01*
X125079907Y-32264353D01*
X125375311Y-32264353D01*
X125453885Y-32340509D01*
X125532458Y-32416665D01*
X125532458Y-32644402D01*
X125532458Y-32869534D01*
G37*
G36*
X103239674Y-28817979D02*
G01*
X103247396Y-28833781D01*
X103240540Y-28861909D01*
X103238237Y-28869134D01*
X103222191Y-28918747D01*
X103193993Y-29005502D01*
X103155635Y-29123285D01*
X103109110Y-29265979D01*
X103056411Y-29427470D01*
X102999530Y-29601642D01*
X102775724Y-30286679D01*
X102624658Y-30286679D01*
X102473592Y-30286679D01*
X102242948Y-29582439D01*
X102217070Y-29503460D01*
X102161239Y-29333341D01*
X102110624Y-29179472D01*
X102067142Y-29047663D01*
X102032711Y-28943723D01*
X102009250Y-28873461D01*
X101998677Y-28842686D01*
X101997827Y-28825696D01*
X102018453Y-28815310D01*
X102069743Y-28811983D01*
X102160103Y-28814234D01*
X102335158Y-28821294D01*
X102476614Y-29292075D01*
X102489123Y-29333539D01*
X102530893Y-29469522D01*
X102567814Y-29586013D01*
X102597732Y-29676456D01*
X102618495Y-29734295D01*
X102627951Y-29752975D01*
X102628882Y-29751367D01*
X102640932Y-29718004D01*
X102663862Y-29647399D01*
X102695469Y-29546558D01*
X102733553Y-29422488D01*
X102775911Y-29282195D01*
X102913990Y-28821294D01*
X103085868Y-28814254D01*
X103143762Y-28812032D01*
X103208191Y-28811672D01*
X103239674Y-28817979D01*
G37*
G36*
X108305254Y-32869534D02*
G01*
X108305254Y-33322403D01*
X108229097Y-33400976D01*
X108152941Y-33479550D01*
X107852317Y-33479550D01*
X107838058Y-33479549D01*
X107717790Y-33479117D01*
X107634828Y-33476704D01*
X107579753Y-33470584D01*
X107543147Y-33459031D01*
X107515591Y-33440319D01*
X107487667Y-33412720D01*
X107423640Y-33345891D01*
X107423640Y-32869148D01*
X107423640Y-32550281D01*
X107709569Y-32550281D01*
X107709569Y-32860037D01*
X107709569Y-33169794D01*
X107852533Y-33169794D01*
X107995498Y-33169794D01*
X107995498Y-32860037D01*
X107995498Y-32550281D01*
X107852533Y-32550281D01*
X107709569Y-32550281D01*
X107423640Y-32550281D01*
X107423640Y-32392405D01*
X107490469Y-32328379D01*
X107518252Y-32303283D01*
X107547776Y-32284716D01*
X107586326Y-32273247D01*
X107643559Y-32267168D01*
X107729132Y-32264772D01*
X107852703Y-32264353D01*
X108148107Y-32264353D01*
X108226680Y-32340509D01*
X108305254Y-32416665D01*
X108305254Y-32860037D01*
X108305254Y-32869534D01*
G37*
G36*
X106994274Y-31967475D02*
G01*
X107070882Y-32018623D01*
X107137712Y-32082649D01*
X107137712Y-32702526D01*
X107137712Y-33322403D01*
X107061555Y-33400976D01*
X107028035Y-33434128D01*
X106992398Y-33459774D01*
X106949387Y-33473327D01*
X106885577Y-33478636D01*
X106787540Y-33479550D01*
X106589682Y-33479550D01*
X106589682Y-33324672D01*
X106589682Y-33169794D01*
X106708818Y-33169794D01*
X106827955Y-33169794D01*
X106827955Y-32860037D01*
X106827955Y-32550281D01*
X106720732Y-32550281D01*
X106613509Y-32550281D01*
X106613509Y-32407317D01*
X106613509Y-32264353D01*
X106692139Y-32264353D01*
X106693902Y-32264360D01*
X106756860Y-32272964D01*
X106799363Y-32292945D01*
X106810294Y-32299137D01*
X106820862Y-32282791D01*
X106826371Y-32231147D01*
X106827955Y-32138067D01*
X106827955Y-31954597D01*
X106916004Y-31954597D01*
X106994274Y-31967475D01*
G37*
G36*
X121505629Y-32871951D02*
G01*
X121505629Y-33479550D01*
X121351265Y-33479550D01*
X121196902Y-33479550D01*
X121190431Y-33020872D01*
X121183959Y-32562195D01*
X121052909Y-32562195D01*
X120921858Y-32562195D01*
X120915387Y-33020872D01*
X120908915Y-33479550D01*
X120754552Y-33479550D01*
X120600188Y-33479550D01*
X120600188Y-32950524D01*
X120600188Y-32421499D01*
X120676344Y-32342926D01*
X120699784Y-32319324D01*
X120737673Y-32288616D01*
X120779593Y-32272177D01*
X120840083Y-32265569D01*
X120933680Y-32264353D01*
X121020816Y-32266984D01*
X121103125Y-32277236D01*
X121146431Y-32294137D01*
X121173012Y-32311972D01*
X121188923Y-32294137D01*
X121199122Y-32283477D01*
X121253756Y-32269183D01*
X121352737Y-32264353D01*
X121505629Y-32264353D01*
X121505629Y-32871951D01*
G37*
G36*
X112227280Y-32871853D02*
G01*
X112058068Y-33481369D01*
X111903190Y-33474502D01*
X111748312Y-33467636D01*
X111588896Y-32895778D01*
X111554821Y-32772974D01*
X111514205Y-32624966D01*
X111479462Y-32496494D01*
X111452350Y-32394143D01*
X111434629Y-32324496D01*
X111428061Y-32294137D01*
X111437874Y-32279595D01*
X111485393Y-32268027D01*
X111575976Y-32264353D01*
X111725310Y-32264353D01*
X111806247Y-32609850D01*
X111820466Y-32669395D01*
X111849093Y-32782381D01*
X111874308Y-32873087D01*
X111893795Y-32933436D01*
X111905242Y-32955347D01*
X111909175Y-32950955D01*
X111924562Y-32911173D01*
X111946994Y-32836624D01*
X111974111Y-32735454D01*
X112003556Y-32615807D01*
X112083812Y-32276266D01*
X112240152Y-32269301D01*
X112396492Y-32262336D01*
X112227280Y-32871853D01*
G37*
G36*
X125460976Y-27451410D02*
G01*
X125460976Y-29786685D01*
X124061117Y-29780537D01*
X122661257Y-29774390D01*
X122654786Y-29315713D01*
X122648315Y-28857036D01*
X123590515Y-28857036D01*
X124532715Y-28857036D01*
X124526255Y-28386445D01*
X124519794Y-27915854D01*
X123822843Y-27909537D01*
X123125892Y-27903220D01*
X123125892Y-27438946D01*
X123125892Y-26974672D01*
X123828800Y-26974672D01*
X124531708Y-26974672D01*
X124531708Y-26510037D01*
X124531708Y-26045403D01*
X123590526Y-26045403D01*
X122649344Y-26045403D01*
X122649344Y-25580769D01*
X122649344Y-25116135D01*
X124055160Y-25116135D01*
X125460976Y-25116135D01*
X125460976Y-27451410D01*
G37*
G36*
X114667167Y-32717073D02*
G01*
X114667167Y-33479550D01*
X114281107Y-33479550D01*
X113895046Y-33479550D01*
X113816473Y-33403393D01*
X113737899Y-33327237D01*
X113737899Y-32719490D01*
X113737899Y-32240525D01*
X114047655Y-32240525D01*
X114047655Y-32705159D01*
X114047655Y-33169794D01*
X114202533Y-33169794D01*
X114357411Y-33169794D01*
X114357411Y-32705159D01*
X114357411Y-32240525D01*
X114202533Y-32240525D01*
X114047655Y-32240525D01*
X113737899Y-32240525D01*
X113737899Y-32111743D01*
X113814055Y-32033170D01*
X113890212Y-31954597D01*
X114278690Y-31954597D01*
X114667167Y-31954597D01*
X114667167Y-32705159D01*
X114667167Y-32717073D01*
G37*
G36*
X126723828Y-33479550D02*
G01*
X126337767Y-33479550D01*
X125951706Y-33479550D01*
X125873133Y-33403393D01*
X125794560Y-33327237D01*
X125794560Y-32719490D01*
X125794560Y-32264353D01*
X126104316Y-32264353D01*
X126104316Y-32717073D01*
X126104316Y-33169794D01*
X126259194Y-33169794D01*
X126414072Y-33169794D01*
X126414072Y-32717073D01*
X126414072Y-32264353D01*
X126259194Y-32264353D01*
X126104316Y-32264353D01*
X125794560Y-32264353D01*
X125794560Y-32111743D01*
X125870716Y-32033170D01*
X125946872Y-31954597D01*
X126335350Y-31954597D01*
X126723828Y-31954597D01*
X126723828Y-32717073D01*
X126723828Y-33479550D01*
G37*
G36*
X111259850Y-32404768D02*
G01*
X111257338Y-32478597D01*
X111246113Y-32534826D01*
X111224109Y-32558898D01*
X111221104Y-32560316D01*
X111209159Y-32574671D01*
X111200432Y-32606211D01*
X111194455Y-32661031D01*
X111190763Y-32745221D01*
X111188889Y-32864874D01*
X111188368Y-33026081D01*
X111188368Y-33479550D01*
X111045404Y-33479550D01*
X110902439Y-33479550D01*
X110902439Y-32871951D01*
X110902439Y-32264353D01*
X111081145Y-32264353D01*
X111259850Y-32264353D01*
X111259850Y-32404768D01*
G37*
G36*
X110664166Y-31942683D02*
G01*
X110661314Y-32017709D01*
X110652789Y-32075678D01*
X110640338Y-32097561D01*
X110635854Y-32105217D01*
X110629043Y-32155118D01*
X110623646Y-32250058D01*
X110619720Y-32388381D01*
X110617323Y-32568432D01*
X110616511Y-32788555D01*
X110616511Y-33479550D01*
X110461633Y-33479550D01*
X110306755Y-33479550D01*
X110306755Y-32633677D01*
X110306755Y-31787805D01*
X110485460Y-31787805D01*
X110664166Y-31787805D01*
X110664166Y-31942683D01*
G37*
G36*
X100564689Y-30007855D02*
G01*
X100631790Y-30048212D01*
X100683567Y-30110647D01*
X100704316Y-30179456D01*
X100704281Y-30181615D01*
X100686464Y-30241604D01*
X100645830Y-30299676D01*
X100588192Y-30340185D01*
X100522272Y-30358161D01*
X100496592Y-30355753D01*
X100423026Y-30322531D01*
X100368334Y-30261285D01*
X100346905Y-30186133D01*
X100353363Y-30145650D01*
X100392556Y-30075201D01*
X100454816Y-30021876D01*
X100525610Y-30000750D01*
X100564689Y-30007855D01*
G37*
G36*
X123268856Y-32407317D02*
G01*
X123266325Y-32471881D01*
X123257720Y-32528578D01*
X123245029Y-32550281D01*
X123239171Y-32559861D01*
X123231530Y-32612098D01*
X123225890Y-32707263D01*
X123222398Y-32842490D01*
X123221201Y-33014915D01*
X123221201Y-33479550D01*
X123066323Y-33479550D01*
X122911445Y-33479550D01*
X122911445Y-32871951D01*
X122911445Y-32264353D01*
X123090151Y-32264353D01*
X123268856Y-32264353D01*
X123268856Y-32407317D01*
G37*
G36*
X123221201Y-31942683D02*
G01*
X123221201Y-32097561D01*
X123066323Y-32097561D01*
X122911445Y-32097561D01*
X122911445Y-31942683D01*
X122911445Y-31787805D01*
X123066323Y-31787805D01*
X123221201Y-31787805D01*
X123221201Y-31942683D01*
G37*
G36*
X116716323Y-27820544D02*
G01*
X116716323Y-28618762D01*
X116358912Y-28618762D01*
X116001501Y-28618762D01*
X116001501Y-27820544D01*
X116001501Y-27022326D01*
X116358912Y-27022326D01*
X116716323Y-27022326D01*
X116716323Y-27820544D01*
G37*
G36*
X111188368Y-31942683D02*
G01*
X111188368Y-32097561D01*
X111045404Y-32097561D01*
X110902439Y-32097561D01*
X110902439Y-31942683D01*
X110902439Y-31787805D01*
X111045404Y-31787805D01*
X111188368Y-31787805D01*
X111188368Y-31942683D01*
G37*
G36*
X111093059Y-27820544D02*
G01*
X111093059Y-28618762D01*
X110735648Y-28618762D01*
X110378237Y-28618762D01*
X110378237Y-27820544D01*
X110378237Y-27022326D01*
X110735648Y-27022326D01*
X111093059Y-27022326D01*
X111093059Y-27820544D01*
G37*
G36*
X108376736Y-27677580D02*
G01*
X108376736Y-28332833D01*
X108031239Y-28332833D01*
X107685742Y-28332833D01*
X107685742Y-27677580D01*
X107685742Y-27022326D01*
X108031239Y-27022326D01*
X108376736Y-27022326D01*
X108376736Y-27677580D01*
G37*
G36*
X105708068Y-27260600D02*
G01*
X105708068Y-27498874D01*
X105350657Y-27498874D01*
X104993246Y-27498874D01*
X104993246Y-27260600D01*
X104993246Y-27022326D01*
X105350657Y-27022326D01*
X105708068Y-27022326D01*
X105708068Y-27260600D01*
G37*
%TD*%
%LPC*%
D12*
%TO.C,J15*%
X134335000Y-33320000D03*
D13*
X139695000Y-33320000D03*
D12*
X134335000Y-24680000D03*
D13*
X139695000Y-24680000D03*
%TD*%
D14*
%TO.C,J12*%
X59000000Y-49000000D03*
X59000000Y-53200000D03*
X53500000Y-49000000D03*
D15*
X53500000Y-53200000D03*
D16*
X46200000Y-51100000D03*
%TD*%
D14*
%TO.C,J11*%
X59000000Y-37500000D03*
X59000000Y-41700000D03*
X53500000Y-37500000D03*
D15*
X53500000Y-41700000D03*
D16*
X46200000Y-39600000D03*
%TD*%
D17*
%TO.C,H1*%
X137500000Y-19500000D03*
%TD*%
D14*
%TO.C,J13*%
X58975000Y-60500000D03*
X58975000Y-64700000D03*
X53475000Y-60500000D03*
D15*
X53475000Y-64700000D03*
D16*
X46175000Y-62600000D03*
%TD*%
D14*
%TO.C,J10*%
X59000000Y-26100000D03*
X59000000Y-30300000D03*
X53500000Y-26100000D03*
D15*
X53500000Y-30300000D03*
D16*
X46200000Y-28200000D03*
%TD*%
D17*
%TO.C,H4*%
X41400000Y-71000000D03*
%TD*%
%TO.C,H2*%
X137500000Y-71000000D03*
%TD*%
D18*
%TO.C,J1*%
X125110000Y-59690000D03*
X127650000Y-60960000D03*
X125110000Y-62230000D03*
D19*
X127650000Y-63500000D03*
D20*
X134000000Y-57910000D03*
X134000000Y-65410000D03*
%TD*%
D17*
%TO.C,H3*%
X41400000Y-19500000D03*
%TD*%
%LPD*%
M02*
